<svg width="518" height="512" viewBox="0 0 259 256" fill="none" xmlns="http://www.w3.org/2000/svg">
<path d="M0.333374 12C0.333374 5.37258 5.70596 0 12.3334 0H247C253.627 0 259 5.37258 259 12V244C259 250.627 253.627 256 247 256H12.3334C5.70595 256 0.333374 250.627 0.333374 244V12Z" fill="black" fill-opacity="0.24"/>
<path d="M24.0909 29H20.1477V17.3636H24.1705C25.3258 17.3636 26.3182 17.5966 27.1477 18.0625C27.9811 18.5246 28.6212 19.1894 29.0682 20.0568C29.5152 20.9242 29.7386 21.9621 29.7386 23.1705C29.7386 24.3826 29.5133 25.4242 29.0625 26.2955C28.6155 27.1667 27.9697 27.8352 27.125 28.3011C26.2841 28.767 25.2727 29 24.0909 29ZM22.2557 27.1761H23.9886C24.7992 27.1761 25.4754 27.0284 26.017 26.733C26.5587 26.4337 26.9659 25.9886 27.2386 25.3977C27.5114 24.803 27.6477 24.0606 27.6477 23.1705C27.6477 22.2803 27.5114 21.5417 27.2386 20.9545C26.9659 20.3636 26.5625 19.9223 26.0284 19.6307C25.4981 19.3352 24.839 19.1875 24.0511 19.1875H22.2557V27.1761ZM35.5142 29.1705C34.6392 29.1705 33.8835 28.9886 33.2472 28.625C32.6146 28.2576 32.1278 27.7386 31.7869 27.0682C31.446 26.3939 31.2756 25.6004 31.2756 24.6875C31.2756 23.7898 31.446 23.0019 31.7869 22.3239C32.1316 21.642 32.6127 21.1117 33.2301 20.733C33.8475 20.3504 34.5729 20.1591 35.4062 20.1591C35.9441 20.1591 36.4517 20.2462 36.929 20.4205C37.41 20.5909 37.8343 20.8561 38.2017 21.2159C38.5729 21.5758 38.8646 22.0341 39.0767 22.5909C39.2888 23.1439 39.3949 23.803 39.3949 24.5682V25.1989H32.2415V23.8125H37.4233C37.4195 23.4186 37.3343 23.0682 37.1676 22.7614C37.0009 22.4508 36.768 22.2064 36.4688 22.0284C36.1733 21.8504 35.8286 21.7614 35.4347 21.7614C35.0142 21.7614 34.6449 21.8636 34.3267 22.0682C34.0085 22.2689 33.7604 22.5341 33.5824 22.8636C33.4081 23.1894 33.3191 23.5473 33.3153 23.9375V25.1477C33.3153 25.6553 33.4081 26.0909 33.5938 26.4545C33.7794 26.8144 34.0388 27.0909 34.3722 27.2841C34.7055 27.4735 35.0956 27.5682 35.5426 27.5682C35.8419 27.5682 36.1127 27.5265 36.3551 27.4432C36.5975 27.3561 36.8078 27.2292 36.9858 27.0625C37.1638 26.8958 37.2983 26.6894 37.3892 26.4432L39.3097 26.6591C39.1884 27.1667 38.9574 27.6098 38.6165 27.9886C38.2794 28.3636 37.8475 28.6553 37.321 28.8636C36.7945 29.0682 36.1922 29.1705 35.5142 29.1705ZM45.4929 20.2727V21.8636H40.4759V20.2727H45.4929ZM41.7145 18.1818H43.7713V26.375C43.7713 26.6515 43.813 26.8636 43.8963 27.0114C43.9834 27.1553 44.0971 27.2538 44.2372 27.3068C44.3774 27.3598 44.5327 27.3864 44.7031 27.3864C44.8319 27.3864 44.9493 27.3769 45.0554 27.358C45.1652 27.339 45.2486 27.322 45.3054 27.3068L45.652 28.9148C45.5421 28.9527 45.3849 28.9943 45.1804 29.0398C44.9796 29.0852 44.7334 29.1117 44.4418 29.1193C43.9266 29.1345 43.4626 29.0568 43.0497 28.8864C42.6368 28.7121 42.3092 28.4432 42.0668 28.0795C41.8281 27.7159 41.7107 27.2614 41.7145 26.7159V18.1818ZM50.983 29.1705C50.108 29.1705 49.3523 28.9886 48.7159 28.625C48.0833 28.2576 47.5966 27.7386 47.2557 27.0682C46.9148 26.3939 46.7443 25.6004 46.7443 24.6875C46.7443 23.7898 46.9148 23.0019 47.2557 22.3239C47.6004 21.642 48.0814 21.1117 48.6989 20.733C49.3163 20.3504 50.0417 20.1591 50.875 20.1591C51.4129 20.1591 51.9205 20.2462 52.3977 20.4205C52.8788 20.5909 53.303 20.8561 53.6705 21.2159C54.0417 21.5758 54.3333 22.0341 54.5455 22.5909C54.7576 23.1439 54.8636 23.803 54.8636 24.5682V25.1989H47.7102V23.8125H52.892C52.8883 23.4186 52.803 23.0682 52.6364 22.7614C52.4697 22.4508 52.2367 22.2064 51.9375 22.0284C51.642 21.8504 51.2973 21.7614 50.9034 21.7614C50.483 21.7614 50.1136 21.8636 49.7955 22.0682C49.4773 22.2689 49.2292 22.5341 49.0511 22.8636C48.8769 23.1894 48.7879 23.5473 48.7841 23.9375V25.1477C48.7841 25.6553 48.8769 26.0909 49.0625 26.4545C49.2481 26.8144 49.5076 27.0909 49.8409 27.2841C50.1742 27.4735 50.5644 27.5682 51.0114 27.5682C51.3106 27.5682 51.5814 27.5265 51.8239 27.4432C52.0663 27.3561 52.2765 27.2292 52.4545 27.0625C52.6326 26.8958 52.767 26.6894 52.858 26.4432L54.7784 26.6591C54.6572 27.1667 54.4261 27.6098 54.0852 27.9886C53.7481 28.3636 53.3163 28.6553 52.7898 28.8636C52.2633 29.0682 51.661 29.1705 50.983 29.1705ZM60.4105 29.1705C59.5393 29.1705 58.7912 28.9792 58.1662 28.5966C57.545 28.214 57.0658 27.6856 56.7287 27.0114C56.3954 26.3333 56.2287 25.553 56.2287 24.6705C56.2287 23.7841 56.3991 23.0019 56.7401 22.3239C57.081 21.642 57.562 21.1117 58.1832 20.733C58.8082 20.3504 59.5469 20.1591 60.3991 20.1591C61.1075 20.1591 61.7344 20.2898 62.2798 20.5511C62.8291 20.8087 63.2666 21.1742 63.5923 21.6477C63.9181 22.1174 64.1037 22.6667 64.1491 23.2955H62.1832C62.1037 22.875 61.9143 22.5246 61.6151 22.2443C61.3196 21.9602 60.9238 21.8182 60.4276 21.8182C60.0071 21.8182 59.6378 21.9318 59.3196 22.1591C59.0014 22.3826 58.7533 22.7045 58.5753 23.125C58.401 23.5455 58.3139 24.0492 58.3139 24.6364C58.3139 25.2311 58.401 25.7424 58.5753 26.1705C58.7495 26.5947 58.9938 26.9223 59.3082 27.1534C59.6264 27.3807 59.9995 27.4943 60.4276 27.4943C60.7306 27.4943 61.0014 27.4375 61.2401 27.3239C61.4825 27.2064 61.6851 27.0379 61.848 26.8182C62.0109 26.5985 62.1226 26.3314 62.1832 26.017H64.1491C64.0999 26.6345 63.9181 27.1818 63.6037 27.6591C63.2893 28.1326 62.8613 28.5038 62.3196 28.7727C61.7779 29.0379 61.1416 29.1705 60.4105 29.1705ZM70.196 20.2727V21.8636H65.179V20.2727H70.196ZM66.4176 18.1818H68.4744V26.375C68.4744 26.6515 68.5161 26.8636 68.5994 27.0114C68.6866 27.1553 68.8002 27.2538 68.9403 27.3068C69.0805 27.3598 69.2358 27.3864 69.4062 27.3864C69.535 27.3864 69.6525 27.3769 69.7585 27.358C69.8684 27.339 69.9517 27.322 70.0085 27.3068L70.3551 28.9148C70.2453 28.9527 70.0881 28.9943 69.8835 29.0398C69.6828 29.0852 69.4366 29.1117 69.1449 29.1193C68.6297 29.1345 68.1657 29.0568 67.7528 28.8864C67.34 28.7121 67.0123 28.4432 66.7699 28.0795C66.5313 27.7159 66.4138 27.2614 66.4176 26.7159V18.1818ZM75.6293 29.1705C74.777 29.1705 74.0384 28.983 73.4134 28.608C72.7884 28.233 72.3035 27.7083 71.9588 27.0341C71.6179 26.3598 71.4474 25.572 71.4474 24.6705C71.4474 23.7689 71.6179 22.9792 71.9588 22.3011C72.3035 21.6231 72.7884 21.0966 73.4134 20.7216C74.0384 20.3466 74.777 20.1591 75.6293 20.1591C76.4815 20.1591 77.2202 20.3466 77.8452 20.7216C78.4702 21.0966 78.9531 21.6231 79.294 22.3011C79.6387 22.9792 79.8111 23.7689 79.8111 24.6705C79.8111 25.572 79.6387 26.3598 79.294 27.0341C78.9531 27.7083 78.4702 28.233 77.8452 28.608C77.2202 28.983 76.4815 29.1705 75.6293 29.1705ZM75.6406 27.5227C76.1027 27.5227 76.4891 27.3958 76.7997 27.142C77.1103 26.8845 77.3414 26.5398 77.4929 26.108C77.6482 25.6761 77.7259 25.1951 77.7259 24.6648C77.7259 24.1307 77.6482 23.6477 77.4929 23.2159C77.3414 22.7803 77.1103 22.4337 76.7997 22.1761C76.4891 21.9186 76.1027 21.7898 75.6406 21.7898C75.1671 21.7898 74.7732 21.9186 74.4588 22.1761C74.1482 22.4337 73.9152 22.7803 73.7599 23.2159C73.6084 23.6477 73.5327 24.1307 73.5327 24.6648C73.5327 25.1951 73.6084 25.6761 73.7599 26.108C73.9152 26.5398 74.1482 26.8845 74.4588 27.142C74.7732 27.3958 75.1671 27.5227 75.6406 27.5227ZM81.5568 29V20.2727H83.5511V21.7273H83.642C83.8011 21.2235 84.0739 20.8352 84.4602 20.5625C84.8504 20.286 85.2955 20.1477 85.7955 20.1477C85.9091 20.1477 86.036 20.1534 86.1761 20.1648C86.3201 20.1723 86.4394 20.1856 86.5341 20.2045V22.0966C86.447 22.0663 86.3087 22.0398 86.1193 22.017C85.9337 21.9905 85.7538 21.9773 85.5795 21.9773C85.2045 21.9773 84.8674 22.0587 84.5682 22.2216C84.2727 22.3807 84.0398 22.6023 83.8693 22.8864C83.6989 23.1705 83.6136 23.4981 83.6136 23.8693V29H81.5568ZM94.7983 22.5795L92.9233 22.7841C92.8703 22.5947 92.7775 22.4167 92.6449 22.25C92.5161 22.0833 92.3419 21.9489 92.1222 21.8466C91.9025 21.7443 91.6335 21.6932 91.3153 21.6932C90.8873 21.6932 90.5275 21.786 90.2358 21.9716C89.9479 22.1572 89.8059 22.3977 89.8097 22.6932C89.8059 22.947 89.8987 23.1534 90.0881 23.3125C90.2813 23.4716 90.5994 23.6023 91.0426 23.7045L92.5312 24.0227C93.357 24.2008 93.9706 24.483 94.3722 24.8693C94.7775 25.2557 94.982 25.7614 94.9858 26.3864C94.982 26.9356 94.821 27.4205 94.5028 27.8409C94.1884 28.2576 93.7509 28.5833 93.1903 28.8182C92.6297 29.053 91.9858 29.1705 91.2585 29.1705C90.1903 29.1705 89.3305 28.947 88.679 28.5C88.0275 28.0492 87.6392 27.4223 87.5142 26.6193L89.5199 26.4261C89.6108 26.8201 89.804 27.1174 90.0994 27.3182C90.3949 27.5189 90.7794 27.6193 91.2528 27.6193C91.7415 27.6193 92.1335 27.5189 92.429 27.3182C92.7282 27.1174 92.8778 26.8693 92.8778 26.5739C92.8778 26.3239 92.7813 26.1174 92.5881 25.9545C92.3987 25.7917 92.1032 25.6667 91.7017 25.5795L90.2131 25.267C89.3759 25.0928 88.7566 24.7992 88.3551 24.3864C87.9536 23.9697 87.7547 23.4432 87.7585 22.8068C87.7547 22.2689 87.9006 21.803 88.196 21.4091C88.4953 21.0114 88.91 20.7045 89.4403 20.4886C89.9744 20.2689 90.59 20.1591 91.2869 20.1591C92.3097 20.1591 93.1146 20.3769 93.7017 20.8125C94.2926 21.2481 94.6581 21.8371 94.7983 22.5795Z" fill="white"/>
<path opacity="0.7" d="M19.6165 50.1406V48.8182H27.4964V50.1406H24.3196V59H22.7884V50.1406H19.6165ZM34.791 51.4929C34.738 51.0223 34.5192 50.6577 34.1348 50.3991C33.7503 50.1373 33.2664 50.0064 32.6831 50.0064C32.2654 50.0064 31.9042 50.0727 31.5993 50.2053C31.2943 50.3345 31.0574 50.5135 30.8883 50.7422C30.7226 50.9676 30.6397 51.2244 30.6397 51.5128C30.6397 51.7547 30.6961 51.9635 30.8088 52.1392C30.9248 52.3149 31.0756 52.4624 31.2612 52.5817C31.4501 52.6977 31.6523 52.7955 31.8677 52.875C32.0832 52.9512 32.2903 53.0142 32.4892 53.0639L33.4835 53.3224C33.8083 53.402 34.1414 53.5097 34.4828 53.6456C34.8242 53.7815 35.1407 53.9605 35.4324 54.1825C35.724 54.4046 35.9593 54.6797 36.1383 55.0078C36.3206 55.3359 36.4118 55.7287 36.4118 56.1861C36.4118 56.7628 36.2626 57.2749 35.9643 57.7223C35.6693 58.1697 35.2401 58.5227 34.6767 58.7812C34.1165 59.0398 33.4387 59.169 32.6433 59.169C31.881 59.169 31.2214 59.0481 30.6646 58.8061C30.1078 58.5642 29.6719 58.2211 29.3571 57.777C29.0422 57.3295 28.8682 56.7992 28.835 56.1861H30.3762C30.4061 56.554 30.5254 56.8606 30.7342 57.1058C30.9463 57.3478 31.2164 57.5284 31.5446 57.6477C31.876 57.7637 32.2389 57.8217 32.6333 57.8217C33.0675 57.8217 33.4537 57.7538 33.7917 57.6179C34.1331 57.4787 34.4016 57.2865 34.5971 57.0412C34.7927 56.7926 34.8904 56.5026 34.8904 56.1712C34.8904 55.8696 34.8043 55.6226 34.6319 55.4304C34.4629 55.2382 34.2325 55.0791 33.9409 54.9531C33.6525 54.8272 33.3261 54.7161 32.9615 54.62L31.7583 54.2919C30.943 54.0698 30.2967 53.7434 29.8194 53.3125C29.3455 52.8816 29.1085 52.3116 29.1085 51.6023C29.1085 51.0156 29.2676 50.5036 29.5858 50.0661C29.9039 49.6286 30.3348 49.2888 30.8784 49.0469C31.4219 48.8016 32.0351 48.679 32.7179 48.679C33.4073 48.679 34.0154 48.8 34.5424 49.0419C35.0727 49.2839 35.4904 49.617 35.7953 50.0412C36.1002 50.4621 36.2593 50.946 36.2725 51.4929H34.791ZM39.0256 59H37.3949L41.0589 48.8182H42.8338L46.4979 59H44.8672L41.9886 50.6676H41.9091L39.0256 59ZM39.299 55.0128H44.5888V56.3054H39.299V55.0128ZM53.2095 59L50.9624 51.3636H52.4986L53.995 56.9716H54.0696L55.571 51.3636H57.1072L58.5987 56.9467H58.6733L60.1598 51.3636H61.696L59.4538 59H57.9375L56.3864 53.4865H56.272L54.7209 59H53.2095ZM66.0909 59.1541C65.375 59.1541 64.7502 58.9901 64.2166 58.6619C63.683 58.3338 63.2687 57.8748 62.9737 57.2848C62.6787 56.6948 62.5312 56.0054 62.5312 55.2166C62.5312 54.4245 62.6787 53.7318 62.9737 53.1385C63.2687 52.5452 63.683 52.0845 64.2166 51.7564C64.7502 51.4283 65.375 51.2642 66.0909 51.2642C66.8068 51.2642 67.4316 51.4283 67.9652 51.7564C68.4988 52.0845 68.9131 52.5452 69.2081 53.1385C69.5031 53.7318 69.6506 54.4245 69.6506 55.2166C69.6506 56.0054 69.5031 56.6948 69.2081 57.2848C68.9131 57.8748 68.4988 58.3338 67.9652 58.6619C67.4316 58.9901 66.8068 59.1541 66.0909 59.1541ZM66.0959 57.9062C66.5599 57.9062 66.9444 57.7836 67.2493 57.5384C67.5542 57.2931 67.7796 56.9666 67.9254 56.5589C68.0746 56.1513 68.1491 55.7022 68.1491 55.2116C68.1491 54.7244 68.0746 54.277 67.9254 53.8693C67.7796 53.4583 67.5542 53.1286 67.2493 52.88C66.9444 52.6314 66.5599 52.5071 66.0959 52.5071C65.6286 52.5071 65.2408 52.6314 64.9325 52.88C64.6276 53.1286 64.4006 53.4583 64.2514 53.8693C64.1056 54.277 64.0327 54.7244 64.0327 55.2116C64.0327 55.7022 64.1056 56.1513 64.2514 56.5589C64.4006 56.9666 64.6276 57.2931 64.9325 57.5384C65.2408 57.7836 65.6286 57.9062 66.0959 57.9062ZM71.3098 59V51.3636H72.7466V52.5767H72.8262C72.9654 52.1657 73.2106 51.8426 73.562 51.6072C73.9166 51.3686 74.3176 51.2493 74.7651 51.2493C74.8579 51.2493 74.9673 51.2526 75.0932 51.2592C75.2225 51.2659 75.3236 51.2741 75.3965 51.2841V52.706C75.3368 52.6894 75.2308 52.6712 75.0783 52.6513C74.9258 52.6281 74.7734 52.6165 74.6209 52.6165C74.2696 52.6165 73.9564 52.6911 73.6813 52.8402C73.4095 52.986 73.1941 53.1899 73.035 53.4517C72.8759 53.7102 72.7963 54.0052 72.7963 54.3366V59H71.3098ZM78.0501 56.4098L78.0401 54.5952H78.2987L81.3413 51.3636H83.1211L79.6509 55.0426H79.4173L78.0501 56.4098ZM76.6829 59V48.8182H78.1694V59H76.6829ZM81.5053 59L78.771 55.3707L79.7951 54.3317L83.3299 59H81.5053ZM90.1982 53.228L88.8509 53.4666C88.7945 53.2943 88.705 53.1302 88.5824 52.9744C88.4631 52.8187 88.3007 52.6911 88.0952 52.5916C87.8897 52.4922 87.6328 52.4425 87.3246 52.4425C86.9036 52.4425 86.5523 52.5369 86.2706 52.7259C85.9889 52.9115 85.848 53.1518 85.848 53.4467C85.848 53.7019 85.9425 53.9074 86.1314 54.0632C86.3203 54.219 86.6252 54.3466 87.0462 54.446L88.2592 54.7244C88.9619 54.8868 89.4856 55.1371 89.8303 55.4751C90.175 55.8132 90.3473 56.2524 90.3473 56.7926C90.3473 57.25 90.2147 57.6577 89.9496 58.0156C89.6877 58.3703 89.3215 58.6487 88.8509 58.8509C88.3835 59.053 87.8416 59.1541 87.2251 59.1541C86.37 59.1541 85.6723 58.9718 85.1321 58.6072C84.5919 58.2393 84.2604 57.7173 84.1378 57.0412L85.5746 56.8224C85.6641 57.197 85.848 57.4804 86.1264 57.6726C86.4048 57.8615 86.7678 57.956 87.2152 57.956C87.7024 57.956 88.0919 57.8549 88.3835 57.6527C88.6752 57.4472 88.821 57.197 88.821 56.902C88.821 56.6634 88.7315 56.4628 88.5526 56.3004C88.3769 56.138 88.1068 56.0154 87.7422 55.9325L86.4496 55.6491C85.737 55.4867 85.21 55.2282 84.8686 54.8736C84.5305 54.5189 84.3615 54.0698 84.3615 53.5263C84.3615 53.0755 84.4875 52.6811 84.7393 52.343C84.9912 52.005 85.3393 51.7415 85.7834 51.5526C86.2275 51.3603 86.7363 51.2642 87.3097 51.2642C88.1349 51.2642 88.7846 51.4432 89.2585 51.8011C89.7325 52.1558 90.0457 52.6314 90.1982 53.228ZM98.9034 59.1541C98.1875 59.1541 97.5627 58.9901 97.0291 58.6619C96.4955 58.3338 96.0812 57.8748 95.7862 57.2848C95.4912 56.6948 95.3438 56.0054 95.3438 55.2166C95.3438 54.4245 95.4912 53.7318 95.7862 53.1385C96.0812 52.5452 96.4955 52.0845 97.0291 51.7564C97.5627 51.4283 98.1875 51.2642 98.9034 51.2642C99.6193 51.2642 100.244 51.4283 100.778 51.7564C101.311 52.0845 101.726 52.5452 102.021 53.1385C102.316 53.7318 102.463 54.4245 102.463 55.2166C102.463 56.0054 102.316 56.6948 102.021 57.2848C101.726 57.8748 101.311 58.3338 100.778 58.6619C100.244 58.9901 99.6193 59.1541 98.9034 59.1541ZM98.9084 57.9062C99.3724 57.9062 99.7569 57.7836 100.062 57.5384C100.367 57.2931 100.592 56.9666 100.738 56.5589C100.887 56.1513 100.962 55.7022 100.962 55.2116C100.962 54.7244 100.887 54.277 100.738 53.8693C100.592 53.4583 100.367 53.1286 100.062 52.88C99.7569 52.6314 99.3724 52.5071 98.9084 52.5071C98.4411 52.5071 98.0533 52.6314 97.745 52.88C97.4401 53.1286 97.2131 53.4583 97.0639 53.8693C96.9181 54.277 96.8452 54.7244 96.8452 55.2116C96.8452 55.7022 96.9181 56.1513 97.0639 56.5589C97.2131 56.9666 97.4401 57.2931 97.745 57.5384C98.0533 57.7836 98.4411 57.9062 98.9084 57.9062ZM105.609 54.4659V59H104.122V51.3636H105.549V52.6065H105.644C105.819 52.2022 106.094 51.8774 106.469 51.6321C106.847 51.3868 107.322 51.2642 107.896 51.2642C108.416 51.2642 108.872 51.3736 109.263 51.5923C109.654 51.8078 109.957 52.1293 110.173 52.5568C110.388 52.9844 110.496 53.513 110.496 54.1428V59H109.009V54.3217C109.009 53.7682 108.865 53.3357 108.577 53.0241C108.289 52.7093 107.892 52.5518 107.389 52.5518C107.044 52.5518 106.737 52.6264 106.469 52.7756C106.204 52.9247 105.993 53.1435 105.838 53.4318C105.685 53.7169 105.609 54.0616 105.609 54.4659ZM115.812 50.1406V48.8182H123.692V50.1406H120.515V59H118.984V50.1406H115.812ZM126.323 48.8182L129.157 57.1108H129.271L132.105 48.8182H133.765L130.101 59H128.327L124.662 48.8182H126.323ZM135.236 48.8182H137.1L140.342 56.733H140.461L143.702 48.8182H145.567V59H144.105V51.6321H144.011L141.008 58.9851H139.795L136.792 51.6271H136.697V59H135.236V48.8182ZM151.505 59V48.8182H152.992V52.6016H153.081C153.167 52.4425 153.292 52.2585 153.454 52.0497C153.617 51.8409 153.842 51.6586 154.13 51.5028C154.419 51.3438 154.8 51.2642 155.274 51.2642C155.89 51.2642 156.44 51.42 156.924 51.7315C157.408 52.0431 157.788 52.4922 158.063 53.0788C158.341 53.6655 158.48 54.3714 158.48 55.1967C158.48 56.022 158.343 56.7296 158.068 57.3196C157.793 57.9062 157.415 58.3587 156.934 58.6768C156.454 58.9917 155.905 59.1491 155.289 59.1491C154.825 59.1491 154.445 59.0713 154.15 58.9155C153.859 58.7597 153.63 58.5774 153.464 58.3686C153.298 58.1598 153.171 57.9742 153.081 57.8118H152.957V59H151.505ZM152.962 55.1818C152.962 55.7187 153.04 56.1894 153.196 56.5938C153.351 56.9981 153.577 57.3146 153.872 57.5433C154.167 57.7687 154.528 57.8814 154.956 57.8814C155.4 57.8814 155.771 57.7637 156.069 57.5284C156.368 57.2898 156.593 56.9666 156.745 56.5589C156.901 56.1513 156.979 55.6922 156.979 55.1818C156.979 54.678 156.903 54.2256 156.75 53.8246C156.601 53.4235 156.376 53.107 156.074 52.875C155.776 52.643 155.403 52.527 154.956 52.527C154.525 52.527 154.16 52.638 153.862 52.8601C153.567 53.0821 153.343 53.392 153.191 53.7898C153.038 54.1875 152.962 54.6515 152.962 55.1818ZM160.15 59V51.3636H161.636V59H160.15ZM160.9 50.1854C160.642 50.1854 160.42 50.0992 160.234 49.9268C160.052 49.7512 159.961 49.5424 159.961 49.3004C159.961 49.0552 160.052 48.8464 160.234 48.674C160.42 48.4983 160.642 48.4105 160.9 48.4105C161.159 48.4105 161.379 48.4983 161.562 48.674C161.747 48.8464 161.84 49.0552 161.84 49.3004C161.84 49.5424 161.747 49.7512 161.562 49.9268C161.379 50.0992 161.159 50.1854 160.9 50.1854ZM167.201 51.3636V52.5568H163.029V51.3636H167.201ZM164.148 49.5341H165.635V56.7578C165.635 57.0462 165.678 57.2633 165.764 57.4091C165.85 57.5516 165.961 57.6494 166.097 57.7024C166.236 57.7521 166.387 57.777 166.549 57.777C166.669 57.777 166.773 57.7687 166.863 57.7521C166.952 57.7356 167.022 57.7223 167.071 57.7124L167.34 58.9403C167.254 58.9735 167.131 59.0066 166.972 59.0398C166.813 59.0762 166.614 59.0961 166.375 59.0994C165.984 59.1061 165.62 59.0365 165.282 58.8906C164.944 58.7448 164.67 58.5194 164.461 58.2145C164.252 57.9096 164.148 57.5268 164.148 57.0661V49.5341ZM171.98 59.1541C171.24 59.1541 170.604 58.9867 170.07 58.652C169.54 58.3139 169.133 57.8482 168.847 57.255C168.562 56.6617 168.42 55.9822 168.42 55.2166C168.42 54.4411 168.566 53.7566 168.857 53.1634C169.149 52.5668 169.56 52.1011 170.09 51.7663C170.621 51.4316 171.245 51.2642 171.965 51.2642C172.545 51.2642 173.062 51.3719 173.516 51.5874C173.97 51.7995 174.336 52.0978 174.615 52.4822C174.896 52.8667 175.064 53.3158 175.117 53.8295H173.67C173.59 53.4716 173.408 53.1634 173.123 52.9048C172.841 52.6463 172.463 52.517 171.99 52.517C171.575 52.517 171.212 52.6264 170.901 52.8452C170.593 53.0606 170.352 53.3688 170.18 53.7699C170.008 54.1676 169.921 54.6383 169.921 55.1818C169.921 55.7386 170.006 56.2192 170.175 56.6236C170.344 57.0279 170.583 57.3411 170.891 57.5632C171.202 57.7853 171.569 57.8963 171.99 57.8963C172.271 57.8963 172.526 57.8449 172.755 57.7422C172.987 57.6361 173.181 57.4853 173.337 57.2898C173.496 57.0942 173.607 56.8589 173.67 56.5838H175.117C175.064 57.0777 174.903 57.5185 174.634 57.9062C174.366 58.294 174.006 58.599 173.556 58.821C173.108 59.0431 172.583 59.1541 171.98 59.1541ZM179.923 59.1541C179.207 59.1541 178.582 58.9901 178.049 58.6619C177.515 58.3338 177.101 57.8748 176.806 57.2848C176.511 56.6948 176.363 56.0054 176.363 55.2166C176.363 54.4245 176.511 53.7318 176.806 53.1385C177.101 52.5452 177.515 52.0845 178.049 51.7564C178.582 51.4283 179.207 51.2642 179.923 51.2642C180.639 51.2642 181.264 51.4283 181.797 51.7564C182.331 52.0845 182.745 52.5452 183.04 53.1385C183.335 53.7318 183.483 54.4245 183.483 55.2166C183.483 56.0054 183.335 56.6948 183.04 57.2848C182.745 57.8748 182.331 58.3338 181.797 58.6619C181.264 58.9901 180.639 59.1541 179.923 59.1541ZM179.928 57.9062C180.392 57.9062 180.776 57.7836 181.081 57.5384C181.386 57.2931 181.612 56.9666 181.757 56.5589C181.907 56.1513 181.981 55.7022 181.981 55.2116C181.981 54.7244 181.907 54.277 181.757 53.8693C181.612 53.4583 181.386 53.1286 181.081 52.88C180.776 52.6314 180.392 52.5071 179.928 52.5071C179.461 52.5071 179.073 52.6314 178.765 52.88C178.46 53.1286 178.233 53.4583 178.083 53.8693C177.938 54.277 177.865 54.7244 177.865 55.2116C177.865 55.7022 177.938 56.1513 178.083 56.5589C178.233 56.9666 178.46 57.2931 178.765 57.5384C179.073 57.7836 179.461 57.9062 179.928 57.9062ZM188.001 59.1491C187.384 59.1491 186.834 58.9917 186.35 58.6768C185.869 58.3587 185.492 57.9062 185.216 57.3196C184.945 56.7296 184.809 56.022 184.809 55.1967C184.809 54.3714 184.946 53.6655 185.221 53.0788C185.5 52.4922 185.881 52.0431 186.365 51.7315C186.849 51.42 187.397 51.2642 188.01 51.2642C188.484 51.2642 188.866 51.3438 189.154 51.5028C189.446 51.6586 189.671 51.8409 189.83 52.0497C189.992 52.2585 190.118 52.4425 190.208 52.6016H190.297V48.8182H191.784V59H190.332V57.8118H190.208C190.118 57.9742 189.989 58.1598 189.82 58.3686C189.654 58.5774 189.426 58.7597 189.134 58.9155C188.842 59.0713 188.465 59.1491 188.001 59.1491ZM188.329 57.8814C188.756 57.8814 189.117 57.7687 189.412 57.5433C189.711 57.3146 189.936 56.9981 190.089 56.5938C190.244 56.1894 190.322 55.7187 190.322 55.1818C190.322 54.6515 190.246 54.1875 190.094 53.7898C189.941 53.392 189.717 53.0821 189.422 52.8601C189.127 52.638 188.763 52.527 188.329 52.527C187.881 52.527 187.508 52.643 187.21 52.875C186.912 53.107 186.686 53.4235 186.534 53.8246C186.385 54.2256 186.31 54.678 186.31 55.1818C186.31 55.6922 186.386 56.1513 186.539 56.5589C186.691 56.9666 186.917 57.2898 187.215 57.5284C187.517 57.7637 187.888 57.8814 188.329 57.8814ZM197.197 59.1541C196.444 59.1541 195.796 58.9934 195.253 58.6719C194.713 58.3471 194.295 57.8913 194 57.3047C193.708 56.7147 193.562 56.0237 193.562 55.2315C193.562 54.4493 193.708 53.7599 194 53.1634C194.295 52.5668 194.706 52.1011 195.233 51.7663C195.763 51.4316 196.383 51.2642 197.092 51.2642C197.523 51.2642 197.941 51.3355 198.345 51.478C198.75 51.6205 199.112 51.8442 199.434 52.1491C199.755 52.4541 200.009 52.8501 200.195 53.3374C200.38 53.8213 200.473 54.4096 200.473 55.1023V55.6293H194.403V54.5156H199.016C199.016 54.1245 198.937 53.7782 198.778 53.4766C198.619 53.1716 198.395 52.9313 198.107 52.7557C197.821 52.58 197.487 52.4922 197.102 52.4922C196.685 52.4922 196.32 52.5949 196.009 52.8004C195.7 53.0026 195.462 53.2678 195.293 53.5959C195.127 53.9207 195.044 54.2737 195.044 54.6548V55.5249C195.044 56.0353 195.134 56.4695 195.312 56.8274C195.495 57.1854 195.748 57.4588 196.073 57.6477C196.398 57.8333 196.777 57.9261 197.212 57.9261C197.493 57.9261 197.75 57.8864 197.982 57.8068C198.214 57.724 198.415 57.6013 198.584 57.4389C198.753 57.2765 198.882 57.076 198.972 56.8374L200.379 57.0909C200.266 57.5052 200.064 57.8681 199.772 58.1797C199.484 58.4879 199.121 58.7282 198.683 58.9006C198.249 59.0696 197.754 59.1541 197.197 59.1541ZM21.4858 66.8182V77H19.9993V66.8182H21.4858ZM26.7768 77.1541C26.0244 77.1541 25.3765 76.9934 24.8329 76.6719C24.2927 76.3471 23.8751 75.8913 23.5801 75.3047C23.2884 74.7147 23.1426 74.0237 23.1426 73.2315C23.1426 72.4493 23.2884 71.7599 23.5801 71.1634C23.8751 70.5668 24.286 70.1011 24.813 69.7663C25.3433 69.4316 25.9631 69.2642 26.6724 69.2642C27.1033 69.2642 27.5209 69.3355 27.9252 69.478C28.3296 69.6205 28.6925 69.8442 29.014 70.1491C29.3355 70.4541 29.5891 70.8501 29.7747 71.3374C29.9603 71.8213 30.0531 72.4096 30.0531 73.1023V73.6293H23.9828V72.5156H28.5964C28.5964 72.1245 28.5169 71.7782 28.3578 71.4766C28.1987 71.1716 27.975 70.9313 27.6866 70.7557C27.4016 70.58 27.0668 70.4922 26.6824 70.4922C26.2647 70.4922 25.9002 70.5949 25.5886 70.8004C25.2804 71.0026 25.0417 71.2678 24.8727 71.5959C24.707 71.9207 24.6241 72.2737 24.6241 72.6548V73.5249C24.6241 74.0353 24.7136 74.4695 24.8926 74.8274C25.0749 75.1854 25.3284 75.4588 25.6532 75.6477C25.978 75.8333 26.3575 75.9261 26.7917 75.9261C27.0734 75.9261 27.3303 75.8864 27.5623 75.8068C27.7943 75.724 27.9949 75.6013 28.1639 75.4389C28.3329 75.2765 28.4622 75.076 28.5517 74.8374L29.9586 75.0909C29.8459 75.5052 29.6438 75.8681 29.3521 76.1797C29.0637 76.4879 28.7008 76.7282 28.2633 76.9006C27.8291 77.0696 27.3336 77.1541 26.7768 77.1541ZM38.0163 69.3636L35.2472 77H33.6562L30.8821 69.3636H32.478L34.4119 75.2401H34.4915L36.4205 69.3636H38.0163ZM42.4448 77.1541C41.6924 77.1541 41.0444 76.9934 40.5009 76.6719C39.9606 76.3471 39.543 75.8913 39.248 75.3047C38.9564 74.7147 38.8105 74.0237 38.8105 73.2315C38.8105 72.4493 38.9564 71.7599 39.248 71.1634C39.543 70.5668 39.954 70.1011 40.481 69.7663C41.0113 69.4316 41.6311 69.2642 42.3404 69.2642C42.7712 69.2642 43.1889 69.3355 43.5932 69.478C43.9976 69.6205 44.3605 69.8442 44.682 70.1491C45.0035 70.4541 45.257 70.8501 45.4426 71.3374C45.6283 71.8213 45.7211 72.4096 45.7211 73.1023V73.6293H39.6507V72.5156H44.2644C44.2644 72.1245 44.1848 71.7782 44.0257 71.4766C43.8667 71.1716 43.6429 70.9313 43.3546 70.7557C43.0695 70.58 42.7348 70.4922 42.3503 70.4922C41.9327 70.4922 41.5681 70.5949 41.2566 70.8004C40.9483 71.0026 40.7097 71.2678 40.5407 71.5959C40.3749 71.9207 40.2921 72.2737 40.2921 72.6548V73.5249C40.2921 74.0353 40.3816 74.4695 40.5605 74.8274C40.7428 75.1854 40.9964 75.4588 41.3212 75.6477C41.646 75.8333 42.0255 75.9261 42.4597 75.9261C42.7414 75.9261 42.9983 75.8864 43.2303 75.8068C43.4623 75.724 43.6628 75.6013 43.8319 75.4389C44.0009 75.2765 44.1301 75.076 44.2196 74.8374L45.6266 75.0909C45.5139 75.5052 45.3117 75.8681 45.0201 76.1797C44.7317 76.4879 44.3688 76.7282 43.9313 76.9006C43.4971 77.0696 43.0016 77.1541 42.4448 77.1541ZM48.8569 66.8182V77H47.3704V66.8182H48.8569ZM51.8361 77.0945C51.5643 77.0945 51.3307 76.9983 51.1351 76.8061C50.9396 76.6106 50.8418 76.3752 50.8418 76.1001C50.8418 75.8284 50.9396 75.5964 51.1351 75.4041C51.3307 75.2086 51.5643 75.1108 51.8361 75.1108C52.1079 75.1108 52.3416 75.2086 52.5371 75.4041C52.7327 75.5964 52.8304 75.8284 52.8304 76.1001C52.8304 76.2824 52.784 76.4498 52.6912 76.6023C52.6017 76.7514 52.4824 76.8707 52.3333 76.9602C52.1841 77.0497 52.0184 77.0945 51.8361 77.0945ZM58.4819 77V66.8182H60.0181V75.6776H64.6317V77H58.4819ZM69.5561 77.1541C68.8037 77.1541 68.1558 76.9934 67.6122 76.6719C67.072 76.3471 66.6544 75.8913 66.3594 75.3047C66.0677 74.7147 65.9219 74.0237 65.9219 73.2315C65.9219 72.4493 66.0677 71.7599 66.3594 71.1634C66.6544 70.5668 67.0653 70.1011 67.5923 69.7663C68.1226 69.4316 68.7424 69.2642 69.4517 69.2642C69.8826 69.2642 70.3002 69.3355 70.7045 69.478C71.1089 69.6205 71.4718 69.8442 71.7933 70.1491C72.1148 70.4541 72.3684 70.8501 72.554 71.3374C72.7396 71.8213 72.8324 72.4096 72.8324 73.1023V73.6293H66.7621V72.5156H71.3757C71.3757 72.1245 71.2962 71.7782 71.1371 71.4766C70.978 71.1716 70.7543 70.9313 70.4659 70.7557C70.1809 70.58 69.8461 70.4922 69.4616 70.4922C69.044 70.4922 68.6795 70.5949 68.3679 70.8004C68.0597 71.0026 67.821 71.2678 67.652 71.5959C67.4863 71.9207 67.4034 72.2737 67.4034 72.6548V73.5249C67.4034 74.0353 67.4929 74.4695 67.6719 74.8274C67.8542 75.1854 68.1077 75.4588 68.4325 75.6477C68.7573 75.8333 69.1368 75.9261 69.571 75.9261C69.8527 75.9261 70.1096 75.8864 70.3416 75.8068C70.5736 75.724 70.7741 75.6013 70.9432 75.4389C71.1122 75.2765 71.2415 75.076 71.331 74.8374L72.7379 75.0909C72.6252 75.5052 72.4231 75.8681 72.1314 76.1797C71.843 76.4879 71.4801 76.7282 71.0426 76.9006C70.6084 77.0696 70.1129 77.1541 69.5561 77.1541ZM76.704 77.169C76.2201 77.169 75.7826 77.0795 75.3915 76.9006C75.0004 76.7183 74.6905 76.4548 74.4618 76.1101C74.2364 75.7654 74.1238 75.3428 74.1238 74.8423C74.1238 74.4115 74.2066 74.0568 74.3723 73.7784C74.5381 73.5 74.7618 73.2796 75.0435 73.1172C75.3252 72.9548 75.6401 72.8321 75.9881 72.7493C76.3361 72.6664 76.6908 72.6035 77.052 72.5604C77.5094 72.5073 77.8806 72.4643 78.1657 72.4311C78.4507 72.3946 78.6578 72.3366 78.7871 72.2571C78.9164 72.1776 78.981 72.0483 78.981 71.8693V71.8345C78.981 71.4003 78.8584 71.0639 78.6131 70.8253C78.3712 70.5866 78.0099 70.4673 77.5293 70.4673C77.0288 70.4673 76.6344 70.5784 76.3461 70.8004C76.061 71.0192 75.8638 71.2628 75.7544 71.5312L74.3574 71.2131C74.5231 70.7491 74.7651 70.3745 75.0833 70.0895C75.4048 69.8011 75.7743 69.5923 76.1919 69.4631C76.6096 69.3305 77.0487 69.2642 77.5094 69.2642C77.8143 69.2642 78.1375 69.3007 78.4789 69.3736C78.8236 69.4432 79.1451 69.5724 79.4434 69.7614C79.745 69.9503 79.9919 70.2204 80.1841 70.5717C80.3764 70.9197 80.4725 71.3722 80.4725 71.929V77H79.0208V75.956H78.9611C78.865 76.1482 78.7208 76.3371 78.5286 76.5227C78.3364 76.7083 78.0894 76.8625 77.7878 76.9851C77.4862 77.1077 77.1249 77.169 76.704 77.169ZM77.0272 75.9759C77.4382 75.9759 77.7895 75.8946 78.0811 75.7322C78.3761 75.5698 78.5998 75.3577 78.7523 75.0959C78.9081 74.8307 78.986 74.5473 78.986 74.2457V73.2614C78.9329 73.3144 78.8302 73.3641 78.6777 73.4105C78.5286 73.4536 78.3579 73.4917 78.1657 73.5249C77.9734 73.5547 77.7862 73.5829 77.6039 73.6094C77.4216 73.6326 77.2691 73.6525 77.1465 73.669C76.8581 73.7055 76.5946 73.7668 76.356 73.853C76.1207 73.9392 75.9318 74.0634 75.7892 74.2259C75.65 74.3849 75.5804 74.5971 75.5804 74.8622C75.5804 75.2301 75.7163 75.5085 75.9881 75.6974C76.2599 75.883 76.6062 75.9759 77.0272 75.9759ZM82.4524 77V69.3636H83.8892V70.5767H83.9688C84.108 70.1657 84.3532 69.8426 84.7045 69.6072C85.0592 69.3686 85.4602 69.2493 85.9077 69.2493C86.0005 69.2493 86.1098 69.2526 86.2358 69.2592C86.3651 69.2659 86.4661 69.2741 86.5391 69.2841V70.706C86.4794 70.6894 86.3733 70.6712 86.2209 70.6513C86.0684 70.6281 85.916 70.6165 85.7635 70.6165C85.4122 70.6165 85.099 70.6911 84.8239 70.8402C84.5521 70.986 84.3366 71.1899 84.1776 71.4517C84.0185 71.7102 83.9389 72.0052 83.9389 72.3366V77H82.4524ZM89.312 72.4659V77H87.8255V69.3636H89.2523V70.6065H89.3468C89.5224 70.2022 89.7975 69.8774 90.1721 69.6321C90.5499 69.3868 91.0255 69.2642 91.5989 69.2642C92.1193 69.2642 92.575 69.3736 92.9661 69.5923C93.3572 69.8078 93.6605 70.1293 93.8759 70.5568C94.0913 70.9844 94.199 71.513 94.199 72.1428V77H92.7125V72.3217C92.7125 71.7682 92.5684 71.3357 92.28 71.0241C91.9917 70.7093 91.5956 70.5518 91.0918 70.5518C90.7471 70.5518 90.4405 70.6264 90.1721 70.7756C89.9069 70.9247 89.6964 71.1435 89.5407 71.4318C89.3882 71.7169 89.312 72.0616 89.312 72.4659ZM99.8977 77V69.3636H101.325V70.6065H101.419C101.578 70.1856 101.838 69.8575 102.2 69.6222C102.561 69.3835 102.993 69.2642 103.497 69.2642C104.008 69.2642 104.435 69.3835 104.78 69.6222C105.128 69.8608 105.385 70.1889 105.55 70.6065H105.63C105.812 70.1989 106.102 69.8741 106.5 69.6321C106.898 69.3868 107.372 69.2642 107.922 69.2642C108.615 69.2642 109.18 69.4813 109.617 69.9155C110.058 70.3497 110.278 71.0043 110.278 71.8793V77H108.792V72.0185C108.792 71.5014 108.651 71.1269 108.369 70.8949C108.088 70.6629 107.751 70.5469 107.36 70.5469C106.876 70.5469 106.5 70.696 106.232 70.9943C105.963 71.2893 105.829 71.6688 105.829 72.1328V77H104.347V71.924C104.347 71.5097 104.218 71.1766 103.96 70.9247C103.701 70.6728 103.365 70.5469 102.95 70.5469C102.669 70.5469 102.408 70.6214 102.17 70.7706C101.934 70.9164 101.744 71.1203 101.598 71.3821C101.455 71.6439 101.384 71.9472 101.384 72.2919V77H99.8977ZM115.487 77.1541C114.771 77.1541 114.147 76.9901 113.613 76.6619C113.079 76.3338 112.665 75.8748 112.37 75.2848C112.075 74.6948 111.928 74.0054 111.928 73.2166C111.928 72.4245 112.075 71.7318 112.37 71.1385C112.665 70.5452 113.079 70.0845 113.613 69.7564C114.147 69.4283 114.771 69.2642 115.487 69.2642C116.203 69.2642 116.828 69.4283 117.362 69.7564C117.895 70.0845 118.31 70.5452 118.605 71.1385C118.9 71.7318 119.047 72.4245 119.047 73.2166C119.047 74.0054 118.9 74.6948 118.605 75.2848C118.31 75.8748 117.895 76.3338 117.362 76.6619C116.828 76.9901 116.203 77.1541 115.487 77.1541ZM115.492 75.9062C115.956 75.9062 116.341 75.7836 116.646 75.5384C116.951 75.2931 117.176 74.9666 117.322 74.5589C117.471 74.1513 117.546 73.7022 117.546 73.2116C117.546 72.7244 117.471 72.277 117.322 71.8693C117.176 71.4583 116.951 71.1286 116.646 70.88C116.341 70.6314 115.956 70.5071 115.492 70.5071C115.025 70.5071 114.637 70.6314 114.329 70.88C114.024 71.1286 113.797 71.4583 113.648 71.8693C113.502 72.277 113.429 72.7244 113.429 73.2116C113.429 73.7022 113.502 74.1513 113.648 74.5589C113.797 74.9666 114.024 75.2931 114.329 75.5384C114.637 75.7836 115.025 75.9062 115.492 75.9062ZM120.706 77V69.3636H122.143V70.5767H122.223C122.362 70.1657 122.607 69.8426 122.958 69.6072C123.313 69.3686 123.714 69.2493 124.162 69.2493C124.254 69.2493 124.364 69.2526 124.49 69.2592C124.619 69.2659 124.72 69.2741 124.793 69.2841V70.706C124.733 70.6894 124.627 70.6712 124.475 70.6513C124.322 70.6281 124.17 70.6165 124.017 70.6165C123.666 70.6165 123.353 70.6911 123.078 70.8402C122.806 70.986 122.591 71.1899 122.431 71.4517C122.272 71.7102 122.193 72.0052 122.193 72.3366V77H120.706ZM129.097 77.1541C128.345 77.1541 127.697 76.9934 127.153 76.6719C126.613 76.3471 126.195 75.8913 125.9 75.3047C125.609 74.7147 125.463 74.0237 125.463 73.2315C125.463 72.4493 125.609 71.7599 125.9 71.1634C126.195 70.5668 126.606 70.1011 127.133 69.7663C127.664 69.4316 128.283 69.2642 128.993 69.2642C129.424 69.2642 129.841 69.3355 130.246 69.478C130.65 69.6205 131.013 69.8442 131.334 70.1491C131.656 70.4541 131.909 70.8501 132.095 71.3374C132.281 71.8213 132.373 72.4096 132.373 73.1023V73.6293H126.303V72.5156H130.917C130.917 72.1245 130.837 71.7782 130.678 71.4766C130.519 71.1716 130.295 70.9313 130.007 70.7557C129.722 70.58 129.387 70.4922 129.003 70.4922C128.585 70.4922 128.22 70.5949 127.909 70.8004C127.601 71.0026 127.362 71.2678 127.193 71.5959C127.027 71.9207 126.944 72.2737 126.944 72.6548V73.5249C126.944 74.0353 127.034 74.4695 127.213 74.8274C127.395 75.1854 127.649 75.4588 127.974 75.6477C128.298 75.8333 128.678 75.9261 129.112 75.9261C129.394 75.9261 129.651 75.8864 129.883 75.8068C130.115 75.724 130.315 75.6013 130.484 75.4389C130.653 75.2765 130.782 75.076 130.872 74.8374L132.279 75.0909C132.166 75.5052 131.964 75.8681 131.672 76.1797C131.384 76.4879 131.021 76.7282 130.584 76.9006C130.149 77.0696 129.654 77.1541 129.097 77.1541ZM139.95 77.169C139.466 77.169 139.029 77.0795 138.638 76.9006C138.247 76.7183 137.937 76.4548 137.708 76.1101C137.483 75.7654 137.37 75.3428 137.37 74.8423C137.37 74.4115 137.453 74.0568 137.618 73.7784C137.784 73.5 138.008 73.2796 138.29 73.1172C138.571 72.9548 138.886 72.8321 139.234 72.7493C139.582 72.6664 139.937 72.6035 140.298 72.5604C140.756 72.5073 141.127 72.4643 141.412 72.4311C141.697 72.3946 141.904 72.3366 142.033 72.2571C142.162 72.1776 142.227 72.0483 142.227 71.8693V71.8345C142.227 71.4003 142.104 71.0639 141.859 70.8253C141.617 70.5866 141.256 70.4673 140.775 70.4673C140.275 70.4673 139.881 70.5784 139.592 70.8004C139.307 71.0192 139.11 71.2628 139.001 71.5312L137.604 71.2131C137.769 70.7491 138.011 70.3745 138.329 70.0895C138.651 69.8011 139.02 69.5923 139.438 69.4631C139.856 69.3305 140.295 69.2642 140.756 69.2642C141.06 69.2642 141.384 69.3007 141.725 69.3736C142.07 69.4432 142.391 69.5724 142.689 69.7614C142.991 69.9503 143.238 70.2204 143.43 70.5717C143.622 70.9197 143.719 71.3722 143.719 71.929V77H142.267V75.956H142.207C142.111 76.1482 141.967 76.3371 141.775 76.5227C141.582 76.7083 141.336 76.8625 141.034 76.9851C140.732 77.1077 140.371 77.169 139.95 77.169ZM140.273 75.9759C140.684 75.9759 141.036 75.8946 141.327 75.7322C141.622 75.5698 141.846 75.3577 141.998 75.0959C142.154 74.8307 142.232 74.5473 142.232 74.2457V73.2614C142.179 73.3144 142.076 73.3641 141.924 73.4105C141.775 73.4536 141.604 73.4917 141.412 73.5249C141.22 73.5547 141.032 73.5829 140.85 73.6094C140.668 73.6326 140.515 73.6525 140.393 73.669C140.104 73.7055 139.841 73.7668 139.602 73.853C139.367 73.9392 139.178 74.0634 139.035 74.2259C138.896 74.3849 138.827 74.5971 138.827 74.8622C138.827 75.2301 138.962 75.5085 139.234 75.6974C139.506 75.883 139.852 75.9759 140.273 75.9759ZM145.818 77V66.8182H147.304V70.6016H147.394C147.48 70.4425 147.604 70.2585 147.767 70.0497C147.929 69.8409 148.154 69.6586 148.443 69.5028C148.731 69.3438 149.112 69.2642 149.586 69.2642C150.203 69.2642 150.753 69.42 151.237 69.7315C151.721 70.0431 152.1 70.4922 152.375 71.0788C152.654 71.6655 152.793 72.3714 152.793 73.1967C152.793 74.022 152.655 74.7296 152.38 75.3196C152.105 75.9062 151.727 76.3587 151.247 76.6768C150.766 76.9917 150.218 77.1491 149.601 77.1491C149.137 77.1491 148.758 77.0713 148.463 76.9155C148.171 76.7597 147.942 76.5774 147.777 76.3686C147.611 76.1598 147.483 75.9742 147.394 75.8118H147.27V77H145.818ZM147.275 73.1818C147.275 73.7187 147.352 74.1894 147.508 74.5938C147.664 74.9981 147.889 75.3146 148.184 75.5433C148.479 75.7687 148.841 75.8814 149.268 75.8814C149.712 75.8814 150.083 75.7637 150.382 75.5284C150.68 75.2898 150.905 74.9666 151.058 74.5589C151.214 74.1513 151.292 73.6922 151.292 73.1818C151.292 72.678 151.215 72.2256 151.063 71.8246C150.914 71.4235 150.688 71.107 150.387 70.875C150.088 70.643 149.716 70.527 149.268 70.527C148.837 70.527 148.473 70.638 148.174 70.8601C147.879 71.0821 147.656 71.392 147.503 71.7898C147.351 72.1875 147.275 72.6515 147.275 73.1818ZM157.679 77.1541C156.963 77.1541 156.338 76.9901 155.805 76.6619C155.271 76.3338 154.857 75.8748 154.562 75.2848C154.267 74.6948 154.119 74.0054 154.119 73.2166C154.119 72.4245 154.267 71.7318 154.562 71.1385C154.857 70.5452 155.271 70.0845 155.805 69.7564C156.338 69.4283 156.963 69.2642 157.679 69.2642C158.395 69.2642 159.019 69.4283 159.553 69.7564C160.087 70.0845 160.501 70.5452 160.796 71.1385C161.091 71.7318 161.238 72.4245 161.238 73.2166C161.238 74.0054 161.091 74.6948 160.796 75.2848C160.501 75.8748 160.087 76.3338 159.553 76.6619C159.019 76.9901 158.395 77.1541 157.679 77.1541ZM157.684 75.9062C158.148 75.9062 158.532 75.7836 158.837 75.5384C159.142 75.2931 159.367 74.9666 159.513 74.5589C159.662 74.1513 159.737 73.7022 159.737 73.2116C159.737 72.7244 159.662 72.277 159.513 71.8693C159.367 71.4583 159.142 71.1286 158.837 70.88C158.532 70.6314 158.148 70.5071 157.684 70.5071C157.216 70.5071 156.829 70.6314 156.52 70.88C156.215 71.1286 155.988 71.4583 155.839 71.8693C155.693 72.277 155.621 72.7244 155.621 73.2116C155.621 73.7022 155.693 74.1513 155.839 74.5589C155.988 74.9666 156.215 75.2931 156.52 75.5384C156.829 75.7836 157.216 75.9062 157.684 75.9062ZM167.735 73.8331V69.3636H169.227V77H167.765V75.6776H167.685C167.51 76.0852 167.228 76.425 166.84 76.6967C166.456 76.9652 165.977 77.0994 165.403 77.0994C164.913 77.0994 164.479 76.9917 164.101 76.7763C163.726 76.5575 163.431 76.2344 163.216 75.8068C163.004 75.3793 162.898 74.8506 162.898 74.2209V69.3636H164.384V74.0419C164.384 74.5623 164.528 74.9766 164.817 75.2848C165.105 75.593 165.48 75.7472 165.94 75.7472C166.219 75.7472 166.496 75.6776 166.771 75.5384C167.049 75.3991 167.279 75.1887 167.462 74.907C167.647 74.6252 167.738 74.2673 167.735 73.8331ZM174.789 69.3636V70.5568H170.617V69.3636H174.789ZM171.736 67.5341H173.222V74.7578C173.222 75.0462 173.266 75.2633 173.352 75.4091C173.438 75.5516 173.549 75.6494 173.685 75.7024C173.824 75.7521 173.975 75.777 174.137 75.777C174.257 75.777 174.361 75.7687 174.45 75.7521C174.54 75.7356 174.61 75.7223 174.659 75.7124L174.928 76.9403C174.842 76.9735 174.719 77.0066 174.56 77.0398C174.401 77.0762 174.202 77.0961 173.963 77.0994C173.572 77.1061 173.208 77.0365 172.869 76.8906C172.531 76.7448 172.258 76.5194 172.049 76.2145C171.84 75.9096 171.736 75.5268 171.736 75.0661V67.5341ZM179.755 68.1406V66.8182H187.635V68.1406H184.458V77H182.927V68.1406H179.755ZM194.93 69.4929C194.877 69.0223 194.658 68.6577 194.273 68.3991C193.889 68.1373 193.405 68.0064 192.822 68.0064C192.404 68.0064 192.043 68.0727 191.738 68.2053C191.433 68.3345 191.196 68.5135 191.027 68.7422C190.861 68.9676 190.778 69.2244 190.778 69.5128C190.778 69.7547 190.835 69.9635 190.947 70.1392C191.063 70.3149 191.214 70.4624 191.4 70.5817C191.589 70.6977 191.791 70.7955 192.006 70.875C192.222 70.9512 192.429 71.0142 192.628 71.0639L193.622 71.3224C193.947 71.402 194.28 71.5097 194.621 71.6456C194.963 71.7815 195.279 71.9605 195.571 72.1825C195.863 72.4046 196.098 72.6797 196.277 73.0078C196.459 73.3359 196.55 73.7287 196.55 74.1861C196.55 74.7628 196.401 75.2749 196.103 75.7223C195.808 76.1697 195.379 76.5227 194.815 76.7812C194.255 77.0398 193.577 77.169 192.782 77.169C192.02 77.169 191.36 77.0481 190.803 76.8061C190.246 76.5642 189.811 76.2211 189.496 75.777C189.181 75.3295 189.007 74.7992 188.974 74.1861H190.515C190.545 74.554 190.664 74.8606 190.873 75.1058C191.085 75.3478 191.355 75.5284 191.683 75.6477C192.015 75.7637 192.378 75.8217 192.772 75.8217C193.206 75.8217 193.592 75.7538 193.93 75.6179C194.272 75.4787 194.54 75.2865 194.736 75.0412C194.931 74.7926 195.029 74.5026 195.029 74.1712C195.029 73.8696 194.943 73.6226 194.771 73.4304C194.602 73.2382 194.371 73.0791 194.08 72.9531C193.791 72.8272 193.465 72.7161 193.1 72.62L191.897 72.2919C191.082 72.0698 190.435 71.7434 189.958 71.3125C189.484 70.8816 189.247 70.3116 189.247 69.6023C189.247 69.0156 189.406 68.5036 189.724 68.0661C190.043 67.6286 190.473 67.2888 191.017 67.0469C191.561 66.8016 192.174 66.679 192.857 66.679C193.546 66.679 194.154 66.8 194.681 67.0419C195.211 67.2839 195.629 67.617 195.934 68.0412C196.239 68.4621 196.398 68.946 196.411 69.4929H194.93ZM199.164 77H197.534L201.198 66.8182H202.972L206.637 77H205.006L202.127 68.6676H202.048L199.164 77ZM199.438 73.0128H204.727V74.3054H199.438V73.0128ZM23.2159 95.1541C22.4768 95.1541 21.8404 94.9867 21.3068 94.652C20.7765 94.3139 20.3688 93.8482 20.0838 93.255C19.7988 92.6617 19.6562 91.9822 19.6562 91.2166C19.6562 90.4411 19.8021 89.7566 20.0938 89.1634C20.3854 88.5668 20.7964 88.1011 21.3267 87.7663C21.857 87.4316 22.4818 87.2642 23.201 87.2642C23.781 87.2642 24.2981 87.3719 24.7521 87.5874C25.2062 87.7995 25.5724 88.0978 25.8509 88.4822C26.1326 88.8667 26.3 89.3158 26.353 89.8295H24.9062C24.8267 89.4716 24.6444 89.1634 24.3594 88.9048C24.0777 88.6463 23.6998 88.517 23.2259 88.517C22.8116 88.517 22.4486 88.6264 22.1371 88.8452C21.8288 89.0606 21.5885 89.3688 21.4162 89.7699C21.2438 90.1676 21.1577 90.6383 21.1577 91.1818C21.1577 91.7386 21.2422 92.2192 21.4112 92.6236C21.5803 93.0279 21.8189 93.3411 22.1271 93.5632C22.4387 93.7853 22.8049 93.8963 23.2259 93.8963C23.5076 93.8963 23.7628 93.8449 23.9915 93.7422C24.2235 93.6361 24.4174 93.4853 24.5732 93.2898C24.7322 93.0942 24.8433 92.8589 24.9062 92.5838H26.353C26.3 93.0777 26.1392 93.5185 25.8707 93.9062C25.6023 94.294 25.2427 94.599 24.7919 94.821C24.3445 95.0431 23.8191 95.1541 23.2159 95.1541ZM31.1593 95.1541C30.4434 95.1541 29.8186 94.9901 29.285 94.6619C28.7514 94.3338 28.3371 93.8748 28.0421 93.2848C27.7471 92.6948 27.5996 92.0054 27.5996 91.2166C27.5996 90.4245 27.7471 89.7318 28.0421 89.1385C28.3371 88.5452 28.7514 88.0845 29.285 87.7564C29.8186 87.4283 30.4434 87.2642 31.1593 87.2642C31.8752 87.2642 32.4999 87.4283 33.0336 87.7564C33.5672 88.0845 33.9815 88.5452 34.2765 89.1385C34.5714 89.7318 34.7189 90.4245 34.7189 91.2166C34.7189 92.0054 34.5714 92.6948 34.2765 93.2848C33.9815 93.8748 33.5672 94.3338 33.0336 94.6619C32.4999 94.9901 31.8752 95.1541 31.1593 95.1541ZM31.1642 93.9062C31.6283 93.9062 32.0127 93.7836 32.3176 93.5384C32.6226 93.2931 32.848 92.9666 32.9938 92.5589C33.1429 92.1513 33.2175 91.7022 33.2175 91.2116C33.2175 90.7244 33.1429 90.277 32.9938 89.8693C32.848 89.4583 32.6226 89.1286 32.3176 88.88C32.0127 88.6314 31.6283 88.5071 31.1642 88.5071C30.6969 88.5071 30.3091 88.6314 30.0009 88.88C29.696 89.1286 29.4689 89.4583 29.3198 89.8693C29.1739 90.277 29.101 90.7244 29.101 91.2116C29.101 91.7022 29.1739 92.1513 29.3198 92.5589C29.4689 92.9666 29.696 93.2931 30.0009 93.5384C30.3091 93.7836 30.6969 93.9062 31.1642 93.9062ZM36.3782 95V87.3636H37.815V88.5767H37.8945C38.0337 88.1657 38.279 87.8426 38.6303 87.6072C38.985 87.3686 39.386 87.2493 39.8335 87.2493C39.9263 87.2493 40.0356 87.2526 40.1616 87.2592C40.2908 87.2659 40.3919 87.2741 40.4648 87.2841V88.706C40.4052 88.6894 40.2991 88.6712 40.1467 88.6513C39.9942 88.6281 39.8417 88.6165 39.6893 88.6165C39.338 88.6165 39.0247 88.6911 38.7496 88.8402C38.4779 88.986 38.2624 89.1899 38.1033 89.4517C37.9442 89.7102 37.8647 90.0052 37.8647 90.3366V95H36.3782ZM44.769 95.1541C44.0166 95.1541 43.3687 94.9934 42.8251 94.6719C42.2849 94.3471 41.8672 93.8913 41.5723 93.3047C41.2806 92.7147 41.1348 92.0237 41.1348 91.2315C41.1348 90.4493 41.2806 89.7599 41.5723 89.1634C41.8672 88.5668 42.2782 88.1011 42.8052 87.7663C43.3355 87.4316 43.9553 87.2642 44.6646 87.2642C45.0955 87.2642 45.5131 87.3355 45.9174 87.478C46.3218 87.6205 46.6847 87.8442 47.0062 88.1491C47.3277 88.4541 47.5813 88.8501 47.7669 89.3374C47.9525 89.8213 48.0453 90.4096 48.0453 91.1023V91.6293H41.975V90.5156H46.5886C46.5886 90.1245 46.5091 89.7782 46.35 89.4766C46.1909 89.1716 45.9672 88.9313 45.6788 88.7557C45.3938 88.58 45.059 88.4922 44.6745 88.4922C44.2569 88.4922 43.8923 88.5949 43.5808 88.8004C43.2725 89.0026 43.0339 89.2678 42.8649 89.5959C42.6992 89.9207 42.6163 90.2737 42.6163 90.6548V91.5249C42.6163 92.0353 42.7058 92.4695 42.8848 92.8274C43.0671 93.1854 43.3206 93.4588 43.6454 93.6477C43.9702 93.8333 44.3497 93.9261 44.7839 93.9261C45.0656 93.9261 45.3225 93.8864 45.5545 93.8068C45.7865 93.724 45.987 93.6013 46.1561 93.4389C46.3251 93.2765 46.4544 93.076 46.5439 92.8374L47.9508 93.0909C47.8381 93.5052 47.6359 93.8681 47.3443 94.1797C47.0559 94.4879 46.693 94.7282 46.2555 94.9006C45.8213 95.0696 45.3258 95.1541 44.769 95.1541ZM53.3997 95V87.3636H54.8265V88.6065H54.921C55.0801 88.1856 55.3403 87.8575 55.7015 87.6222C56.0628 87.3835 56.4953 87.2642 56.9991 87.2642C57.5095 87.2642 57.9371 87.3835 58.2818 87.6222C58.6298 87.8608 58.8867 88.1889 59.0524 88.6065H59.1319C59.3142 88.1989 59.6042 87.8741 60.002 87.6321C60.3997 87.3868 60.8736 87.2642 61.4238 87.2642C62.1165 87.2642 62.6816 87.4813 63.1191 87.9155C63.56 88.3497 63.7804 89.0043 63.7804 89.8793V95H62.2939V90.0185C62.2939 89.5014 62.153 89.1269 61.8713 88.8949C61.5895 88.6629 61.2531 88.5469 60.862 88.5469C60.3781 88.5469 60.002 88.696 59.7335 88.9943C59.465 89.2893 59.3308 89.6688 59.3308 90.1328V95H57.8493V89.924C57.8493 89.5097 57.72 89.1766 57.4615 88.9247C57.2029 88.6728 56.8665 88.5469 56.4522 88.5469C56.1705 88.5469 55.9103 88.6214 55.6717 88.7706C55.4364 88.9164 55.2458 89.1203 55.1 89.3821C54.9574 89.6439 54.8862 89.9472 54.8862 90.2919V95H53.3997ZM69.0639 95.1541C68.3116 95.1541 67.6636 94.9934 67.12 94.6719C66.5798 94.3471 66.1622 93.8913 65.8672 93.3047C65.5755 92.7147 65.4297 92.0237 65.4297 91.2315C65.4297 90.4493 65.5755 89.7599 65.8672 89.1634C66.1622 88.5668 66.5732 88.1011 67.1001 87.7663C67.6304 87.4316 68.2502 87.2642 68.9595 87.2642C69.3904 87.2642 69.808 87.3355 70.2124 87.478C70.6167 87.6205 70.9796 87.8442 71.3011 88.1491C71.6226 88.4541 71.8762 88.8501 72.0618 89.3374C72.2474 89.8213 72.3402 90.4096 72.3402 91.1023V91.6293H66.2699V90.5156H70.8835C70.8835 90.1245 70.804 89.7782 70.6449 89.4766C70.4858 89.1716 70.2621 88.9313 69.9737 88.7557C69.6887 88.58 69.3539 88.4922 68.9695 88.4922C68.5518 88.4922 68.1873 88.5949 67.8757 88.8004C67.5675 89.0026 67.3288 89.2678 67.1598 89.5959C66.9941 89.9207 66.9112 90.2737 66.9112 90.6548V91.5249C66.9112 92.0353 67.0007 92.4695 67.1797 92.8274C67.362 93.1854 67.6155 93.4588 67.9403 93.6477C68.2652 93.8333 68.6446 93.9261 69.0788 93.9261C69.3606 93.9261 69.6174 93.8864 69.8494 93.8068C70.0814 93.724 70.282 93.6013 70.451 93.4389C70.62 93.2765 70.7493 93.076 70.8388 92.8374L72.2457 93.0909C72.133 93.5052 71.9309 93.8681 71.6392 94.1797C71.3509 94.4879 70.9879 94.7282 70.5504 94.9006C70.1162 95.0696 69.6207 95.1541 69.0639 95.1541ZM77.2061 95.1541C76.467 95.1541 75.8307 94.9867 75.2971 94.652C74.7667 94.3139 74.3591 93.8482 74.074 93.255C73.789 92.6617 73.6465 91.9822 73.6465 91.2166C73.6465 90.4411 73.7923 89.7566 74.084 89.1634C74.3757 88.5668 74.7866 88.1011 75.3169 87.7663C75.8472 87.4316 76.472 87.2642 77.1912 87.2642C77.7712 87.2642 78.2883 87.3719 78.7424 87.5874C79.1964 87.7995 79.5627 88.0978 79.8411 88.4822C80.1228 88.8667 80.2902 89.3158 80.3432 89.8295H78.8965C78.8169 89.4716 78.6346 89.1634 78.3496 88.9048C78.0679 88.6463 77.69 88.517 77.2161 88.517C76.8018 88.517 76.4389 88.6264 76.1273 88.8452C75.8191 89.0606 75.5788 89.3688 75.4064 89.7699C75.2341 90.1676 75.1479 90.6383 75.1479 91.1818C75.1479 91.7386 75.2324 92.2192 75.4015 92.6236C75.5705 93.0279 75.8091 93.3411 76.1174 93.5632C76.4289 93.7853 76.7952 93.8963 77.2161 93.8963C77.4978 93.8963 77.753 93.8449 77.9817 93.7422C78.2137 93.6361 78.4076 93.4853 78.5634 93.2898C78.7225 93.0942 78.8335 92.8589 78.8965 92.5838H80.3432C80.2902 93.0777 80.1294 93.5185 79.861 93.9062C79.5925 94.294 79.2329 94.599 78.7821 94.821C78.3347 95.0431 77.8094 95.1541 77.2061 95.1541ZM83.4194 90.4659V95H81.9329V84.8182H83.3995V88.6065H83.494C83.6729 88.1955 83.9464 87.8691 84.3143 87.6271C84.6822 87.3852 85.1628 87.2642 85.756 87.2642C86.2797 87.2642 86.7371 87.3719 87.1282 87.5874C87.5226 87.8028 87.8275 88.1243 88.043 88.5518C88.2617 88.9761 88.3711 89.5064 88.3711 90.1428V95H86.8846V90.3217C86.8846 89.7616 86.7404 89.3274 86.4521 89.0192C86.1637 88.7076 85.7627 88.5518 85.2489 88.5518C84.8976 88.5518 84.5827 88.6264 84.3043 88.7756C84.0292 88.9247 83.8121 89.1435 83.6531 89.4318C83.4973 89.7169 83.4194 90.0616 83.4194 90.4659ZM92.5771 95.169C92.0932 95.169 91.6557 95.0795 91.2646 94.9006C90.8735 94.7183 90.5636 94.4548 90.3349 94.1101C90.1095 93.7654 89.9968 93.3428 89.9968 92.8423C89.9968 92.4115 90.0797 92.0568 90.2454 91.7784C90.4111 91.5 90.6348 91.2796 90.9165 91.1172C91.1983 90.9548 91.5131 90.8321 91.8612 90.7493C92.2092 90.6664 92.5638 90.6035 92.9251 90.5604C93.3825 90.5073 93.7537 90.4643 94.0387 90.4311C94.3237 90.3946 94.5309 90.3366 94.6602 90.2571C94.7894 90.1776 94.854 90.0483 94.854 89.8693V89.8345C94.854 89.4003 94.7314 89.0639 94.4862 88.8253C94.2442 88.5866 93.8829 88.4673 93.4023 88.4673C92.9019 88.4673 92.5075 88.5784 92.2191 88.8004C91.9341 89.0192 91.7369 89.2628 91.6275 89.5312L90.2305 89.2131C90.3962 88.7491 90.6381 88.3745 90.9563 88.0895C91.2778 87.8011 91.6474 87.5923 92.065 87.4631C92.4826 87.3305 92.9218 87.2642 93.3825 87.2642C93.6874 87.2642 94.0105 87.3007 94.3519 87.3736C94.6966 87.4432 95.0181 87.5724 95.3164 87.7614C95.618 87.9503 95.8649 88.2204 96.0572 88.5717C96.2494 88.9197 96.3455 89.3722 96.3455 89.929V95H94.8938V93.956H94.8342C94.738 94.1482 94.5939 94.3371 94.4016 94.5227C94.2094 94.7083 93.9625 94.8625 93.6609 94.9851C93.3593 95.1077 92.998 95.169 92.5771 95.169ZM92.9002 93.9759C93.3112 93.9759 93.6625 93.8946 93.9542 93.7322C94.2492 93.5698 94.4729 93.3577 94.6254 93.0959C94.7811 92.8307 94.859 92.5473 94.859 92.2457V91.2614C94.806 91.3144 94.7032 91.3641 94.5508 91.4105C94.4016 91.4536 94.2309 91.4917 94.0387 91.5249C93.8465 91.5547 93.6592 91.5829 93.4769 91.6094C93.2946 91.6326 93.1422 91.6525 93.0195 91.669C92.7312 91.7055 92.4677 91.7668 92.229 91.853C91.9937 91.9392 91.8048 92.0634 91.6623 92.2259C91.5231 92.3849 91.4535 92.5971 91.4535 92.8622C91.4535 93.2301 91.5894 93.5085 91.8612 93.6974C92.1329 93.883 92.4793 93.9759 92.9002 93.9759ZM99.812 90.4659V95H98.3255V87.3636H99.7523V88.6065H99.8468C100.022 88.2022 100.298 87.8774 100.672 87.6321C101.05 87.3868 101.526 87.2642 102.099 87.2642C102.619 87.2642 103.075 87.3736 103.466 87.5923C103.857 87.8078 104.16 88.1293 104.376 88.5568C104.591 88.9844 104.699 89.513 104.699 90.1428V95H103.213V90.3217C103.213 89.7682 103.068 89.3357 102.78 89.0241C102.492 88.7093 102.096 88.5518 101.592 88.5518C101.247 88.5518 100.941 88.6264 100.672 88.7756C100.407 88.9247 100.196 89.1435 100.041 89.4318C99.8882 89.7169 99.812 90.0616 99.812 90.4659ZM106.693 95V87.3636H108.179V95H106.693ZM107.443 86.1854C107.185 86.1854 106.963 86.0992 106.777 85.9268C106.595 85.7512 106.504 85.5424 106.504 85.3004C106.504 85.0552 106.595 84.8464 106.777 84.674C106.963 84.4983 107.185 84.4105 107.443 84.4105C107.702 84.4105 107.922 84.4983 108.105 84.674C108.29 84.8464 108.383 85.0552 108.383 85.3004C108.383 85.5424 108.29 85.7512 108.105 85.9268C107.922 86.0992 107.702 86.1854 107.443 86.1854ZM115.901 89.228L114.554 89.4666C114.498 89.2943 114.408 89.1302 114.286 88.9744C114.166 88.8187 114.004 88.6911 113.798 88.5916C113.593 88.4922 113.336 88.4425 113.028 88.4425C112.607 88.4425 112.255 88.5369 111.974 88.7259C111.692 88.9115 111.551 89.1518 111.551 89.4467C111.551 89.7019 111.646 89.9074 111.835 90.0632C112.023 90.219 112.328 90.3466 112.749 90.446L113.962 90.7244C114.665 90.8868 115.189 91.1371 115.533 91.4751C115.878 91.8132 116.05 92.2524 116.05 92.7926C116.05 93.25 115.918 93.6577 115.653 94.0156C115.391 94.3703 115.025 94.6487 114.554 94.8509C114.087 95.053 113.545 95.1541 112.928 95.1541C112.073 95.1541 111.375 94.9718 110.835 94.6072C110.295 94.2393 109.964 93.7173 109.841 93.0412L111.278 92.8224C111.367 93.197 111.551 93.4804 111.83 93.6726C112.108 93.8615 112.471 93.956 112.918 93.956C113.406 93.956 113.795 93.8549 114.087 93.6527C114.378 93.4472 114.524 93.197 114.524 92.902C114.524 92.6634 114.435 92.4628 114.256 92.3004C114.08 92.138 113.81 92.0154 113.445 91.9325L112.153 91.6491C111.44 91.4867 110.913 91.2282 110.572 90.8736C110.234 90.5189 110.065 90.0698 110.065 89.5263C110.065 89.0755 110.191 88.6811 110.442 88.343C110.694 88.005 111.042 87.7415 111.487 87.5526C111.931 87.3603 112.439 87.2642 113.013 87.2642C113.838 87.2642 114.488 87.4432 114.962 87.8011C115.436 88.1558 115.749 88.6314 115.901 89.228ZM117.685 95V87.3636H119.112V88.6065H119.206C119.365 88.1856 119.625 87.8575 119.987 87.6222C120.348 87.3835 120.78 87.2642 121.284 87.2642C121.795 87.2642 122.222 87.3835 122.567 87.6222C122.915 87.8608 123.172 88.1889 123.338 88.6065H123.417C123.599 88.1989 123.889 87.8741 124.287 87.6321C124.685 87.3868 125.159 87.2642 125.709 87.2642C126.402 87.2642 126.967 87.4813 127.404 87.9155C127.845 88.3497 128.066 89.0043 128.066 89.8793V95H126.579V90.0185C126.579 89.5014 126.438 89.1269 126.156 88.8949C125.875 88.6629 125.538 88.5469 125.147 88.5469C124.663 88.5469 124.287 88.696 124.019 88.9943C123.75 89.2893 123.616 89.6688 123.616 90.1328V95H122.134V89.924C122.134 89.5097 122.005 89.1766 121.747 88.9247C121.488 88.6728 121.152 88.5469 120.737 88.5469C120.456 88.5469 120.195 88.6214 119.957 88.7706C119.722 88.9164 119.531 89.1203 119.385 89.3821C119.243 89.6439 119.171 89.9472 119.171 90.2919V95H117.685ZM135.78 89.228L134.433 89.4666C134.377 89.2943 134.287 89.1302 134.164 88.9744C134.045 88.8187 133.883 88.6911 133.677 88.5916C133.472 88.4922 133.215 88.4425 132.907 88.4425C132.486 88.4425 132.134 88.5369 131.853 88.7259C131.571 88.9115 131.43 89.1518 131.43 89.4467C131.43 89.7019 131.525 89.9074 131.713 90.0632C131.902 90.219 132.207 90.3466 132.628 90.446L133.841 90.7244C134.544 90.8868 135.068 91.1371 135.412 91.4751C135.757 91.8132 135.929 92.2524 135.929 92.7926C135.929 93.25 135.797 93.6577 135.532 94.0156C135.27 94.3703 134.904 94.6487 134.433 94.8509C133.966 95.053 133.424 95.1541 132.807 95.1541C131.952 95.1541 131.254 94.9718 130.714 94.6072C130.174 94.2393 129.842 93.7173 129.72 93.0412L131.157 92.8224C131.246 93.197 131.43 93.4804 131.708 93.6726C131.987 93.8615 132.35 93.956 132.797 93.956C133.284 93.956 133.674 93.8549 133.966 93.6527C134.257 93.4472 134.403 93.197 134.403 92.902C134.403 92.6634 134.314 92.4628 134.135 92.3004C133.959 92.138 133.689 92.0154 133.324 91.9325L132.032 91.6491C131.319 91.4867 130.792 91.2282 130.451 90.8736C130.113 90.5189 129.944 90.0698 129.944 89.5263C129.944 89.0755 130.069 88.6811 130.321 88.343C130.573 88.005 130.921 87.7415 131.365 87.5526C131.81 87.3603 132.318 87.2642 132.892 87.2642C133.717 87.2642 134.367 87.4432 134.841 87.8011C135.315 88.1558 135.628 88.6314 135.78 89.228ZM144.127 95.1491C143.511 95.1491 142.961 94.9917 142.477 94.6768C141.996 94.3587 141.618 93.9062 141.343 93.3196C141.072 92.7296 140.936 92.022 140.936 91.1967C140.936 90.3714 141.073 89.6655 141.348 89.0788C141.627 88.4922 142.008 88.0431 142.492 87.7315C142.976 87.42 143.524 87.2642 144.137 87.2642C144.611 87.2642 144.993 87.3438 145.281 87.5028C145.573 87.6586 145.798 87.8409 145.957 88.0497C146.119 88.2585 146.245 88.4425 146.335 88.6016H146.424V84.8182H147.911V95H146.459V93.8118H146.335C146.245 93.9742 146.116 94.1598 145.947 94.3686C145.781 94.5774 145.553 94.7597 145.261 94.9155C144.969 95.0713 144.592 95.1491 144.127 95.1491ZM144.456 93.8814C144.883 93.8814 145.244 93.7687 145.539 93.5433C145.838 93.3146 146.063 92.9981 146.216 92.5938C146.371 92.1894 146.449 91.7187 146.449 91.1818C146.449 90.6515 146.373 90.1875 146.221 89.7898C146.068 89.392 145.844 89.0821 145.549 88.8601C145.254 88.638 144.89 88.527 144.456 88.527C144.008 88.527 143.635 88.643 143.337 88.875C143.039 89.107 142.813 89.4235 142.661 89.8246C142.512 90.2256 142.437 90.678 142.437 91.1818C142.437 91.6922 142.513 92.1513 142.666 92.5589C142.818 92.9666 143.044 93.2898 143.342 93.5284C143.644 93.7637 144.015 93.8814 144.456 93.8814ZM153.324 95.1541C152.571 95.1541 151.923 94.9934 151.38 94.6719C150.84 94.3471 150.422 93.8913 150.127 93.3047C149.835 92.7147 149.689 92.0237 149.689 91.2315C149.689 90.4493 149.835 89.7599 150.127 89.1634C150.422 88.5668 150.833 88.1011 151.36 87.7663C151.89 87.4316 152.51 87.2642 153.219 87.2642C153.65 87.2642 154.068 87.3355 154.472 87.478C154.876 87.6205 155.239 87.8442 155.561 88.1491C155.882 88.4541 156.136 88.8501 156.322 89.3374C156.507 89.8213 156.6 90.4096 156.6 91.1023V91.6293H150.53V90.5156H155.143C155.143 90.1245 155.064 89.7782 154.905 89.4766C154.746 89.1716 154.522 88.9313 154.233 88.7557C153.948 88.58 153.614 88.4922 153.229 88.4922C152.812 88.4922 152.447 88.5949 152.135 88.8004C151.827 89.0026 151.589 89.2678 151.42 89.5959C151.254 89.9207 151.171 90.2737 151.171 90.6548V91.5249C151.171 92.0353 151.26 92.4695 151.439 92.8274C151.622 93.1854 151.875 93.4588 152.2 93.6477C152.525 93.8333 152.904 93.9261 153.339 93.9261C153.62 93.9261 153.877 93.8864 154.109 93.8068C154.341 93.724 154.542 93.6013 154.711 93.4389C154.88 93.2765 155.009 93.076 155.099 92.8374L156.506 93.0909C156.393 93.5052 156.191 93.8681 155.899 94.1797C155.611 94.4879 155.248 94.7282 154.81 94.9006C154.376 95.0696 153.881 95.1541 153.324 95.1541ZM163.972 89.228L162.624 89.4666C162.568 89.2943 162.478 89.1302 162.356 88.9744C162.237 88.8187 162.074 88.6911 161.869 88.5916C161.663 88.4922 161.406 88.4425 161.098 88.4425C160.677 88.4425 160.326 88.5369 160.044 88.7259C159.762 88.9115 159.621 89.1518 159.621 89.4467C159.621 89.7019 159.716 89.9074 159.905 90.0632C160.094 90.219 160.399 90.3466 160.82 90.446L162.033 90.7244C162.735 90.8868 163.259 91.1371 163.604 91.4751C163.948 91.8132 164.121 92.2524 164.121 92.7926C164.121 93.25 163.988 93.6577 163.723 94.0156C163.461 94.3703 163.095 94.6487 162.624 94.8509C162.157 95.053 161.615 95.1541 160.999 95.1541C160.143 95.1541 159.446 94.9718 158.906 94.6072C158.365 94.2393 158.034 93.7173 157.911 93.0412L159.348 92.8224C159.438 93.197 159.621 93.4804 159.9 93.6726C160.178 93.8615 160.541 93.956 160.989 93.956C161.476 93.956 161.865 93.8549 162.157 93.6527C162.449 93.4472 162.594 93.197 162.594 92.902C162.594 92.6634 162.505 92.4628 162.326 92.3004C162.15 92.138 161.88 92.0154 161.516 91.9325L160.223 91.6491C159.51 91.4867 158.983 91.2282 158.642 90.8736C158.304 90.5189 158.135 90.0698 158.135 89.5263C158.135 89.0755 158.261 88.6811 158.513 88.343C158.765 88.005 159.113 87.7415 159.557 87.5526C160.001 87.3603 160.51 87.2642 161.083 87.2642C161.908 87.2642 162.558 87.4432 163.032 87.8011C163.506 88.1558 163.819 88.6314 163.972 89.228ZM165.755 95V87.3636H167.242V95H165.755ZM166.506 86.1854C166.247 86.1854 166.025 86.0992 165.84 85.9268C165.657 85.7512 165.566 85.5424 165.566 85.3004C165.566 85.0552 165.657 84.8464 165.84 84.674C166.025 84.4983 166.247 84.4105 166.506 84.4105C166.764 84.4105 166.985 84.4983 167.167 84.674C167.353 84.8464 167.445 85.0552 167.445 85.3004C167.445 85.5424 167.353 85.7512 167.167 85.9268C166.985 86.0992 166.764 86.1854 166.506 86.1854ZM172.443 98.0227C171.837 98.0227 171.315 97.9432 170.877 97.7841C170.443 97.625 170.088 97.4145 169.813 97.1527C169.538 96.8909 169.333 96.6042 169.197 96.2926L170.474 95.7656C170.564 95.9115 170.683 96.0656 170.832 96.228C170.985 96.3937 171.19 96.5346 171.449 96.6506C171.711 96.7666 172.047 96.8246 172.458 96.8246C173.022 96.8246 173.487 96.687 173.855 96.4119C174.223 96.1402 174.407 95.706 174.407 95.1094V93.608H174.312C174.223 93.7704 174.094 93.951 173.925 94.1499C173.759 94.3487 173.53 94.5211 173.239 94.6669C172.947 94.8127 172.567 94.8857 172.1 94.8857C171.497 94.8857 170.953 94.7448 170.469 94.4631C169.989 94.178 169.608 93.7588 169.326 93.2053C169.048 92.6484 168.908 91.964 168.908 91.152C168.908 90.34 169.046 89.6439 169.321 89.0639C169.599 88.4839 169.981 88.0398 170.464 87.7315C170.948 87.42 171.497 87.2642 172.11 87.2642C172.584 87.2642 172.967 87.3438 173.259 87.5028C173.55 87.6586 173.777 87.8409 173.94 88.0497C174.105 88.2585 174.233 88.4425 174.322 88.6016H174.432V87.3636H175.888V95.169C175.888 95.8253 175.736 96.3639 175.431 96.7848C175.126 97.2057 174.714 97.5173 174.193 97.7195C173.676 97.9216 173.093 98.0227 172.443 98.0227ZM172.428 93.6527C172.856 93.6527 173.217 93.5533 173.512 93.3544C173.81 93.1522 174.036 92.8639 174.188 92.4893C174.344 92.1115 174.422 91.6591 174.422 91.1321C174.422 90.6184 174.346 90.166 174.193 89.7749C174.041 89.3838 173.817 89.0788 173.522 88.8601C173.227 88.638 172.862 88.527 172.428 88.527C171.981 88.527 171.608 88.643 171.31 88.875C171.011 89.1037 170.786 89.4152 170.634 89.8097C170.484 90.2041 170.41 90.6449 170.41 91.1321C170.41 91.6326 170.486 92.0717 170.638 92.4496C170.791 92.8274 171.016 93.1224 171.315 93.3345C171.616 93.5466 171.987 93.6527 172.428 93.6527ZM179.369 90.4659V95H177.882V87.3636H179.309V88.6065H179.403C179.579 88.2022 179.854 87.8774 180.229 87.6321C180.607 87.3868 181.082 87.2642 181.656 87.2642C182.176 87.2642 182.632 87.3736 183.023 87.5923C183.414 87.8078 183.717 88.1293 183.933 88.5568C184.148 88.9844 184.256 89.513 184.256 90.1428V95H182.769V90.3217C182.769 89.7682 182.625 89.3357 182.337 89.0241C182.048 88.7093 181.652 88.5518 181.148 88.5518C180.804 88.5518 180.497 88.6264 180.229 88.7756C179.964 88.9247 179.753 89.1435 179.597 89.4318C179.445 89.7169 179.369 90.0616 179.369 90.4659ZM187.229 95.0945C186.957 95.0945 186.723 94.9983 186.528 94.8061C186.332 94.6106 186.234 94.3752 186.234 94.1001C186.234 93.8284 186.332 93.5964 186.528 93.4041C186.723 93.2086 186.957 93.1108 187.229 93.1108C187.5 93.1108 187.734 93.2086 187.93 93.4041C188.125 93.5964 188.223 93.8284 188.223 94.1001C188.223 94.2824 188.177 94.4498 188.084 94.6023C187.994 94.7514 187.875 94.8707 187.726 94.9602C187.577 95.0497 187.411 95.0945 187.229 95.0945Z" fill="white"/>
<rect x="18.6667" y="111" width="44" height="18" rx="4" fill="#207BF9" fill-opacity="0.16"/>
<path d="M28.1321 125H26.4915V115.845H23.1956V114.431H31.4207V115.845H28.1321V125ZM38.1956 125L37.2288 122.144H33.2004L32.2336 125H30.5271L34.343 114.431H36.1155L39.9314 125H38.1956ZM35.1926 116.189L33.6179 120.825H36.8113L35.2366 116.189H35.1926ZM45.1755 125.176C42.2092 125.176 40.3342 123.081 40.3342 119.712C40.3342 116.365 42.2239 114.255 45.1755 114.255C47.5706 114.255 49.3796 115.728 49.658 117.932H48.032C47.739 116.577 46.6111 115.691 45.1755 115.691C43.2566 115.691 42.0115 117.266 42.0115 119.712C42.0115 122.18 43.2419 123.74 45.1829 123.74C46.655 123.74 47.7024 122.986 48.032 121.711H49.6653C49.2625 123.894 47.6072 125.176 45.1755 125.176ZM55.012 125H53.3713V115.845H50.0754V114.431H58.3005V115.845H55.012V125Z" fill="#207BF9"/>
<rect x="68.6667" y="111" width="44" height="18" rx="4" fill="#207BF9" fill-opacity="0.16"/>
<path d="M76.0081 125H74.3674V114.431H80.9666V115.845H76.0081V119.192H80.5491V120.576H76.0081V125ZM89.0159 117.046V125H87.4998V123.638H87.4705C87.009 124.583 86.2034 125.088 84.9875 125.088C83.2517 125.088 82.197 123.967 82.197 122.144V117.046H83.7864V121.843C83.7864 123.066 84.365 123.718 85.5149 123.718C86.7014 123.718 87.4265 122.891 87.4265 121.631V117.046H89.0159ZM90.6418 125V117.046H92.158V118.386H92.1873C92.6707 117.449 93.469 116.958 94.6995 116.958C96.4573 116.958 97.4607 118.071 97.4607 119.902V125H95.8713V120.203C95.8713 118.994 95.3147 118.32 94.1501 118.32C92.949 118.32 92.2312 119.155 92.2312 120.408V125H90.6418ZM103.672 125.176C100.705 125.176 98.8303 123.081 98.8303 119.712C98.8303 116.365 100.72 114.255 103.672 114.255C106.067 114.255 107.876 115.728 108.154 117.932H106.528C106.235 116.577 105.107 115.691 103.672 115.691C101.753 115.691 100.508 117.266 100.508 119.712C100.508 122.18 101.738 123.74 103.679 123.74C105.151 123.74 106.198 122.986 106.528 121.711H108.161C107.759 123.894 106.103 125.176 103.672 125.176Z" fill="#207BF9"/>
<rect x="118.667" y="111" width="30" height="18" rx="4" fill="#207BF9" fill-opacity="0.16"/>
<path d="M126.1 125H124.459V114.431H131.058V115.845H126.1V119.192H130.641V120.576H126.1V125ZM132.384 125V117.046H133.973V125H132.384ZM133.182 115.911C132.67 115.911 132.252 115.5 132.252 114.995C132.252 114.475 132.67 114.08 133.182 114.08C133.695 114.08 134.113 114.475 134.113 114.995C134.113 115.5 133.695 115.911 133.182 115.911ZM136.141 125V118.298H135.043V117.046H136.141V116.313C136.141 114.827 136.815 114.175 138.427 114.175C138.712 114.175 138.976 114.204 139.232 114.248V115.457C139.071 115.42 138.851 115.398 138.639 115.398C137.987 115.398 137.716 115.684 137.709 116.365V117.046H139.24V118.298H137.723V125H136.141ZM141.034 115.259H142.616V117.046H144.139V118.298H142.616V122.744C142.616 123.433 142.924 123.755 143.59 123.755C143.759 123.755 144.03 123.733 144.132 123.718V124.971C143.956 125.015 143.583 125.051 143.239 125.051C141.649 125.051 141.034 124.443 141.034 122.905V118.298H139.935V117.046H141.034V115.259Z" fill="#207BF9"/>
<rect x="154.667" y="111" width="37" height="18" rx="4" fill="#207BF9" fill-opacity="0.16"/>
<path d="M164.742 125H160.399V114.431H164.727C166.595 114.431 167.825 115.471 167.825 117.068C167.825 118.188 167.005 119.192 165.95 119.368V119.426C167.379 119.587 168.353 120.605 168.353 122.012C168.353 123.872 166.998 125 164.742 125ZM162.039 115.771V118.928H163.98C165.408 118.928 166.192 118.342 166.192 117.295C166.192 116.313 165.518 115.771 164.324 115.771H162.039ZM162.039 123.66H164.412C165.892 123.66 166.676 123.052 166.676 121.909C166.676 120.767 165.863 120.181 164.317 120.181H162.039V123.66ZM173.018 125.095C170.719 125.095 169.254 123.528 169.254 121.023C169.254 118.525 170.726 116.943 173.018 116.943C175.311 116.943 176.776 118.518 176.776 121.023C176.776 123.528 175.318 125.095 173.018 125.095ZM173.018 123.777C174.366 123.777 175.164 122.759 175.164 121.023C175.164 119.287 174.366 118.262 173.018 118.262C171.671 118.262 170.865 119.294 170.865 121.023C170.865 122.759 171.671 123.777 173.018 123.777ZM182.672 125.176C179.705 125.176 177.83 123.081 177.83 119.712C177.83 116.365 179.72 114.255 182.672 114.255C185.067 114.255 186.876 115.728 187.154 117.932H185.528C185.235 116.577 184.107 115.691 182.672 115.691C180.753 115.691 179.508 117.266 179.508 119.712C179.508 122.18 180.738 123.74 182.679 123.74C184.151 123.74 185.198 122.986 185.528 121.711H187.161C186.759 123.894 185.103 125.176 182.672 125.176Z" fill="#207BF9"/>
<path d="M150.119 234.5V224.318H151.655V233.178H156.268V234.5H150.119ZM161.193 234.654C160.44 234.654 159.792 234.493 159.249 234.172C158.709 233.847 158.291 233.391 157.996 232.805C157.704 232.215 157.559 231.524 157.559 230.732C157.559 229.949 157.704 229.26 157.996 228.663C158.291 228.067 158.702 227.601 159.229 227.266C159.759 226.932 160.379 226.764 161.088 226.764C161.519 226.764 161.937 226.835 162.341 226.978C162.746 227.121 163.109 227.344 163.43 227.649C163.752 227.954 164.005 228.35 164.191 228.837C164.376 229.321 164.469 229.91 164.469 230.602V231.129H158.399V230.016H163.012C163.012 229.625 162.933 229.278 162.774 228.977C162.615 228.672 162.391 228.431 162.103 228.256C161.818 228.08 161.483 227.992 161.098 227.992C160.681 227.992 160.316 228.095 160.005 228.3C159.696 228.503 159.458 228.768 159.289 229.096C159.123 229.421 159.04 229.774 159.04 230.155V231.025C159.04 231.535 159.13 231.969 159.309 232.327C159.491 232.685 159.744 232.959 160.069 233.148C160.394 233.333 160.774 233.426 161.208 233.426C161.489 233.426 161.746 233.386 161.978 233.307C162.21 233.224 162.411 233.101 162.58 232.939C162.749 232.777 162.878 232.576 162.968 232.337L164.375 232.591C164.262 233.005 164.06 233.368 163.768 233.68C163.48 233.988 163.117 234.228 162.679 234.401C162.245 234.57 161.75 234.654 161.193 234.654ZM168.341 234.669C167.857 234.669 167.419 234.58 167.028 234.401C166.637 234.218 166.327 233.955 166.099 233.61C165.873 233.265 165.76 232.843 165.76 232.342C165.76 231.911 165.843 231.557 166.009 231.278C166.175 231 166.398 230.78 166.68 230.617C166.962 230.455 167.277 230.332 167.625 230.249C167.973 230.166 168.327 230.103 168.689 230.06C169.146 230.007 169.517 229.964 169.802 229.931C170.087 229.895 170.295 229.837 170.424 229.757C170.553 229.678 170.618 229.548 170.618 229.369V229.335C170.618 228.9 170.495 228.564 170.25 228.325C170.008 228.087 169.647 227.967 169.166 227.967C168.666 227.967 168.271 228.078 167.983 228.3C167.698 228.519 167.501 228.763 167.391 229.031L165.994 228.713C166.16 228.249 166.402 227.875 166.72 227.589C167.041 227.301 167.411 227.092 167.829 226.963C168.246 226.83 168.685 226.764 169.146 226.764C169.451 226.764 169.774 226.801 170.116 226.874C170.46 226.943 170.782 227.072 171.08 227.261C171.382 227.45 171.629 227.72 171.821 228.072C172.013 228.42 172.109 228.872 172.109 229.429V234.5H170.657V233.456H170.598C170.502 233.648 170.358 233.837 170.165 234.023C169.973 234.208 169.726 234.362 169.425 234.485C169.123 234.608 168.762 234.669 168.341 234.669ZM168.664 233.476C169.075 233.476 169.426 233.395 169.718 233.232C170.013 233.07 170.237 232.858 170.389 232.596C170.545 232.331 170.623 232.047 170.623 231.746V230.761C170.57 230.814 170.467 230.864 170.314 230.911C170.165 230.954 169.995 230.992 169.802 231.025C169.61 231.055 169.423 231.083 169.241 231.109C169.058 231.133 168.906 231.152 168.783 231.169C168.495 231.205 168.231 231.267 167.993 231.353C167.757 231.439 167.568 231.563 167.426 231.726C167.287 231.885 167.217 232.097 167.217 232.362C167.217 232.73 167.353 233.009 167.625 233.197C167.897 233.383 168.243 233.476 168.664 233.476ZM174.089 234.5V226.864H175.526V228.077H175.605C175.745 227.666 175.99 227.343 176.341 227.107C176.696 226.869 177.097 226.749 177.544 226.749C177.637 226.749 177.747 226.753 177.873 226.759C178.002 226.766 178.103 226.774 178.176 226.784V228.206C178.116 228.189 178.01 228.171 177.858 228.151C177.705 228.128 177.553 228.116 177.4 228.116C177.049 228.116 176.736 228.191 176.461 228.34C176.189 228.486 175.973 228.69 175.814 228.952C175.655 229.21 175.576 229.505 175.576 229.837V234.5H174.089ZM180.949 229.966V234.5H179.462V226.864H180.889V228.107H180.983C181.159 227.702 181.434 227.377 181.809 227.132C182.187 226.887 182.662 226.764 183.236 226.764C183.756 226.764 184.212 226.874 184.603 227.092C184.994 227.308 185.297 227.629 185.513 228.057C185.728 228.484 185.836 229.013 185.836 229.643V234.5H184.349V229.822C184.349 229.268 184.205 228.836 183.917 228.524C183.628 228.209 183.232 228.052 182.729 228.052C182.384 228.052 182.077 228.126 181.809 228.276C181.544 228.425 181.333 228.643 181.177 228.932C181.025 229.217 180.949 229.562 180.949 229.966ZM191.534 234.5V226.864H192.961V228.107H193.056C193.215 227.686 193.475 227.357 193.836 227.122C194.198 226.884 194.63 226.764 195.134 226.764C195.644 226.764 196.072 226.884 196.417 227.122C196.765 227.361 197.021 227.689 197.187 228.107H197.267C197.449 227.699 197.739 227.374 198.137 227.132C198.534 226.887 199.008 226.764 199.559 226.764C200.251 226.764 200.816 226.981 201.254 227.415C201.695 227.85 201.915 228.504 201.915 229.379V234.5H200.429V229.518C200.429 229.001 200.288 228.627 200.006 228.395C199.724 228.163 199.388 228.047 198.997 228.047C198.513 228.047 198.137 228.196 197.868 228.494C197.6 228.789 197.466 229.169 197.466 229.633V234.5H195.984V229.424C195.984 229.01 195.855 228.677 195.596 228.425C195.338 228.173 195.001 228.047 194.587 228.047C194.305 228.047 194.045 228.121 193.806 228.271C193.571 228.416 193.381 228.62 193.235 228.882C193.092 229.144 193.021 229.447 193.021 229.792V234.5H191.534ZM207.124 234.654C206.408 234.654 205.783 234.49 205.25 234.162C204.716 233.834 204.302 233.375 204.007 232.785C203.712 232.195 203.564 231.505 203.564 230.717C203.564 229.924 203.712 229.232 204.007 228.638C204.302 228.045 204.716 227.585 205.25 227.256C205.783 226.928 206.408 226.764 207.124 226.764C207.84 226.764 208.465 226.928 208.998 227.256C209.532 227.585 209.946 228.045 210.241 228.638C210.536 229.232 210.684 229.924 210.684 230.717C210.684 231.505 210.536 232.195 210.241 232.785C209.946 233.375 209.532 233.834 208.998 234.162C208.465 234.49 207.84 234.654 207.124 234.654ZM207.129 233.406C207.593 233.406 207.978 233.284 208.282 233.038C208.587 232.793 208.813 232.467 208.959 232.059C209.108 231.651 209.182 231.202 209.182 230.712C209.182 230.224 209.108 229.777 208.959 229.369C208.813 228.958 208.587 228.629 208.282 228.38C207.978 228.131 207.593 228.007 207.129 228.007C206.662 228.007 206.274 228.131 205.966 228.38C205.661 228.629 205.434 228.958 205.285 229.369C205.139 229.777 205.066 230.224 205.066 230.712C205.066 231.202 205.139 231.651 205.285 232.059C205.434 232.467 205.661 232.793 205.966 233.038C206.274 233.284 206.662 233.406 207.129 233.406ZM212.343 234.5V226.864H213.78V228.077H213.859C213.999 227.666 214.244 227.343 214.595 227.107C214.95 226.869 215.351 226.749 215.798 226.749C215.891 226.749 216 226.753 216.126 226.759C216.256 226.766 216.357 226.774 216.43 226.784V228.206C216.37 228.189 216.264 228.171 216.112 228.151C215.959 228.128 215.807 228.116 215.654 228.116C215.303 228.116 214.99 228.191 214.714 228.34C214.443 228.486 214.227 228.69 214.068 228.952C213.909 229.21 213.83 229.505 213.83 229.837V234.5H212.343ZM220.734 234.654C219.981 234.654 219.334 234.493 218.79 234.172C218.25 233.847 217.832 233.391 217.537 232.805C217.245 232.215 217.1 231.524 217.1 230.732C217.1 229.949 217.245 229.26 217.537 228.663C217.832 228.067 218.243 227.601 218.77 227.266C219.3 226.932 219.92 226.764 220.629 226.764C221.06 226.764 221.478 226.835 221.882 226.978C222.287 227.121 222.65 227.344 222.971 227.649C223.293 227.954 223.546 228.35 223.732 228.837C223.917 229.321 224.01 229.91 224.01 230.602V231.129H217.94V230.016H222.553C222.553 229.625 222.474 229.278 222.315 228.977C222.156 228.672 221.932 228.431 221.644 228.256C221.359 228.08 221.024 227.992 220.639 227.992C220.222 227.992 219.857 228.095 219.546 228.3C219.237 228.503 218.999 228.768 218.83 229.096C218.664 229.421 218.581 229.774 218.581 230.155V231.025C218.581 231.535 218.671 231.969 218.85 232.327C219.032 232.685 219.285 232.959 219.61 233.148C219.935 233.333 220.315 233.426 220.749 233.426C221.03 233.426 221.287 233.386 221.519 233.307C221.751 233.224 221.952 233.101 222.121 232.939C222.29 232.777 222.419 232.576 222.509 232.337L223.916 232.591C223.803 233.005 223.601 233.368 223.309 233.68C223.021 233.988 222.658 234.228 222.22 234.401C221.786 234.57 221.291 234.654 220.734 234.654Z" fill="#207BF9"/>
<path d="M237.9 228.7L233.3 224.1L234.7 222.7L240.7 228.7L234.7 234.7L233.3 233.3L237.9 228.7Z" fill="#207BF9"/>
<path d="M23 229H39" stroke="#207BF9" stroke-width="2" stroke-linecap="round" stroke-linejoin="round"/>
<path d="M23 223H39" stroke="#207BF9" stroke-width="2" stroke-linecap="round" stroke-linejoin="round"/>
<path d="M35 217L33 235" stroke="#207BF9" stroke-width="2" stroke-linecap="round" stroke-linejoin="round"/>
<path d="M29 217L27 235" stroke="#207BF9" stroke-width="2" stroke-linecap="round" stroke-linejoin="round"/>
</svg>
