<svg width="518" height="512" viewBox="0 0 259 256" fill="none" xmlns="http://www.w3.org/2000/svg">
<rect x="0.333374" width="258.667" height="256" rx="30" fill="#17191B"/>
<path d="M28.9999 223H44.9999" stroke="#207BF9" stroke-width="2" stroke-linecap="round" stroke-linejoin="round"/>
<path d="M28.9999 217H44.9999" stroke="#207BF9" stroke-width="2" stroke-linecap="round" stroke-linejoin="round"/>
<path d="M40.9999 211L38.9999 229" stroke="#207BF9" stroke-width="2" stroke-linecap="round" stroke-linejoin="round"/>
<path d="M34.9999 211L32.9999 229" stroke="#207BF9" stroke-width="2" stroke-linecap="round" stroke-linejoin="round"/>
<path d="M143.05 216.5H144.85V225.35H149.5V227H143.05V216.5ZM153.698 227.15C152.568 227.15 151.683 226.83 151.043 226.19C150.413 225.54 150.098 224.615 150.098 223.415V223.085C150.098 222.495 150.178 221.97 150.338 221.51C150.508 221.04 150.743 220.645 151.043 220.325C151.353 220.005 151.723 219.765 152.153 219.605C152.593 219.435 153.083 219.35 153.623 219.35C154.713 219.35 155.573 219.675 156.203 220.325C156.833 220.975 157.148 221.92 157.148 223.16V223.79H151.853C151.903 224.45 152.068 224.93 152.348 225.23C152.628 225.53 153.053 225.68 153.623 225.68C154.523 225.68 155.073 225.37 155.273 224.75H157.073C156.903 225.53 156.523 226.125 155.933 226.535C155.353 226.945 154.608 227.15 153.698 227.15ZM153.623 220.82C153.093 220.82 152.688 220.955 152.408 221.225C152.128 221.485 151.948 221.91 151.868 222.5H155.378C155.308 221.91 155.133 221.485 154.853 221.225C154.573 220.955 154.163 220.82 153.623 220.82ZM160.749 227.15C159.859 227.15 159.199 226.95 158.769 226.55C158.339 226.15 158.124 225.595 158.124 224.885C158.124 224.515 158.184 224.18 158.304 223.88C158.424 223.58 158.619 223.325 158.889 223.115C159.159 222.905 159.509 222.745 159.939 222.635C160.369 222.515 160.889 222.455 161.499 222.455H162.984V222.05C162.984 221.66 162.869 221.36 162.639 221.15C162.409 220.93 162.054 220.82 161.574 220.82C161.094 220.82 160.749 220.91 160.539 221.09C160.329 221.26 160.204 221.48 160.164 221.75H158.424C158.444 221.41 158.524 221.095 158.664 220.805C158.804 220.505 159.004 220.25 159.264 220.04C159.524 219.82 159.844 219.65 160.224 219.53C160.614 219.41 161.064 219.35 161.574 219.35C162.644 219.35 163.434 219.595 163.944 220.085C164.464 220.575 164.724 221.28 164.724 222.2V227H163.374L163.209 226.025H163.179C162.889 226.385 162.534 226.665 162.114 226.865C161.694 227.055 161.239 227.15 160.749 227.15ZM161.049 225.68C161.329 225.68 161.584 225.635 161.814 225.545C162.054 225.455 162.259 225.335 162.429 225.185C162.599 225.025 162.734 224.84 162.834 224.63C162.934 224.41 162.984 224.175 162.984 223.925V223.745H161.574C160.974 223.745 160.554 223.845 160.314 224.045C160.074 224.235 159.954 224.495 159.954 224.825C159.954 225.075 160.039 225.28 160.209 225.44C160.389 225.6 160.669 225.68 161.049 225.68ZM166.603 219.5H167.953L168.103 220.4H168.133C168.433 220.03 168.763 219.765 169.123 219.605C169.483 219.435 169.918 219.35 170.428 219.35H171.103V220.94H170.203C169.603 220.94 169.143 221.095 168.823 221.405C168.503 221.705 168.343 222.12 168.343 222.65V227H166.603V219.5ZM172.228 219.5H173.578L173.728 220.325H173.758C174.368 219.675 175.133 219.35 176.053 219.35C176.963 219.35 177.678 219.625 178.198 220.175C178.718 220.715 178.978 221.515 178.978 222.575V227H177.238V222.65C177.238 222.08 177.103 221.655 176.833 221.375C176.563 221.085 176.178 220.94 175.678 220.94C175.158 220.94 174.743 221.095 174.433 221.405C174.123 221.715 173.968 222.13 173.968 222.65V227H172.228V219.5ZM184.606 219.5H185.956L186.106 220.4H186.136C186.426 220.06 186.751 219.8 187.111 219.62C187.481 219.44 187.876 219.35 188.296 219.35C188.806 219.35 189.261 219.455 189.661 219.665C190.061 219.865 190.381 220.17 190.621 220.58C190.881 220.19 191.216 219.89 191.626 219.68C192.046 219.46 192.521 219.35 193.051 219.35C193.901 219.35 194.581 219.63 195.091 220.19C195.601 220.74 195.856 221.56 195.856 222.65V227H194.116V222.65C194.116 222.07 193.986 221.64 193.726 221.36C193.476 221.08 193.126 220.94 192.676 220.94C192.226 220.94 191.851 221.095 191.551 221.405C191.251 221.715 191.101 222.13 191.101 222.65V227H189.361V222.65C189.361 222.08 189.231 221.655 188.971 221.375C188.711 221.085 188.361 220.94 187.921 220.94C187.471 220.94 187.096 221.095 186.796 221.405C186.496 221.715 186.346 222.13 186.346 222.65V227H184.606V219.5ZM200.881 227.15C199.751 227.15 198.866 226.83 198.226 226.19C197.596 225.54 197.281 224.615 197.281 223.415V223.085C197.281 222.495 197.361 221.97 197.521 221.51C197.691 221.05 197.931 220.66 198.241 220.34C198.561 220.02 198.941 219.775 199.381 219.605C199.821 219.435 200.321 219.35 200.881 219.35C202.011 219.35 202.891 219.675 203.521 220.325C204.161 220.965 204.481 221.885 204.481 223.085V223.415C204.481 224.005 204.396 224.53 204.226 224.99C204.066 225.45 203.826 225.84 203.506 226.16C203.196 226.48 202.816 226.725 202.366 226.895C201.926 227.065 201.431 227.15 200.881 227.15ZM200.881 225.56C201.431 225.56 201.861 225.39 202.171 225.05C202.491 224.7 202.651 224.155 202.651 223.415V223.085C202.651 222.365 202.491 221.83 202.171 221.48C201.851 221.12 201.421 220.94 200.881 220.94C200.331 220.94 199.896 221.115 199.576 221.465C199.266 221.805 199.111 222.345 199.111 223.085V223.415C199.111 224.135 199.271 224.675 199.591 225.035C199.911 225.385 200.341 225.56 200.881 225.56ZM205.978 219.5H207.328L207.478 220.4H207.508C207.808 220.03 208.138 219.765 208.498 219.605C208.858 219.435 209.293 219.35 209.803 219.35H210.478V220.94H209.578C208.978 220.94 208.518 221.095 208.198 221.405C207.878 221.705 207.718 222.12 207.718 222.65V227H205.978V219.5ZM214.606 227.15C213.476 227.15 212.591 226.83 211.951 226.19C211.321 225.54 211.006 224.615 211.006 223.415V223.085C211.006 222.495 211.086 221.97 211.246 221.51C211.416 221.04 211.651 220.645 211.951 220.325C212.261 220.005 212.631 219.765 213.061 219.605C213.501 219.435 213.991 219.35 214.531 219.35C215.621 219.35 216.481 219.675 217.111 220.325C217.741 220.975 218.056 221.92 218.056 223.16V223.79H212.761C212.811 224.45 212.976 224.93 213.256 225.23C213.536 225.53 213.961 225.68 214.531 225.68C215.431 225.68 215.981 225.37 216.181 224.75H217.981C217.811 225.53 217.431 226.125 216.841 226.535C216.261 226.945 215.516 227.15 214.606 227.15ZM214.531 220.82C214.001 220.82 213.596 220.955 213.316 221.225C213.036 221.485 212.856 221.91 212.776 222.5H216.286C216.216 221.91 216.041 221.485 215.761 221.225C215.481 220.955 215.071 220.82 214.531 220.82Z" fill="#207BF9"/>
<path d="M229.698 222.7L226.675 219.678C226.375 219.378 226.375 218.892 226.675 218.593C226.975 218.293 227.46 218.293 227.76 218.593L231.32 222.152C231.622 222.455 231.622 222.946 231.32 223.248L227.76 226.808C227.46 227.107 226.975 227.107 226.675 226.808C226.375 226.508 226.375 226.022 226.675 225.723L229.698 222.7Z" fill="#207BF9"/>
<path d="M26.2599 28.4H30.4899C32.4219 28.4 33.8919 28.904 34.8999 29.912C35.9199 30.908 36.4299 32.336 36.4299 34.196V35.024C36.4299 36.956 35.9199 38.438 34.8999 39.47C33.8799 40.49 32.4099 41 30.4899 41H26.2599V28.4ZM30.3999 39.02C31.7079 39.02 32.6619 38.714 33.2619 38.102C33.8619 37.478 34.1619 36.452 34.1619 35.024V34.196C34.1619 32.876 33.8559 31.91 33.2439 31.298C32.6439 30.686 31.6959 30.38 30.3999 30.38H28.4199V39.02H30.3999ZM42.1843 41.18C40.8283 41.18 39.7663 40.796 38.9983 40.028C38.2423 39.248 37.8643 38.138 37.8643 36.698V36.302C37.8643 35.594 37.9603 34.964 38.1523 34.412C38.3563 33.848 38.6383 33.374 38.9983 32.99C39.3703 32.606 39.8143 32.318 40.3303 32.126C40.8583 31.922 41.4463 31.82 42.0943 31.82C43.4023 31.82 44.4343 32.21 45.1903 32.99C45.9463 33.77 46.3243 34.904 46.3243 36.392V37.148H39.9703C40.0303 37.94 40.2283 38.516 40.5643 38.876C40.9003 39.236 41.4103 39.416 42.0943 39.416C43.1743 39.416 43.8343 39.044 44.0743 38.3H46.2343C46.0303 39.236 45.5743 39.95 44.8663 40.442C44.1703 40.934 43.2763 41.18 42.1843 41.18ZM42.0943 33.584C41.4583 33.584 40.9723 33.746 40.6363 34.07C40.3003 34.382 40.0843 34.892 39.9883 35.6H44.2003C44.1163 34.892 43.9063 34.382 43.5703 34.07C43.2343 33.746 42.7423 33.584 42.0943 33.584ZM51.635 41C51.143 41 50.729 40.94 50.393 40.82C50.057 40.7 49.775 40.544 49.547 40.352C49.331 40.16 49.163 39.95 49.043 39.722C48.923 39.482 48.833 39.254 48.773 39.038C48.725 38.822 48.695 38.624 48.683 38.444C48.671 38.264 48.665 38.126 48.665 38.03V33.908H47.045V32H48.665V29.48H50.753V32H52.985V33.908H50.753V37.742C50.753 37.838 50.759 37.964 50.771 38.12C50.783 38.276 50.831 38.426 50.915 38.57C50.999 38.714 51.125 38.84 51.293 38.948C51.461 39.044 51.701 39.092 52.013 39.092H53.165V41H51.635ZM58.3913 41.18C57.0353 41.18 55.9733 40.796 55.2053 40.028C54.4493 39.248 54.0713 38.138 54.0713 36.698V36.302C54.0713 35.594 54.1673 34.964 54.3593 34.412C54.5633 33.848 54.8453 33.374 55.2053 32.99C55.5773 32.606 56.0213 32.318 56.5373 32.126C57.0653 31.922 57.6533 31.82 58.3013 31.82C59.6093 31.82 60.6413 32.21 61.3973 32.99C62.1533 33.77 62.5313 34.904 62.5313 36.392V37.148H56.1773C56.2373 37.94 56.4353 38.516 56.7713 38.876C57.1073 39.236 57.6173 39.416 58.3013 39.416C59.3813 39.416 60.0413 39.044 60.2813 38.3H62.4413C62.2373 39.236 61.7813 39.95 61.0733 40.442C60.3773 40.934 59.4833 41.18 58.3913 41.18ZM58.3013 33.584C57.6653 33.584 57.1793 33.746 56.8433 34.07C56.5073 34.382 56.2913 34.892 56.1953 35.6H60.4073C60.3233 34.892 60.1133 34.382 59.7773 34.07C59.4413 33.746 58.9493 33.584 58.3013 33.584ZM67.932 41.18C66.648 41.18 65.634 40.796 64.89 40.028C64.158 39.248 63.792 38.108 63.792 36.608V36.212C63.792 35.516 63.888 34.898 64.08 34.358C64.272 33.818 64.548 33.362 64.908 32.99C65.268 32.606 65.7 32.318 66.204 32.126C66.72 31.922 67.296 31.82 67.932 31.82C68.52 31.82 69.042 31.898 69.498 32.054C69.966 32.21 70.362 32.426 70.686 32.702C71.022 32.978 71.286 33.302 71.478 33.674C71.682 34.046 71.82 34.448 71.892 34.88H69.696C69.564 34.532 69.366 34.256 69.102 34.052C68.85 33.836 68.49 33.728 68.022 33.728C67.446 33.728 66.96 33.92 66.564 34.304C66.18 34.688 65.988 35.324 65.988 36.212V36.608C65.988 37.1 66.036 37.514 66.132 37.85C66.24 38.186 66.384 38.462 66.564 38.678C66.756 38.882 66.972 39.032 67.212 39.128C67.464 39.224 67.734 39.272 68.022 39.272C68.49 39.272 68.85 39.158 69.102 38.93C69.366 38.702 69.564 38.372 69.696 37.94H71.892C71.82 38.42 71.682 38.858 71.478 39.254C71.286 39.65 71.022 39.992 70.686 40.28C70.362 40.568 69.966 40.79 69.498 40.946C69.042 41.102 68.52 41.18 67.932 41.18ZM76.9299 41C76.4379 41 76.0239 40.94 75.6879 40.82C75.3519 40.7 75.0699 40.544 74.8419 40.352C74.6259 40.16 74.4579 39.95 74.3379 39.722C74.2179 39.482 74.1279 39.254 74.0679 39.038C74.0199 38.822 73.9899 38.624 73.9779 38.444C73.9659 38.264 73.9599 38.126 73.9599 38.03V33.908H72.3399V32H73.9599V29.48H76.0479V32H78.2799V33.908H76.0479V37.742C76.0479 37.838 76.0539 37.964 76.0659 38.12C76.0779 38.276 76.1259 38.426 76.2099 38.57C76.2939 38.714 76.4199 38.84 76.5879 38.948C76.7559 39.044 76.9959 39.092 77.3079 39.092H78.4599V41H76.9299ZM83.6862 41.18C82.3302 41.18 81.2682 40.796 80.5002 40.028C79.7442 39.248 79.3662 38.138 79.3662 36.698V36.302C79.3662 35.594 79.4622 34.964 79.6542 34.412C79.8582 33.86 80.1462 33.392 80.5182 33.008C80.9022 32.624 81.3582 32.33 81.8862 32.126C82.4142 31.922 83.0142 31.82 83.6862 31.82C85.0422 31.82 86.0982 32.21 86.8542 32.99C87.6222 33.758 88.0062 34.862 88.0062 36.302V36.698C88.0062 37.406 87.9042 38.036 87.7002 38.588C87.5082 39.14 87.2202 39.608 86.8362 39.992C86.4642 40.376 86.0082 40.67 85.4682 40.874C84.9402 41.078 84.3462 41.18 83.6862 41.18ZM83.6862 39.272C84.3462 39.272 84.8622 39.068 85.2342 38.66C85.6182 38.24 85.8102 37.586 85.8102 36.698V36.302C85.8102 35.438 85.6182 34.796 85.2342 34.376C84.8502 33.944 84.3342 33.728 83.6862 33.728C83.0262 33.728 82.5042 33.938 82.1202 34.358C81.7482 34.766 81.5622 35.414 81.5622 36.302V36.698C81.5622 37.562 81.7542 38.21 82.1382 38.642C82.5222 39.062 83.0382 39.272 83.6862 39.272ZM89.8027 32H91.4227L91.6027 33.08H91.6387C91.9987 32.636 92.3947 32.318 92.8267 32.126C93.2587 31.922 93.7807 31.82 94.3927 31.82H95.2027V33.728H94.1227C93.4027 33.728 92.8507 33.914 92.4667 34.286C92.0827 34.646 91.8907 35.144 91.8907 35.78V41H89.8027V32ZM99.9727 41.162C98.6527 41.162 97.6807 40.898 97.0567 40.37C96.4447 39.83 96.0967 39.08 96.0127 38.12H98.2087C98.3047 38.576 98.4727 38.912 98.7127 39.128C98.9527 39.332 99.3427 39.434 99.8827 39.434C100.447 39.434 100.837 39.35 101.053 39.182C101.269 39.002 101.377 38.768 101.377 38.48C101.377 38.18 101.245 37.952 100.981 37.796C100.729 37.628 100.411 37.49 100.027 37.382C99.6427 37.274 99.2287 37.172 98.7847 37.076C98.3407 36.968 97.9267 36.818 97.5427 36.626C97.1587 36.422 96.8347 36.152 96.5707 35.816C96.3187 35.48 96.1927 35.024 96.1927 34.448C96.1927 34.076 96.2647 33.734 96.4087 33.422C96.5527 33.098 96.7687 32.822 97.0567 32.594C97.3447 32.354 97.7047 32.168 98.1367 32.036C98.5807 31.904 99.1027 31.838 99.7027 31.838C100.951 31.838 101.869 32.096 102.457 32.612C103.045 33.128 103.387 33.824 103.483 34.7H101.287C101.191 34.316 101.029 34.034 100.801 33.854C100.585 33.662 100.219 33.566 99.7027 33.566C99.2107 33.566 98.8687 33.644 98.6767 33.8C98.4847 33.956 98.3887 34.166 98.3887 34.43C98.3887 34.718 98.5147 34.934 98.7667 35.078C99.0307 35.21 99.3547 35.324 99.7387 35.42C100.123 35.516 100.537 35.618 100.981 35.726C101.425 35.822 101.839 35.972 102.223 36.176C102.607 36.38 102.925 36.662 103.177 37.022C103.441 37.37 103.573 37.85 103.573 38.462C103.573 38.846 103.495 39.206 103.339 39.542C103.195 39.866 102.973 40.148 102.673 40.388C102.385 40.628 102.013 40.82 101.557 40.964C101.113 41.096 100.585 41.162 99.9727 41.162Z" fill="white"/>
<path d="M28.6449 61.79H25.2999V60.5H33.3999V61.79H30.0549V71H28.6449V61.79ZM38.2063 71.12C36.9263 71.12 35.9613 70.82 35.3113 70.22C34.6713 69.62 34.3113 68.78 34.2313 67.7H35.7313C35.8113 68.41 36.0413 68.945 36.4213 69.305C36.8013 69.655 37.3963 69.83 38.2063 69.83C38.9763 69.83 39.5363 69.68 39.8863 69.38C40.2363 69.07 40.4113 68.67 40.4113 68.18C40.4113 67.86 40.3213 67.6 40.1413 67.4C39.9713 67.19 39.7463 67.02 39.4663 66.89C39.1863 66.75 38.8663 66.63 38.5063 66.53C38.1463 66.43 37.7763 66.33 37.3963 66.23C37.0163 66.12 36.6463 65.995 36.2863 65.855C35.9263 65.715 35.6063 65.535 35.3263 65.315C35.0463 65.085 34.8163 64.805 34.6363 64.475C34.4663 64.135 34.3813 63.72 34.3813 63.23C34.3813 62.83 34.4563 62.455 34.6063 62.105C34.7663 61.755 34.9963 61.455 35.2963 61.205C35.5963 60.945 35.9713 60.745 36.4213 60.605C36.8713 60.455 37.3913 60.38 37.9813 60.38C39.2213 60.38 40.1463 60.67 40.7563 61.25C41.3763 61.82 41.7263 62.62 41.8063 63.65H40.3063C40.2663 63.31 40.1963 63.015 40.0963 62.765C39.9963 62.515 39.8563 62.31 39.6763 62.15C39.4963 61.98 39.2663 61.86 38.9863 61.79C38.7063 61.71 38.3713 61.67 37.9813 61.67C37.2313 61.67 36.6863 61.82 36.3463 62.12C36.0163 62.41 35.8513 62.78 35.8513 63.23C35.8513 63.56 35.9363 63.83 36.1063 64.04C36.2863 64.25 36.5163 64.425 36.7963 64.565C37.0763 64.705 37.3963 64.825 37.7563 64.925C38.1163 65.015 38.4863 65.11 38.8663 65.21C39.2463 65.31 39.6163 65.43 39.9763 65.57C40.3363 65.7 40.6563 65.88 40.9363 66.11C41.2163 66.33 41.4413 66.61 41.6113 66.95C41.7913 67.28 41.8813 67.695 41.8813 68.195C41.8813 68.625 41.8063 69.02 41.6563 69.38C41.5063 69.74 41.2763 70.05 40.9663 70.31C40.6663 70.56 40.2863 70.76 39.8263 70.91C39.3663 71.05 38.8263 71.12 38.2063 71.12ZM46.5419 60.5H48.1919L52.0169 71H50.4869L49.4969 68.12H45.1619L44.1569 71H42.7169L46.5419 60.5ZM49.0469 66.83L47.3669 61.925H47.3369L45.6119 66.83H49.0469ZM56.4442 63.5H57.8842L59.4892 69.5H59.5192L60.9142 63.5H62.7442L64.3642 69.5H64.3942L65.8942 63.5H67.2442L65.3092 71H63.4792L61.8292 65H61.7992L60.3592 71H58.5292L56.4442 63.5ZM71.5907 71.12C70.5207 71.12 69.6757 70.805 69.0557 70.175C68.4457 69.545 68.1407 68.64 68.1407 67.46V67.04C68.1407 65.87 68.4507 64.97 69.0707 64.34C69.6907 63.7 70.5307 63.38 71.5907 63.38C72.6607 63.38 73.5007 63.695 74.1107 64.325C74.7307 64.955 75.0407 65.86 75.0407 67.04V67.46C75.0407 68.63 74.7307 69.535 74.1107 70.175C73.4907 70.805 72.6507 71.12 71.5907 71.12ZM71.5907 69.89C72.2207 69.89 72.7157 69.695 73.0757 69.305C73.4457 68.905 73.6307 68.29 73.6307 67.46V67.04C73.6307 66.22 73.4457 65.61 73.0757 65.21C72.7157 64.81 72.2207 64.61 71.5907 64.61C70.9607 64.61 70.4607 64.81 70.0907 65.21C69.7307 65.6 69.5507 66.21 69.5507 67.04V67.46C69.5507 68.28 69.7307 68.89 70.0907 69.29C70.4607 69.69 70.9607 69.89 71.5907 69.89ZM76.8378 63.5H77.8878L78.0378 64.55H78.0678C78.3578 64.13 78.6878 63.83 79.0578 63.65C79.4278 63.47 79.8778 63.38 80.4078 63.38H81.1128V64.61H80.2878C79.6078 64.61 79.0878 64.785 78.7278 65.135C78.3678 65.485 78.1878 65.965 78.1878 66.575V71H76.8378V63.5ZM82.4628 60.5H83.8128V67.355L86.8728 63.5H88.4628L85.8528 66.785L88.7628 71H87.1428L84.9828 67.805L83.8128 69.26V71H82.4628V60.5ZM92.6628 71.12C91.6228 71.12 90.8528 70.91 90.3528 70.49C89.8628 70.06 89.5828 69.48 89.5128 68.75H90.9228C91.0028 69.11 91.1578 69.39 91.3878 69.59C91.6278 69.79 92.0278 69.89 92.5878 69.89C93.1578 69.89 93.5528 69.805 93.7728 69.635C93.9928 69.455 94.1028 69.225 94.1028 68.945C94.1028 68.655 93.9928 68.435 93.7728 68.285C93.5528 68.125 93.2778 67.995 92.9478 67.895C92.6178 67.795 92.2628 67.7 91.8828 67.61C91.5028 67.52 91.1478 67.395 90.8178 67.235C90.4878 67.075 90.2128 66.86 89.9928 66.59C89.7728 66.32 89.6628 65.95 89.6628 65.48C89.6628 65.18 89.7178 64.905 89.8278 64.655C89.9478 64.395 90.1228 64.175 90.3528 63.995C90.5828 63.805 90.8678 63.655 91.2078 63.545C91.5578 63.435 91.9678 63.38 92.4378 63.38C93.4178 63.38 94.1428 63.585 94.6128 63.995C95.0828 64.405 95.3578 64.94 95.4378 65.6H94.0278C93.9878 65.45 93.9328 65.315 93.8628 65.195C93.7928 65.075 93.6978 64.97 93.5778 64.88C93.4578 64.79 93.3028 64.725 93.1128 64.685C92.9328 64.635 92.7078 64.61 92.4378 64.61C91.9378 64.61 91.5828 64.695 91.3728 64.865C91.1728 65.025 91.0728 65.23 91.0728 65.48C91.0728 65.75 91.1828 65.955 91.4028 66.095C91.6228 66.235 91.8978 66.35 92.2278 66.44C92.5578 66.53 92.9128 66.62 93.2928 66.71C93.6728 66.8 94.0278 66.93 94.3578 67.1C94.6878 67.26 94.9628 67.485 95.1828 67.775C95.4028 68.065 95.5128 68.455 95.5128 68.945C95.5128 69.255 95.4528 69.545 95.3328 69.815C95.2228 70.075 95.0478 70.305 94.8078 70.505C94.5778 70.695 94.2828 70.845 93.9228 70.955C93.5628 71.065 93.1428 71.12 92.6628 71.12ZM104.066 71.12C102.996 71.12 102.151 70.805 101.531 70.175C100.921 69.545 100.616 68.64 100.616 67.46V67.04C100.616 65.87 100.926 64.97 101.546 64.34C102.166 63.7 103.006 63.38 104.066 63.38C105.136 63.38 105.976 63.695 106.586 64.325C107.206 64.955 107.516 65.86 107.516 67.04V67.46C107.516 68.63 107.206 69.535 106.586 70.175C105.966 70.805 105.126 71.12 104.066 71.12ZM104.066 69.89C104.696 69.89 105.191 69.695 105.551 69.305C105.921 68.905 106.106 68.29 106.106 67.46V67.04C106.106 66.22 105.921 65.61 105.551 65.21C105.191 64.81 104.696 64.61 104.066 64.61C103.436 64.61 102.936 64.81 102.566 65.21C102.206 65.6 102.026 66.21 102.026 67.04V67.46C102.026 68.28 102.206 68.89 102.566 69.29C102.936 69.69 103.436 69.89 104.066 69.89ZM109.313 63.5H110.363L110.498 64.475H110.528C110.848 64.095 111.193 63.82 111.563 63.65C111.943 63.47 112.383 63.38 112.883 63.38C113.783 63.38 114.488 63.645 114.998 64.175C115.508 64.705 115.763 65.48 115.763 66.5V71H114.413V66.575C114.413 65.905 114.258 65.41 113.948 65.09C113.648 64.77 113.203 64.61 112.613 64.61C112.023 64.61 111.548 64.79 111.188 65.15C110.838 65.5 110.663 65.975 110.663 66.575V71H109.313V63.5ZM124.211 61.79H120.866V60.5H128.966V61.79H125.621V71H124.211V61.79ZM129.948 60.5H131.478L134.748 69.35H134.778L137.808 60.5H139.248L135.573 71H133.923L129.948 60.5ZM140.751 60.5H142.851L145.656 66.68H145.686L148.491 60.5H150.501V71H149.091V62.15H149.061L146.376 68.075H144.876L142.191 62.15H142.161V71H140.751V60.5ZM156.569 60.5H157.919V64.4H157.949C158.269 64.04 158.609 63.78 158.969 63.62C159.339 63.46 159.779 63.38 160.289 63.38C160.739 63.38 161.149 63.46 161.519 63.62C161.889 63.77 162.209 64 162.479 64.31C162.749 64.61 162.954 64.99 163.094 65.45C163.244 65.9 163.319 66.43 163.319 67.04V67.46C163.319 68.06 163.244 68.59 163.094 69.05C162.944 69.5 162.729 69.88 162.449 70.19C162.179 70.5 161.854 70.735 161.474 70.895C161.094 71.045 160.674 71.12 160.214 71.12C159.714 71.12 159.274 71.03 158.894 70.85C158.514 70.67 158.149 70.37 157.799 69.95H157.769L157.619 71H156.569V60.5ZM159.914 69.89C160.524 69.89 161.009 69.695 161.369 69.305C161.729 68.905 161.909 68.29 161.909 67.46V67.04C161.909 66.23 161.724 65.625 161.354 65.225C160.994 64.815 160.514 64.61 159.914 64.61C159.304 64.61 158.819 64.81 158.459 65.21C158.099 65.6 157.919 66.21 157.919 67.04V67.46C157.919 68.27 158.099 68.88 158.459 69.29C158.829 69.69 159.314 69.89 159.914 69.89ZM165.244 63.5H166.594V71H165.244V63.5ZM165.919 62.375C165.659 62.375 165.444 62.29 165.274 62.12C165.104 61.95 165.019 61.735 165.019 61.475C165.019 61.215 165.104 61 165.274 60.83C165.444 60.66 165.659 60.575 165.919 60.575C166.179 60.575 166.394 60.66 166.564 60.83C166.734 61 166.819 61.215 166.819 61.475C166.819 61.735 166.734 61.95 166.564 62.12C166.394 62.29 166.179 62.375 165.919 62.375ZM171.617 71C171.067 71 170.642 70.905 170.342 70.715C170.052 70.525 169.837 70.305 169.697 70.055C169.557 69.805 169.472 69.56 169.442 69.32C169.422 69.07 169.412 68.895 169.412 68.795V64.73H168.062V63.5H169.412V61.4H170.762V63.5H172.712V64.73H170.762V68.645C170.762 69.395 171.112 69.77 171.812 69.77H172.862V71H171.617ZM177.217 71.12C176.207 71.12 175.402 70.805 174.802 70.175C174.212 69.545 173.917 68.615 173.917 67.385V66.965C173.917 66.395 173.997 65.89 174.157 65.45C174.317 65.01 174.537 64.635 174.817 64.325C175.107 64.015 175.452 63.78 175.852 63.62C176.262 63.46 176.717 63.38 177.217 63.38C177.687 63.38 178.102 63.445 178.462 63.575C178.832 63.695 179.147 63.86 179.407 64.07C179.667 64.28 179.877 64.53 180.037 64.82C180.197 65.11 180.307 65.42 180.367 65.75H178.957C178.847 65.43 178.657 65.16 178.387 64.94C178.127 64.72 177.762 64.61 177.292 64.61C176.692 64.61 176.212 64.805 175.852 65.195C175.502 65.575 175.327 66.165 175.327 66.965V67.385C175.327 68.255 175.502 68.89 175.852 69.29C176.212 69.69 176.692 69.89 177.292 69.89C177.762 69.89 178.127 69.775 178.387 69.545C178.657 69.305 178.847 68.99 178.957 68.6H180.367C180.307 68.97 180.197 69.31 180.037 69.62C179.877 69.92 179.667 70.185 179.407 70.415C179.147 70.635 178.832 70.81 178.462 70.94C178.102 71.06 177.687 71.12 177.217 71.12ZM184.94 71.12C183.87 71.12 183.025 70.805 182.405 70.175C181.795 69.545 181.49 68.64 181.49 67.46V67.04C181.49 65.87 181.8 64.97 182.42 64.34C183.04 63.7 183.88 63.38 184.94 63.38C186.01 63.38 186.85 63.695 187.46 64.325C188.08 64.955 188.39 65.86 188.39 67.04V67.46C188.39 68.63 188.08 69.535 187.46 70.175C186.84 70.805 186 71.12 184.94 71.12ZM184.94 69.89C185.57 69.89 186.065 69.695 186.425 69.305C186.795 68.905 186.98 68.29 186.98 67.46V67.04C186.98 66.22 186.795 65.61 186.425 65.21C186.065 64.81 185.57 64.61 184.94 64.61C184.31 64.61 183.81 64.81 183.44 65.21C183.08 65.6 182.9 66.21 182.9 67.04V67.46C182.9 68.28 183.08 68.89 183.44 69.29C183.81 69.69 184.31 69.89 184.94 69.89ZM192.767 71.12C191.867 71.12 191.137 70.815 190.577 70.205C190.017 69.595 189.737 68.68 189.737 67.46V67.04C189.737 66.44 189.812 65.915 189.962 65.465C190.112 65.005 190.322 64.62 190.592 64.31C190.862 64 191.182 63.77 191.552 63.62C191.922 63.46 192.327 63.38 192.767 63.38C193.737 63.38 194.517 63.72 195.107 64.4H195.137V60.5H196.487V71H195.437C195.427 70.95 195.412 70.875 195.392 70.775C195.382 70.675 195.367 70.575 195.347 70.475C195.337 70.365 195.327 70.265 195.317 70.175C195.307 70.075 195.297 70 195.287 69.95H195.257C194.687 70.73 193.857 71.12 192.767 71.12ZM193.142 69.89C193.752 69.89 194.237 69.695 194.597 69.305C194.957 68.905 195.137 68.29 195.137 67.46V67.04C195.137 66.23 194.952 65.625 194.582 65.225C194.222 64.815 193.742 64.61 193.142 64.61C192.532 64.61 192.047 64.81 191.687 65.21C191.327 65.6 191.147 66.21 191.147 67.04V67.46C191.147 68.27 191.327 68.88 191.687 69.29C192.057 69.69 192.542 69.89 193.142 69.89ZM201.742 71.12C201.212 71.12 200.732 71.04 200.302 70.88C199.882 70.71 199.522 70.47 199.222 70.16C198.922 69.84 198.692 69.455 198.532 69.005C198.372 68.555 198.292 68.04 198.292 67.46V67.04C198.292 66.46 198.372 65.945 198.532 65.495C198.692 65.035 198.917 64.65 199.207 64.34C199.507 64.03 199.862 63.795 200.272 63.635C200.692 63.465 201.157 63.38 201.667 63.38C202.177 63.38 202.637 63.465 203.047 63.635C203.467 63.795 203.822 64.035 204.112 64.355C204.412 64.675 204.642 65.065 204.802 65.525C204.962 65.985 205.042 66.515 205.042 67.115V67.655H199.702C199.722 68.365 199.902 68.915 200.242 69.305C200.592 69.695 201.067 69.89 201.667 69.89C202.147 69.89 202.542 69.8 202.852 69.62C203.162 69.44 203.397 69.15 203.557 68.75H204.967C204.787 69.53 204.417 70.12 203.857 70.52C203.307 70.92 202.602 71.12 201.742 71.12ZM201.667 64.61C201.097 64.61 200.647 64.775 200.317 65.105C199.987 65.435 199.787 65.915 199.717 66.545H203.632C203.512 65.255 202.857 64.61 201.667 64.61ZM28.3149 90C27.7749 90 27.3549 89.905 27.0549 89.715C26.7549 89.525 26.5349 89.305 26.3949 89.055C26.2649 88.805 26.1849 88.56 26.1549 88.32C26.1349 88.08 26.1249 87.905 26.1249 87.795V79.5H27.4749V87.645C27.4749 88.395 27.8199 88.77 28.5099 88.77H28.9749V90H28.3149ZM33.4755 90.12C32.9455 90.12 32.4655 90.04 32.0355 89.88C31.6155 89.71 31.2555 89.47 30.9555 89.16C30.6555 88.84 30.4255 88.455 30.2655 88.005C30.1055 87.555 30.0255 87.04 30.0255 86.46V86.04C30.0255 85.46 30.1055 84.945 30.2655 84.495C30.4255 84.035 30.6505 83.65 30.9405 83.34C31.2405 83.03 31.5955 82.795 32.0055 82.635C32.4255 82.465 32.8905 82.38 33.4005 82.38C33.9105 82.38 34.3705 82.465 34.7805 82.635C35.2005 82.795 35.5555 83.035 35.8455 83.355C36.1455 83.675 36.3755 84.065 36.5355 84.525C36.6955 84.985 36.7755 85.515 36.7755 86.115V86.655H31.4355C31.4555 87.365 31.6355 87.915 31.9755 88.305C32.3255 88.695 32.8005 88.89 33.4005 88.89C33.8805 88.89 34.2755 88.8 34.5855 88.62C34.8955 88.44 35.1305 88.15 35.2905 87.75H36.7005C36.5205 88.53 36.1505 89.12 35.5905 89.52C35.0405 89.92 34.3355 90.12 33.4755 90.12ZM33.4005 83.61C32.8305 83.61 32.3805 83.775 32.0505 84.105C31.7205 84.435 31.5205 84.915 31.4505 85.545H35.3655C35.2455 84.255 34.5905 83.61 33.4005 83.61ZM37.4563 82.5H38.9263L41.1463 88.5H41.1763L43.2763 82.5H44.6563L41.9263 90H40.3363L37.4563 82.5ZM48.7831 90.12C48.2531 90.12 47.7731 90.04 47.3431 89.88C46.9231 89.71 46.5631 89.47 46.2631 89.16C45.9631 88.84 45.7331 88.455 45.5731 88.005C45.4131 87.555 45.3331 87.04 45.3331 86.46V86.04C45.3331 85.46 45.4131 84.945 45.5731 84.495C45.7331 84.035 45.9581 83.65 46.2481 83.34C46.5481 83.03 46.9031 82.795 47.3131 82.635C47.7331 82.465 48.1981 82.38 48.7081 82.38C49.2181 82.38 49.6781 82.465 50.0881 82.635C50.5081 82.795 50.8631 83.035 51.1531 83.355C51.4531 83.675 51.6831 84.065 51.8431 84.525C52.0031 84.985 52.0831 85.515 52.0831 86.115V86.655H46.7431C46.7631 87.365 46.9431 87.915 47.2831 88.305C47.6331 88.695 48.1081 88.89 48.7081 88.89C49.1881 88.89 49.5831 88.8 49.8931 88.62C50.2031 88.44 50.4381 88.15 50.5981 87.75H52.0081C51.8281 88.53 51.4581 89.12 50.8981 89.52C50.3481 89.92 49.6431 90.12 48.7831 90.12ZM48.7081 83.61C48.1381 83.61 47.6881 83.775 47.3581 84.105C47.0281 84.435 46.8281 84.915 46.7581 85.545H50.6731C50.5531 84.255 49.8981 83.61 48.7081 83.61ZM56.0737 90C55.5337 90 55.1137 89.905 54.8137 89.715C54.5137 89.525 54.2937 89.305 54.1537 89.055C54.0237 88.805 53.9437 88.56 53.9137 88.32C53.8937 88.08 53.8837 87.905 53.8837 87.795V79.5H55.2337V87.645C55.2337 88.395 55.5787 88.77 56.2687 88.77H56.7337V90H56.0737ZM60.1063 90.12C59.8063 90.12 59.5613 90.025 59.3713 89.835C59.1913 89.645 59.1013 89.405 59.1013 89.115C59.1013 88.825 59.1913 88.585 59.3713 88.395C59.5613 88.205 59.8063 88.11 60.1063 88.11C60.4063 88.11 60.6463 88.205 60.8263 88.395C61.0163 88.585 61.1113 88.825 61.1113 89.115C61.1113 89.405 61.0163 89.645 60.8263 89.835C60.6463 90.025 60.4063 90.12 60.1063 90.12ZM67.3034 79.5H68.7134V88.71H73.5284V90H67.3034V79.5ZM77.8016 90.12C77.2716 90.12 76.7916 90.04 76.3616 89.88C75.9416 89.71 75.5816 89.47 75.2816 89.16C74.9816 88.84 74.7516 88.455 74.5916 88.005C74.4316 87.555 74.3516 87.04 74.3516 86.46V86.04C74.3516 85.46 74.4316 84.945 74.5916 84.495C74.7516 84.035 74.9766 83.65 75.2666 83.34C75.5666 83.03 75.9216 82.795 76.3316 82.635C76.7516 82.465 77.2166 82.38 77.7266 82.38C78.2366 82.38 78.6966 82.465 79.1066 82.635C79.5266 82.795 79.8816 83.035 80.1716 83.355C80.4716 83.675 80.7016 84.065 80.8616 84.525C81.0216 84.985 81.1016 85.515 81.1016 86.115V86.655H75.7616C75.7816 87.365 75.9616 87.915 76.3016 88.305C76.6516 88.695 77.1266 88.89 77.7266 88.89C78.2066 88.89 78.6016 88.8 78.9116 88.62C79.2216 88.44 79.4566 88.15 79.6166 87.75H81.0266C80.8466 88.53 80.4766 89.12 79.9166 89.52C79.3666 89.92 78.6616 90.12 77.8016 90.12ZM77.7266 83.61C77.1566 83.61 76.7066 83.775 76.3766 84.105C76.0466 84.435 75.8466 84.915 75.7766 85.545H79.6916C79.5716 84.255 78.9166 83.61 77.7266 83.61ZM84.9272 90.12C84.0772 90.12 83.4372 89.92 83.0072 89.52C82.5872 89.12 82.3772 88.575 82.3772 87.885C82.3772 87.135 82.6272 86.545 83.1272 86.115C83.6372 85.675 84.4622 85.455 85.6022 85.455H87.3272V85.05C87.3272 84.56 87.1972 84.2 86.9372 83.97C86.6872 83.73 86.2672 83.61 85.6772 83.61C85.1372 83.61 84.7422 83.705 84.4922 83.895C84.2422 84.075 84.0972 84.31 84.0572 84.6H82.6772C82.6972 84.29 82.7722 84 82.9022 83.73C83.0422 83.46 83.2372 83.225 83.4872 83.025C83.7372 82.825 84.0422 82.67 84.4022 82.56C84.7722 82.44 85.1972 82.38 85.6772 82.38C86.7072 82.38 87.4622 82.61 87.9422 83.07C88.4322 83.53 88.6772 84.215 88.6772 85.125V90H87.6272L87.4622 88.875H87.4322C86.8222 89.705 85.9872 90.12 84.9272 90.12ZM85.0772 88.89C85.3872 88.89 85.6772 88.84 85.9472 88.74C86.2272 88.63 86.4672 88.485 86.6672 88.305C86.8772 88.115 87.0372 87.9 87.1472 87.66C87.2672 87.41 87.3272 87.145 87.3272 86.865V86.595H85.6772C84.9772 86.595 84.4872 86.715 84.2072 86.955C83.9272 87.185 83.7872 87.49 83.7872 87.87C83.7872 88.17 83.8922 88.415 84.1022 88.605C84.3222 88.795 84.6472 88.89 85.0772 88.89ZM90.8563 82.5H91.9063L92.0563 83.55H92.0863C92.3763 83.13 92.7063 82.83 93.0763 82.65C93.4463 82.47 93.8963 82.38 94.4263 82.38H95.1313V83.61H94.3063C93.6263 83.61 93.1063 83.785 92.7463 84.135C92.3863 84.485 92.2063 84.965 92.2063 85.575V90H90.8563V82.5ZM96.4813 82.5H97.5313L97.6663 83.475H97.6963C98.0163 83.095 98.3613 82.82 98.7313 82.65C99.1113 82.47 99.5513 82.38 100.051 82.38C100.951 82.38 101.656 82.645 102.166 83.175C102.676 83.705 102.931 84.48 102.931 85.5V90H101.581V85.575C101.581 84.905 101.426 84.41 101.116 84.09C100.816 83.77 100.371 83.61 99.7813 83.61C99.1913 83.61 98.7163 83.79 98.3563 84.15C98.0063 84.5 97.8313 84.975 97.8313 85.575V90H96.4813V82.5ZM108.859 82.5H109.909L110.059 83.55H110.089C110.659 82.77 111.399 82.38 112.309 82.38C112.819 82.38 113.274 82.495 113.674 82.725C114.074 82.955 114.389 83.295 114.619 83.745C114.879 83.315 115.224 82.98 115.654 82.74C116.084 82.5 116.569 82.38 117.109 82.38C117.499 82.38 117.859 82.45 118.189 82.59C118.519 82.73 118.804 82.935 119.044 83.205C119.284 83.475 119.469 83.81 119.599 84.21C119.739 84.6 119.809 85.055 119.809 85.575V90H118.459V85.575C118.459 84.905 118.309 84.41 118.009 84.09C117.719 83.77 117.319 83.61 116.809 83.61C116.549 83.61 116.309 83.66 116.089 83.76C115.879 83.85 115.689 83.98 115.519 84.15C115.359 84.32 115.234 84.525 115.144 84.765C115.054 85.005 115.009 85.275 115.009 85.575V90H113.659V85.575C113.659 84.905 113.509 84.41 113.209 84.09C112.919 83.77 112.519 83.61 112.009 83.61C111.499 83.61 111.069 83.785 110.719 84.135C110.379 84.485 110.209 84.965 110.209 85.575V90H108.859V82.5ZM124.984 90.12C123.914 90.12 123.069 89.805 122.449 89.175C121.839 88.545 121.534 87.64 121.534 86.46V86.04C121.534 84.87 121.844 83.97 122.464 83.34C123.084 82.7 123.924 82.38 124.984 82.38C126.054 82.38 126.894 82.695 127.504 83.325C128.124 83.955 128.434 84.86 128.434 86.04V86.46C128.434 87.63 128.124 88.535 127.504 89.175C126.884 89.805 126.044 90.12 124.984 90.12ZM124.984 88.89C125.614 88.89 126.109 88.695 126.469 88.305C126.839 87.905 127.024 87.29 127.024 86.46V86.04C127.024 85.22 126.839 84.61 126.469 84.21C126.109 83.81 125.614 83.61 124.984 83.61C124.354 83.61 123.854 83.81 123.484 84.21C123.124 84.6 122.944 85.21 122.944 86.04V86.46C122.944 87.28 123.124 87.89 123.484 88.29C123.854 88.69 124.354 88.89 124.984 88.89ZM130.231 82.5H131.281L131.431 83.55H131.461C131.751 83.13 132.081 82.83 132.451 82.65C132.821 82.47 133.271 82.38 133.801 82.38H134.506V83.61H133.681C133.001 83.61 132.481 83.785 132.121 84.135C131.761 84.485 131.581 84.965 131.581 85.575V90H130.231V82.5ZM138.71 90.12C138.18 90.12 137.7 90.04 137.27 89.88C136.85 89.71 136.49 89.47 136.19 89.16C135.89 88.84 135.66 88.455 135.5 88.005C135.34 87.555 135.26 87.04 135.26 86.46V86.04C135.26 85.46 135.34 84.945 135.5 84.495C135.66 84.035 135.885 83.65 136.175 83.34C136.475 83.03 136.83 82.795 137.24 82.635C137.66 82.465 138.125 82.38 138.635 82.38C139.145 82.38 139.605 82.465 140.015 82.635C140.435 82.795 140.79 83.035 141.08 83.355C141.38 83.675 141.61 84.065 141.77 84.525C141.93 84.985 142.01 85.515 142.01 86.115V86.655H136.67C136.69 87.365 136.87 87.915 137.21 88.305C137.56 88.695 138.035 88.89 138.635 88.89C139.115 88.89 139.51 88.8 139.82 88.62C140.13 88.44 140.365 88.15 140.525 87.75H141.935C141.755 88.53 141.385 89.12 140.825 89.52C140.275 89.92 139.57 90.12 138.71 90.12ZM138.635 83.61C138.065 83.61 137.615 83.775 137.285 84.105C136.955 84.435 136.755 84.915 136.685 85.545H140.6C140.48 84.255 139.825 83.61 138.635 83.61ZM149.585 90.12C148.735 90.12 148.095 89.92 147.665 89.52C147.245 89.12 147.035 88.575 147.035 87.885C147.035 87.135 147.285 86.545 147.785 86.115C148.295 85.675 149.12 85.455 150.26 85.455H151.985V85.05C151.985 84.56 151.855 84.2 151.595 83.97C151.345 83.73 150.925 83.61 150.335 83.61C149.795 83.61 149.4 83.705 149.15 83.895C148.9 84.075 148.755 84.31 148.715 84.6H147.335C147.355 84.29 147.43 84 147.56 83.73C147.7 83.46 147.895 83.225 148.145 83.025C148.395 82.825 148.7 82.67 149.06 82.56C149.43 82.44 149.855 82.38 150.335 82.38C151.365 82.38 152.12 82.61 152.6 83.07C153.09 83.53 153.335 84.215 153.335 85.125V90H152.285L152.12 88.875H152.09C151.48 89.705 150.645 90.12 149.585 90.12ZM149.735 88.89C150.045 88.89 150.335 88.84 150.605 88.74C150.885 88.63 151.125 88.485 151.325 88.305C151.535 88.115 151.695 87.9 151.805 87.66C151.925 87.41 151.985 87.145 151.985 86.865V86.595H150.335C149.635 86.595 149.145 86.715 148.865 86.955C148.585 87.185 148.445 87.49 148.445 87.87C148.445 88.17 148.55 88.415 148.76 88.605C148.98 88.795 149.305 88.89 149.735 88.89ZM155.515 79.5H156.865V83.4H156.895C157.215 83.04 157.555 82.78 157.915 82.62C158.285 82.46 158.725 82.38 159.235 82.38C159.685 82.38 160.095 82.46 160.465 82.62C160.835 82.77 161.155 83 161.425 83.31C161.695 83.61 161.9 83.99 162.04 84.45C162.19 84.9 162.265 85.43 162.265 86.04V86.46C162.265 87.06 162.19 87.59 162.04 88.05C161.89 88.5 161.675 88.88 161.395 89.19C161.125 89.5 160.8 89.735 160.42 89.895C160.04 90.045 159.62 90.12 159.16 90.12C158.66 90.12 158.22 90.03 157.84 89.85C157.46 89.67 157.095 89.37 156.745 88.95H156.715L156.565 90H155.515V79.5ZM158.86 88.89C159.47 88.89 159.955 88.695 160.315 88.305C160.675 87.905 160.855 87.29 160.855 86.46V86.04C160.855 85.23 160.67 84.625 160.3 84.225C159.94 83.815 159.46 83.61 158.86 83.61C158.25 83.61 157.765 83.81 157.405 84.21C157.045 84.6 156.865 85.21 156.865 86.04V86.46C156.865 87.27 157.045 87.88 157.405 88.29C157.775 88.69 158.26 88.89 158.86 88.89ZM167.069 90.12C165.999 90.12 165.154 89.805 164.534 89.175C163.924 88.545 163.619 87.64 163.619 86.46V86.04C163.619 84.87 163.929 83.97 164.549 83.34C165.169 82.7 166.009 82.38 167.069 82.38C168.139 82.38 168.979 82.695 169.589 83.325C170.209 83.955 170.519 84.86 170.519 86.04V86.46C170.519 87.63 170.209 88.535 169.589 89.175C168.969 89.805 168.129 90.12 167.069 90.12ZM167.069 88.89C167.699 88.89 168.194 88.695 168.554 88.305C168.924 87.905 169.109 87.29 169.109 86.46V86.04C169.109 85.22 168.924 84.61 168.554 84.21C168.194 83.81 167.699 83.61 167.069 83.61C166.439 83.61 165.939 83.81 165.569 84.21C165.209 84.6 165.029 85.21 165.029 86.04V86.46C165.029 87.28 165.209 87.89 165.569 88.29C165.939 88.69 166.439 88.89 167.069 88.89ZM174.971 90.12C174.151 90.12 173.491 89.855 172.991 89.325C172.491 88.795 172.241 88.02 172.241 87V82.5H173.591V86.925C173.591 87.595 173.736 88.09 174.026 88.41C174.326 88.73 174.731 88.89 175.241 88.89C175.831 88.89 176.301 88.715 176.651 88.365C177.011 88.005 177.191 87.525 177.191 86.925V82.5H178.541V90H177.491L177.356 89.025H177.326C177.026 89.405 176.686 89.685 176.306 89.865C175.926 90.035 175.481 90.12 174.971 90.12ZM183.453 90C182.903 90 182.478 89.905 182.178 89.715C181.888 89.525 181.673 89.305 181.533 89.055C181.393 88.805 181.308 88.56 181.278 88.32C181.258 88.07 181.248 87.895 181.248 87.795V83.73H179.898V82.5H181.248V80.4H182.598V82.5H184.548V83.73H182.598V87.645C182.598 88.395 182.948 88.77 183.648 88.77H184.698V90H183.453ZM192.473 80.79H189.128V79.5H197.228V80.79H193.883V90H192.473V80.79ZM202.034 90.12C200.754 90.12 199.789 89.82 199.139 89.22C198.499 88.62 198.139 87.78 198.059 86.7H199.559C199.639 87.41 199.869 87.945 200.249 88.305C200.629 88.655 201.224 88.83 202.034 88.83C202.804 88.83 203.364 88.68 203.714 88.38C204.064 88.07 204.239 87.67 204.239 87.18C204.239 86.86 204.149 86.6 203.969 86.4C203.799 86.19 203.574 86.02 203.294 85.89C203.014 85.75 202.694 85.63 202.334 85.53C201.974 85.43 201.604 85.33 201.224 85.23C200.844 85.12 200.474 84.995 200.114 84.855C199.754 84.715 199.434 84.535 199.154 84.315C198.874 84.085 198.644 83.805 198.464 83.475C198.294 83.135 198.209 82.72 198.209 82.23C198.209 81.83 198.284 81.455 198.434 81.105C198.594 80.755 198.824 80.455 199.124 80.205C199.424 79.945 199.799 79.745 200.249 79.605C200.699 79.455 201.219 79.38 201.809 79.38C203.049 79.38 203.974 79.67 204.584 80.25C205.204 80.82 205.554 81.62 205.634 82.65H204.134C204.094 82.31 204.024 82.015 203.924 81.765C203.824 81.515 203.684 81.31 203.504 81.15C203.324 80.98 203.094 80.86 202.814 80.79C202.534 80.71 202.199 80.67 201.809 80.67C201.059 80.67 200.514 80.82 200.174 81.12C199.844 81.41 199.679 81.78 199.679 82.23C199.679 82.56 199.764 82.83 199.934 83.04C200.114 83.25 200.344 83.425 200.624 83.565C200.904 83.705 201.224 83.825 201.584 83.925C201.944 84.015 202.314 84.11 202.694 84.21C203.074 84.31 203.444 84.43 203.804 84.57C204.164 84.7 204.484 84.88 204.764 85.11C205.044 85.33 205.269 85.61 205.439 85.95C205.619 86.28 205.709 86.695 205.709 87.195C205.709 87.625 205.634 88.02 205.484 88.38C205.334 88.74 205.104 89.05 204.794 89.31C204.494 89.56 204.114 89.76 203.654 89.91C203.194 90.05 202.654 90.12 202.034 90.12ZM210.37 79.5H212.02L215.845 90H214.315L213.325 87.12H208.99L207.985 90H206.545L210.37 79.5ZM212.875 85.83L211.195 80.925H211.165L209.44 85.83H212.875ZM28.9749 109.12C27.9649 109.12 27.1599 108.805 26.5599 108.175C25.9699 107.545 25.6749 106.615 25.6749 105.385V104.965C25.6749 104.395 25.7549 103.89 25.9149 103.45C26.0749 103.01 26.2949 102.635 26.5749 102.325C26.8649 102.015 27.2099 101.78 27.6099 101.62C28.0199 101.46 28.4749 101.38 28.9749 101.38C29.4449 101.38 29.8599 101.445 30.2199 101.575C30.5899 101.695 30.9049 101.86 31.1649 102.07C31.4249 102.28 31.6349 102.53 31.7949 102.82C31.9549 103.11 32.0649 103.42 32.1249 103.75H30.7149C30.6049 103.43 30.4149 103.16 30.1449 102.94C29.8849 102.72 29.5199 102.61 29.0499 102.61C28.4499 102.61 27.9699 102.805 27.6099 103.195C27.2599 103.575 27.0849 104.165 27.0849 104.965V105.385C27.0849 106.255 27.2599 106.89 27.6099 107.29C27.9699 107.69 28.4499 107.89 29.0499 107.89C29.5199 107.89 29.8849 107.775 30.1449 107.545C30.4149 107.305 30.6049 106.99 30.7149 106.6H32.1249C32.0649 106.97 31.9549 107.31 31.7949 107.62C31.6349 107.92 31.4249 108.185 31.1649 108.415C30.9049 108.635 30.5899 108.81 30.2199 108.94C29.8599 109.06 29.4449 109.12 28.9749 109.12ZM36.6981 109.12C35.6281 109.12 34.7831 108.805 34.1631 108.175C33.5531 107.545 33.2481 106.64 33.2481 105.46V105.04C33.2481 103.87 33.5581 102.97 34.1781 102.34C34.7981 101.7 35.6381 101.38 36.6981 101.38C37.7681 101.38 38.6081 101.695 39.2181 102.325C39.8381 102.955 40.1481 103.86 40.1481 105.04V105.46C40.1481 106.63 39.8381 107.535 39.2181 108.175C38.5981 108.805 37.7581 109.12 36.6981 109.12ZM36.6981 107.89C37.3281 107.89 37.8231 107.695 38.1831 107.305C38.5531 106.905 38.7381 106.29 38.7381 105.46V105.04C38.7381 104.22 38.5531 103.61 38.1831 103.21C37.8231 102.81 37.3281 102.61 36.6981 102.61C36.0681 102.61 35.5681 102.81 35.1981 103.21C34.8381 103.6 34.6581 104.21 34.6581 105.04V105.46C34.6581 106.28 34.8381 106.89 35.1981 107.29C35.5681 107.69 36.0681 107.89 36.6981 107.89ZM41.9452 101.5H42.9952L43.1452 102.55H43.1752C43.4652 102.13 43.7952 101.83 44.1652 101.65C44.5352 101.47 44.9852 101.38 45.5152 101.38H46.2202V102.61H45.3952C44.7152 102.61 44.1952 102.785 43.8352 103.135C43.4752 103.485 43.2952 103.965 43.2952 104.575V109H41.9452V101.5ZM50.4237 109.12C49.8937 109.12 49.4137 109.04 48.9837 108.88C48.5637 108.71 48.2037 108.47 47.9037 108.16C47.6037 107.84 47.3737 107.455 47.2137 107.005C47.0537 106.555 46.9737 106.04 46.9737 105.46V105.04C46.9737 104.46 47.0537 103.945 47.2137 103.495C47.3737 103.035 47.5987 102.65 47.8887 102.34C48.1887 102.03 48.5437 101.795 48.9537 101.635C49.3737 101.465 49.8387 101.38 50.3487 101.38C50.8587 101.38 51.3187 101.465 51.7287 101.635C52.1487 101.795 52.5037 102.035 52.7937 102.355C53.0937 102.675 53.3237 103.065 53.4837 103.525C53.6437 103.985 53.7237 104.515 53.7237 105.115V105.655H48.3837C48.4037 106.365 48.5837 106.915 48.9237 107.305C49.2737 107.695 49.7487 107.89 50.3487 107.89C50.8287 107.89 51.2237 107.8 51.5337 107.62C51.8437 107.44 52.0787 107.15 52.2387 106.75H53.6487C53.4687 107.53 53.0987 108.12 52.5387 108.52C51.9887 108.92 51.2837 109.12 50.4237 109.12ZM50.3487 102.61C49.7787 102.61 49.3287 102.775 48.9987 103.105C48.6687 103.435 48.4687 103.915 48.3987 104.545H52.3137C52.1937 103.255 51.5387 102.61 50.3487 102.61ZM59.2743 101.5H60.3243L60.4743 102.55H60.5043C61.0743 101.77 61.8143 101.38 62.7243 101.38C63.2343 101.38 63.6893 101.495 64.0893 101.725C64.4893 101.955 64.8043 102.295 65.0343 102.745C65.2943 102.315 65.6393 101.98 66.0693 101.74C66.4993 101.5 66.9843 101.38 67.5243 101.38C67.9143 101.38 68.2743 101.45 68.6043 101.59C68.9343 101.73 69.2193 101.935 69.4593 102.205C69.6993 102.475 69.8843 102.81 70.0143 103.21C70.1543 103.6 70.2243 104.055 70.2243 104.575V109H68.8743V104.575C68.8743 103.905 68.7243 103.41 68.4243 103.09C68.1343 102.77 67.7343 102.61 67.2243 102.61C66.9643 102.61 66.7243 102.66 66.5043 102.76C66.2943 102.85 66.1043 102.98 65.9343 103.15C65.7743 103.32 65.6493 103.525 65.5593 103.765C65.4693 104.005 65.4243 104.275 65.4243 104.575V109H64.0743V104.575C64.0743 103.905 63.9243 103.41 63.6243 103.09C63.3343 102.77 62.9343 102.61 62.4243 102.61C61.9143 102.61 61.4843 102.785 61.1343 103.135C60.7943 103.485 60.6243 103.965 60.6243 104.575V109H59.2743V101.5ZM75.3993 109.12C74.8693 109.12 74.3893 109.04 73.9593 108.88C73.5393 108.71 73.1793 108.47 72.8793 108.16C72.5793 107.84 72.3493 107.455 72.1893 107.005C72.0293 106.555 71.9493 106.04 71.9493 105.46V105.04C71.9493 104.46 72.0293 103.945 72.1893 103.495C72.3493 103.035 72.5743 102.65 72.8643 102.34C73.1643 102.03 73.5193 101.795 73.9293 101.635C74.3493 101.465 74.8143 101.38 75.3243 101.38C75.8343 101.38 76.2943 101.465 76.7043 101.635C77.1243 101.795 77.4793 102.035 77.7693 102.355C78.0693 102.675 78.2993 103.065 78.4593 103.525C78.6193 103.985 78.6993 104.515 78.6993 105.115V105.655H73.3593C73.3793 106.365 73.5593 106.915 73.8993 107.305C74.2493 107.695 74.7243 107.89 75.3243 107.89C75.8043 107.89 76.1993 107.8 76.5093 107.62C76.8193 107.44 77.0543 107.15 77.2143 106.75H78.6243C78.4443 107.53 78.0743 108.12 77.5143 108.52C76.9643 108.92 76.2593 109.12 75.3993 109.12ZM75.3243 102.61C74.7543 102.61 74.3043 102.775 73.9743 103.105C73.6443 103.435 73.4443 103.915 73.3743 104.545H77.2893C77.1693 103.255 76.5143 102.61 75.3243 102.61ZM83.3499 109.12C82.3399 109.12 81.5349 108.805 80.9349 108.175C80.3449 107.545 80.0499 106.615 80.0499 105.385V104.965C80.0499 104.395 80.1299 103.89 80.2899 103.45C80.4499 103.01 80.6699 102.635 80.9499 102.325C81.2399 102.015 81.5849 101.78 81.9849 101.62C82.3949 101.46 82.8499 101.38 83.3499 101.38C83.8199 101.38 84.2349 101.445 84.5949 101.575C84.9649 101.695 85.2799 101.86 85.5399 102.07C85.7999 102.28 86.0099 102.53 86.1699 102.82C86.3299 103.11 86.4399 103.42 86.4999 103.75H85.0899C84.9799 103.43 84.7899 103.16 84.5199 102.94C84.2599 102.72 83.8949 102.61 83.4249 102.61C82.8249 102.61 82.3449 102.805 81.9849 103.195C81.6349 103.575 81.4599 104.165 81.4599 104.965V105.385C81.4599 106.255 81.6349 106.89 81.9849 107.29C82.3449 107.69 82.8249 107.89 83.4249 107.89C83.8949 107.89 84.2599 107.775 84.5199 107.545C84.7899 107.305 84.9799 106.99 85.0899 106.6H86.4999C86.4399 106.97 86.3299 107.31 86.1699 107.62C86.0099 107.92 85.7999 108.185 85.5399 108.415C85.2799 108.635 84.9649 108.81 84.5949 108.94C84.2349 109.06 83.8199 109.12 83.3499 109.12ZM88.0731 98.5H89.4231V102.4H89.4531C90.0231 101.72 90.7531 101.38 91.6431 101.38C92.5431 101.38 93.2481 101.645 93.7581 102.175C94.2681 102.705 94.5231 103.48 94.5231 104.5V109H93.1731V104.575C93.1731 103.905 93.0181 103.41 92.7081 103.09C92.4081 102.77 91.9631 102.61 91.3731 102.61C90.7831 102.61 90.3081 102.79 89.9481 103.15C89.5981 103.5 89.4231 103.975 89.4231 104.575V109H88.0731V98.5ZM98.726 109.12C97.876 109.12 97.236 108.92 96.806 108.52C96.386 108.12 96.176 107.575 96.176 106.885C96.176 106.135 96.426 105.545 96.926 105.115C97.436 104.675 98.261 104.455 99.4011 104.455H101.126V104.05C101.126 103.56 100.996 103.2 100.736 102.97C100.486 102.73 100.066 102.61 99.4761 102.61C98.9361 102.61 98.5411 102.705 98.291 102.895C98.041 103.075 97.896 103.31 97.856 103.6H96.476C96.496 103.29 96.571 103 96.701 102.73C96.841 102.46 97.036 102.225 97.286 102.025C97.536 101.825 97.841 101.67 98.201 101.56C98.571 101.44 98.9961 101.38 99.4761 101.38C100.506 101.38 101.261 101.61 101.741 102.07C102.231 102.53 102.476 103.215 102.476 104.125V109H101.426L101.261 107.875H101.231C100.621 108.705 99.786 109.12 98.726 109.12ZM98.8761 107.89C99.1861 107.89 99.4761 107.84 99.7461 107.74C100.026 107.63 100.266 107.485 100.466 107.305C100.676 107.115 100.836 106.9 100.946 106.66C101.066 106.41 101.126 106.145 101.126 105.865V105.595H99.4761C98.7761 105.595 98.286 105.715 98.006 105.955C97.726 106.185 97.586 106.49 97.586 106.87C97.586 107.17 97.691 107.415 97.901 107.605C98.121 107.795 98.446 107.89 98.8761 107.89ZM104.655 101.5H105.705L105.84 102.475H105.87C106.19 102.095 106.535 101.82 106.905 101.65C107.285 101.47 107.725 101.38 108.225 101.38C109.125 101.38 109.83 101.645 110.34 102.175C110.85 102.705 111.105 103.48 111.105 104.5V109H109.755V104.575C109.755 103.905 109.6 103.41 109.29 103.09C108.99 102.77 108.545 102.61 107.955 102.61C107.365 102.61 106.89 102.79 106.53 103.15C106.18 103.5 106.005 103.975 106.005 104.575V109H104.655V101.5ZM113.403 101.5H114.753V109H113.403V101.5ZM114.078 100.375C113.818 100.375 113.603 100.29 113.433 100.12C113.263 99.95 113.178 99.735 113.178 99.475C113.178 99.215 113.263 99 113.433 98.83C113.603 98.66 113.818 98.575 114.078 98.575C114.338 98.575 114.553 98.66 114.723 98.83C114.893 99 114.978 99.215 114.978 99.475C114.978 99.735 114.893 99.95 114.723 100.12C114.553 100.29 114.338 100.375 114.078 100.375ZM119.821 109.12C118.781 109.12 118.011 108.91 117.511 108.49C117.021 108.06 116.741 107.48 116.671 106.75H118.081C118.161 107.11 118.316 107.39 118.546 107.59C118.786 107.79 119.186 107.89 119.746 107.89C120.316 107.89 120.711 107.805 120.931 107.635C121.151 107.455 121.261 107.225 121.261 106.945C121.261 106.655 121.151 106.435 120.931 106.285C120.711 106.125 120.436 105.995 120.106 105.895C119.776 105.795 119.421 105.7 119.041 105.61C118.661 105.52 118.306 105.395 117.976 105.235C117.646 105.075 117.371 104.86 117.151 104.59C116.931 104.32 116.821 103.95 116.821 103.48C116.821 103.18 116.876 102.905 116.986 102.655C117.106 102.395 117.281 102.175 117.511 101.995C117.741 101.805 118.026 101.655 118.366 101.545C118.716 101.435 119.126 101.38 119.596 101.38C120.576 101.38 121.301 101.585 121.771 101.995C122.241 102.405 122.516 102.94 122.596 103.6H121.186C121.146 103.45 121.091 103.315 121.021 103.195C120.951 103.075 120.856 102.97 120.736 102.88C120.616 102.79 120.461 102.725 120.271 102.685C120.091 102.635 119.866 102.61 119.596 102.61C119.096 102.61 118.741 102.695 118.531 102.865C118.331 103.025 118.231 103.23 118.231 103.48C118.231 103.75 118.341 103.955 118.561 104.095C118.781 104.235 119.056 104.35 119.386 104.44C119.716 104.53 120.071 104.62 120.451 104.71C120.831 104.8 121.186 104.93 121.516 105.1C121.846 105.26 122.121 105.485 122.341 105.775C122.561 106.065 122.671 106.455 122.671 106.945C122.671 107.255 122.611 107.545 122.491 107.815C122.381 108.075 122.206 108.305 121.966 108.505C121.736 108.695 121.441 108.845 121.081 108.955C120.721 109.065 120.301 109.12 119.821 109.12ZM124.474 101.5H125.524L125.674 102.55H125.704C126.274 101.77 127.014 101.38 127.924 101.38C128.434 101.38 128.889 101.495 129.289 101.725C129.689 101.955 130.004 102.295 130.234 102.745C130.494 102.315 130.839 101.98 131.269 101.74C131.699 101.5 132.184 101.38 132.724 101.38C133.114 101.38 133.474 101.45 133.804 101.59C134.134 101.73 134.419 101.935 134.659 102.205C134.899 102.475 135.084 102.81 135.214 103.21C135.354 103.6 135.424 104.055 135.424 104.575V109H134.074V104.575C134.074 103.905 133.924 103.41 133.624 103.09C133.334 102.77 132.934 102.61 132.424 102.61C132.164 102.61 131.924 102.66 131.704 102.76C131.494 102.85 131.304 102.98 131.134 103.15C130.974 103.32 130.849 103.525 130.759 103.765C130.669 104.005 130.624 104.275 130.624 104.575V109H129.274V104.575C129.274 103.905 129.124 103.41 128.824 103.09C128.534 102.77 128.134 102.61 127.624 102.61C127.114 102.61 126.684 102.785 126.334 103.135C125.994 103.485 125.824 103.965 125.824 104.575V109H124.474V101.5ZM140.299 109.12C139.259 109.12 138.489 108.91 137.989 108.49C137.499 108.06 137.219 107.48 137.149 106.75H138.559C138.639 107.11 138.794 107.39 139.024 107.59C139.264 107.79 139.664 107.89 140.224 107.89C140.794 107.89 141.189 107.805 141.409 107.635C141.629 107.455 141.739 107.225 141.739 106.945C141.739 106.655 141.629 106.435 141.409 106.285C141.189 106.125 140.914 105.995 140.584 105.895C140.254 105.795 139.899 105.7 139.519 105.61C139.139 105.52 138.784 105.395 138.454 105.235C138.124 105.075 137.849 104.86 137.629 104.59C137.409 104.32 137.299 103.95 137.299 103.48C137.299 103.18 137.354 102.905 137.464 102.655C137.584 102.395 137.759 102.175 137.989 101.995C138.219 101.805 138.504 101.655 138.844 101.545C139.194 101.435 139.604 101.38 140.074 101.38C141.054 101.38 141.779 101.585 142.249 101.995C142.719 102.405 142.994 102.94 143.074 103.6H141.664C141.624 103.45 141.569 103.315 141.499 103.195C141.429 103.075 141.334 102.97 141.214 102.88C141.094 102.79 140.939 102.725 140.749 102.685C140.569 102.635 140.344 102.61 140.074 102.61C139.574 102.61 139.219 102.695 139.009 102.865C138.809 103.025 138.709 103.23 138.709 103.48C138.709 103.75 138.819 103.955 139.039 104.095C139.259 104.235 139.534 104.35 139.864 104.44C140.194 104.53 140.549 104.62 140.929 104.71C141.309 104.8 141.664 104.93 141.994 105.1C142.324 105.26 142.599 105.485 142.819 105.775C143.039 106.065 143.149 106.455 143.149 106.945C143.149 107.255 143.089 107.545 142.969 107.815C142.859 108.075 142.684 108.305 142.444 108.505C142.214 108.695 141.919 108.845 141.559 108.955C141.199 109.065 140.779 109.12 140.299 109.12ZM151.283 109.12C150.383 109.12 149.653 108.815 149.093 108.205C148.533 107.595 148.253 106.68 148.253 105.46V105.04C148.253 104.44 148.328 103.915 148.478 103.465C148.628 103.005 148.838 102.62 149.108 102.31C149.378 102 149.698 101.77 150.068 101.62C150.438 101.46 150.843 101.38 151.283 101.38C152.253 101.38 153.033 101.72 153.623 102.4H153.653V98.5H155.003V109H153.953C153.943 108.95 153.928 108.875 153.908 108.775C153.898 108.675 153.883 108.575 153.863 108.475C153.853 108.365 153.843 108.265 153.833 108.175C153.823 108.075 153.813 108 153.803 107.95H153.773C153.203 108.73 152.373 109.12 151.283 109.12ZM151.658 107.89C152.268 107.89 152.753 107.695 153.113 107.305C153.473 106.905 153.653 106.29 153.653 105.46V105.04C153.653 104.23 153.468 103.625 153.098 103.225C152.738 102.815 152.258 102.61 151.658 102.61C151.048 102.61 150.563 102.81 150.203 103.21C149.843 103.6 149.663 104.21 149.663 105.04V105.46C149.663 106.27 149.843 106.88 150.203 107.29C150.573 107.69 151.058 107.89 151.658 107.89ZM160.258 109.12C159.728 109.12 159.248 109.04 158.818 108.88C158.398 108.71 158.038 108.47 157.738 108.16C157.438 107.84 157.208 107.455 157.048 107.005C156.888 106.555 156.808 106.04 156.808 105.46V105.04C156.808 104.46 156.888 103.945 157.048 103.495C157.208 103.035 157.433 102.65 157.723 102.34C158.023 102.03 158.378 101.795 158.788 101.635C159.208 101.465 159.673 101.38 160.183 101.38C160.693 101.38 161.153 101.465 161.563 101.635C161.983 101.795 162.338 102.035 162.628 102.355C162.928 102.675 163.158 103.065 163.318 103.525C163.478 103.985 163.558 104.515 163.558 105.115V105.655H158.218C158.238 106.365 158.418 106.915 158.758 107.305C159.108 107.695 159.583 107.89 160.183 107.89C160.663 107.89 161.058 107.8 161.368 107.62C161.678 107.44 161.913 107.15 162.073 106.75H163.483C163.303 107.53 162.933 108.12 162.373 108.52C161.823 108.92 161.118 109.12 160.258 109.12ZM160.183 102.61C159.613 102.61 159.163 102.775 158.833 103.105C158.503 103.435 158.303 103.915 158.233 104.545H162.148C162.028 103.255 161.373 102.61 160.183 102.61ZM168.058 109.12C167.018 109.12 166.248 108.91 165.748 108.49C165.258 108.06 164.978 107.48 164.908 106.75H166.318C166.398 107.11 166.553 107.39 166.783 107.59C167.023 107.79 167.423 107.89 167.983 107.89C168.553 107.89 168.948 107.805 169.168 107.635C169.388 107.455 169.498 107.225 169.498 106.945C169.498 106.655 169.388 106.435 169.168 106.285C168.948 106.125 168.673 105.995 168.343 105.895C168.013 105.795 167.658 105.7 167.278 105.61C166.898 105.52 166.543 105.395 166.213 105.235C165.883 105.075 165.608 104.86 165.388 104.59C165.168 104.32 165.058 103.95 165.058 103.48C165.058 103.18 165.113 102.905 165.223 102.655C165.343 102.395 165.518 102.175 165.748 101.995C165.978 101.805 166.263 101.655 166.603 101.545C166.953 101.435 167.363 101.38 167.833 101.38C168.813 101.38 169.538 101.585 170.008 101.995C170.478 102.405 170.753 102.94 170.833 103.6H169.423C169.383 103.45 169.328 103.315 169.258 103.195C169.188 103.075 169.093 102.97 168.973 102.88C168.853 102.79 168.698 102.725 168.508 102.685C168.328 102.635 168.103 102.61 167.833 102.61C167.333 102.61 166.978 102.695 166.768 102.865C166.568 103.025 166.468 103.23 166.468 103.48C166.468 103.75 166.578 103.955 166.798 104.095C167.018 104.235 167.293 104.35 167.623 104.44C167.953 104.53 168.308 104.62 168.688 104.71C169.068 104.8 169.423 104.93 169.753 105.1C170.083 105.26 170.358 105.485 170.578 105.775C170.798 106.065 170.908 106.455 170.908 106.945C170.908 107.255 170.848 107.545 170.728 107.815C170.618 108.075 170.443 108.305 170.203 108.505C169.973 108.695 169.678 108.845 169.318 108.955C168.958 109.065 168.538 109.12 168.058 109.12ZM172.832 101.5H174.182V109H172.832V101.5ZM173.507 100.375C173.247 100.375 173.032 100.29 172.862 100.12C172.692 99.95 172.607 99.735 172.607 99.475C172.607 99.215 172.692 99 172.862 98.83C173.032 98.66 173.247 98.575 173.507 98.575C173.767 98.575 173.982 98.66 174.152 98.83C174.322 99 174.407 99.215 174.407 99.475C174.407 99.735 174.322 99.95 174.152 100.12C173.982 100.29 173.767 100.375 173.507 100.375ZM179.13 108.82C178.68 108.82 178.27 108.745 177.9 108.595C177.53 108.445 177.21 108.22 176.94 107.92C176.67 107.62 176.46 107.255 176.31 106.825C176.17 106.385 176.1 105.88 176.1 105.31V104.89C176.1 104.33 176.175 103.835 176.325 103.405C176.475 102.965 176.685 102.595 176.955 102.295C177.225 101.995 177.545 101.77 177.915 101.62C178.285 101.46 178.69 101.38 179.13 101.38C179.67 101.38 180.13 101.47 180.51 101.65C180.9 101.83 181.27 102.13 181.62 102.55H181.65L181.8 101.5H182.85V109.075C182.85 110.055 182.58 110.805 182.04 111.325C181.51 111.855 180.72 112.12 179.67 112.12C178.67 112.12 177.93 111.905 177.45 111.475C176.98 111.055 176.705 110.48 176.625 109.75H178.035C178.115 110.11 178.27 110.39 178.5 110.59C178.74 110.79 179.13 110.89 179.67 110.89C180.32 110.89 180.785 110.745 181.065 110.455C181.355 110.165 181.5 109.68 181.5 109V107.8H181.47C181.15 108.16 180.805 108.42 180.435 108.58C180.075 108.74 179.64 108.82 179.13 108.82ZM179.505 107.59C180.115 107.59 180.6 107.4 180.96 107.02C181.32 106.63 181.5 106.06 181.5 105.31V104.89C181.5 104.15 181.315 103.585 180.945 103.195C180.585 102.805 180.105 102.61 179.505 102.61C178.895 102.61 178.41 102.805 178.05 103.195C177.69 103.575 177.51 104.14 177.51 104.89V105.31C177.51 106.05 177.69 106.615 178.05 107.005C178.42 107.395 178.905 107.59 179.505 107.59ZM185.104 101.5H186.154L186.289 102.475H186.319C186.639 102.095 186.984 101.82 187.354 101.65C187.734 101.47 188.174 101.38 188.674 101.38C189.574 101.38 190.279 101.645 190.789 102.175C191.299 102.705 191.554 103.48 191.554 104.5V109H190.204V104.575C190.204 103.905 190.049 103.41 189.739 103.09C189.439 102.77 188.994 102.61 188.404 102.61C187.814 102.61 187.339 102.79 186.979 103.15C186.629 103.5 186.454 103.975 186.454 104.575V109H185.104V101.5ZM194.857 109.12C194.557 109.12 194.312 109.025 194.122 108.835C193.942 108.645 193.852 108.405 193.852 108.115C193.852 107.825 193.942 107.585 194.122 107.395C194.312 107.205 194.557 107.11 194.857 107.11C195.157 107.11 195.397 107.205 195.577 107.395C195.767 107.585 195.862 107.825 195.862 108.115C195.862 108.405 195.767 108.645 195.577 108.835C195.397 109.025 195.157 109.12 194.857 109.12Z" fill="white" fill-opacity="0.56"/>
<rect x="24.9999" y="130" width="47" height="24" rx="4" fill="#207BF9" fill-opacity="0.2"/>
<path d="M36.445 139.33H33.65V137.9H40.8V139.33H38.005V147H36.445V139.33ZM43.335 137.9H45.155L48.405 147H46.741L45.987 144.725H42.412L41.645 147H40.085L43.335 137.9ZM45.519 143.295L44.232 139.395H44.206L42.893 143.295H45.519ZM52.6934 147.13C52.0954 147.13 51.5538 147.035 51.0684 146.844C50.5831 146.645 50.1671 146.359 49.8204 145.986C49.4738 145.605 49.2051 145.137 49.0144 144.582C48.8238 144.019 48.7284 143.377 48.7284 142.658V142.112C48.7284 141.427 48.8238 140.816 49.0144 140.279C49.2051 139.742 49.4738 139.287 49.8204 138.914C50.1671 138.541 50.5831 138.26 51.0684 138.069C51.5624 137.87 52.1041 137.77 52.6934 137.77C53.2308 137.77 53.7118 137.848 54.1364 138.004C54.5698 138.151 54.9424 138.359 55.2544 138.628C55.5664 138.897 55.8178 139.213 56.0084 139.577C56.1991 139.941 56.3291 140.335 56.3984 140.76H54.7084C54.5784 140.301 54.3488 139.928 54.0194 139.642C53.6901 139.347 53.2481 139.2 52.6934 139.2C52.0001 139.2 51.4368 139.443 51.0034 139.928C50.5788 140.405 50.3664 141.133 50.3664 142.112V142.658C50.3664 143.178 50.4228 143.629 50.5354 144.01C50.6568 144.391 50.8171 144.708 51.0164 144.959C51.2244 145.21 51.4714 145.397 51.7574 145.518C52.0434 145.639 52.3554 145.7 52.6934 145.7C53.2394 145.7 53.6728 145.548 53.9934 145.245C54.3228 144.942 54.5524 144.53 54.6824 144.01H56.3984C56.3291 144.469 56.1991 144.89 56.0084 145.271C55.8178 145.652 55.5664 145.982 55.2544 146.259C54.9424 146.536 54.5698 146.753 54.1364 146.909C53.7118 147.056 53.2308 147.13 52.6934 147.13ZM59.4489 139.33H56.6539V137.9H63.8039V139.33H61.0089V147H59.4489V139.33Z" fill="#207BF9"/>
<rect x="79.9999" y="130" width="47" height="24" rx="4" fill="#207BF9" fill-opacity="0.2"/>
<path d="M89.8093 137.9H95.6593V139.33H91.3693V141.735H94.8793V143.165H91.3693V147H89.8093V137.9ZM98.6478 147.13C97.9284 147.13 97.3478 146.892 96.9058 146.415C96.4638 145.93 96.2428 145.215 96.2428 144.27V140.5H97.7508V144.27C97.7508 144.764 97.8634 145.137 98.0888 145.388C98.3141 145.631 98.6088 145.752 98.9728 145.752C99.4234 145.752 99.7831 145.618 100.052 145.349C100.32 145.08 100.455 144.721 100.455 144.27V140.5H101.963V147H100.793L100.663 146.285H100.637C100.134 146.848 99.4711 147.13 98.6478 147.13ZM103.658 140.5H104.828L104.958 141.215H104.984C105.513 140.652 106.176 140.37 106.973 140.37C107.762 140.37 108.382 140.608 108.832 141.085C109.283 141.553 109.508 142.246 109.508 143.165V147H108V143.23C108 142.736 107.883 142.368 107.649 142.125C107.415 141.874 107.082 141.748 106.648 141.748C106.198 141.748 105.838 141.882 105.569 142.151C105.301 142.42 105.166 142.779 105.166 143.23V147H103.658V140.5ZM114.841 147.13C114.243 147.13 113.701 147.035 113.216 146.844C112.731 146.645 112.315 146.359 111.968 145.986C111.621 145.605 111.353 145.137 111.162 144.582C110.971 144.019 110.876 143.377 110.876 142.658V142.112C110.876 141.427 110.971 140.816 111.162 140.279C111.353 139.742 111.621 139.287 111.968 138.914C112.315 138.541 112.731 138.26 113.216 138.069C113.71 137.87 114.252 137.77 114.841 137.77C115.378 137.77 115.859 137.848 116.284 138.004C116.717 138.151 117.09 138.359 117.402 138.628C117.714 138.897 117.965 139.213 118.156 139.577C118.347 139.941 118.477 140.335 118.546 140.76H116.856C116.726 140.301 116.496 139.928 116.167 139.642C115.838 139.347 115.396 139.2 114.841 139.2C114.148 139.2 113.584 139.443 113.151 139.928C112.726 140.405 112.514 141.133 112.514 142.112V142.658C112.514 143.178 112.57 143.629 112.683 144.01C112.804 144.391 112.965 144.708 113.164 144.959C113.372 145.21 113.619 145.397 113.905 145.518C114.191 145.639 114.503 145.7 114.841 145.7C115.387 145.7 115.82 145.548 116.141 145.245C116.47 144.942 116.7 144.53 116.83 144.01H118.546C118.477 144.469 118.347 144.89 118.156 145.271C117.965 145.652 117.714 145.982 117.402 146.259C117.09 146.536 116.717 146.753 116.284 146.909C115.859 147.056 115.378 147.13 114.841 147.13Z" fill="#207BF9"/>
<rect x="135" y="130" width="36" height="24" rx="4" fill="#207BF9" fill-opacity="0.2"/>
<path d="M144.004 137.9H149.854V139.33H145.564V141.735H149.074V143.165H145.564V147H144.004V137.9ZM151.024 140.5H152.532V147H151.024V140.5ZM151.778 139.72C151.501 139.72 151.267 139.629 151.076 139.447C150.894 139.256 150.803 139.022 150.803 138.745C150.803 138.468 150.894 138.238 151.076 138.056C151.267 137.865 151.501 137.77 151.778 137.77C152.056 137.77 152.285 137.865 152.467 138.056C152.658 138.238 152.753 138.468 152.753 138.745C152.753 139.022 152.658 139.256 152.467 139.447C152.285 139.629 152.056 139.72 151.778 139.72ZM154.74 141.878H153.57V140.5H154.74V140.045C154.74 139.352 154.922 138.823 155.286 138.459C155.65 138.086 156.17 137.9 156.846 137.9H157.99V139.278H157.08C156.526 139.278 156.248 139.568 156.248 140.149V140.5H157.73V141.878H156.248V147H154.74V141.878ZM161.695 147C161.34 147 161.041 146.957 160.798 146.87C160.556 146.783 160.352 146.671 160.187 146.532C160.031 146.393 159.91 146.242 159.823 146.077C159.737 145.904 159.672 145.739 159.628 145.583C159.594 145.427 159.572 145.284 159.563 145.154C159.555 145.024 159.55 144.924 159.55 144.855V141.878H158.38V140.5H159.55V138.68H161.058V140.5H162.67V141.878H161.058V144.647C161.058 144.716 161.063 144.807 161.071 144.92C161.08 145.033 161.115 145.141 161.175 145.245C161.236 145.349 161.327 145.44 161.448 145.518C161.57 145.587 161.743 145.622 161.968 145.622H162.8V147H161.695Z" fill="#207BF9"/>
<rect x="179" y="130" width="40" height="24" rx="4" fill="#207BF9" fill-opacity="0.2"/>
<path d="M187.992 137.9H191.112C192.282 137.9 193.114 138.117 193.608 138.55C194.111 138.983 194.362 139.59 194.362 140.37C194.362 141.211 193.976 141.839 193.205 142.255V142.281C194.15 142.68 194.622 143.377 194.622 144.374C194.622 145.232 194.371 145.886 193.868 146.337C193.374 146.779 192.542 147 191.372 147H187.992V137.9ZM189.552 139.33V141.67H191.047C191.68 141.67 192.117 141.57 192.36 141.371C192.603 141.172 192.724 140.881 192.724 140.5C192.724 140.119 192.603 139.828 192.36 139.629C192.117 139.43 191.68 139.33 191.047 139.33H189.552ZM189.552 142.97V145.57H191.307C191.94 145.57 192.377 145.466 192.62 145.258C192.863 145.041 192.984 144.712 192.984 144.27C192.984 143.828 192.863 143.503 192.62 143.295C192.377 143.078 191.94 142.97 191.307 142.97H189.552ZM198.719 147.13C197.739 147.13 196.972 146.853 196.418 146.298C195.872 145.735 195.599 144.933 195.599 143.893V143.607C195.599 143.096 195.668 142.641 195.807 142.242C195.954 141.843 196.162 141.505 196.431 141.228C196.708 140.951 197.037 140.738 197.419 140.591C197.8 140.444 198.233 140.37 198.719 140.37C199.698 140.37 200.461 140.652 201.007 141.215C201.561 141.77 201.839 142.567 201.839 143.607V143.893C201.839 144.404 201.765 144.859 201.618 145.258C201.479 145.657 201.271 145.995 200.994 146.272C200.725 146.549 200.396 146.762 200.006 146.909C199.624 147.056 199.195 147.13 198.719 147.13ZM198.719 145.752C199.195 145.752 199.568 145.605 199.837 145.31C200.114 145.007 200.253 144.534 200.253 143.893V143.607C200.253 142.983 200.114 142.519 199.837 142.216C199.559 141.904 199.187 141.748 198.719 141.748C198.242 141.748 197.865 141.9 197.588 142.203C197.319 142.498 197.185 142.966 197.185 143.607V143.893C197.185 144.517 197.323 144.985 197.601 145.297C197.878 145.6 198.251 145.752 198.719 145.752ZM206.841 147.13C206.243 147.13 205.701 147.035 205.216 146.844C204.731 146.645 204.315 146.359 203.968 145.986C203.621 145.605 203.353 145.137 203.162 144.582C202.971 144.019 202.876 143.377 202.876 142.658V142.112C202.876 141.427 202.971 140.816 203.162 140.279C203.353 139.742 203.621 139.287 203.968 138.914C204.315 138.541 204.731 138.26 205.216 138.069C205.71 137.87 206.252 137.77 206.841 137.77C207.378 137.77 207.859 137.848 208.284 138.004C208.717 138.151 209.09 138.359 209.402 138.628C209.714 138.897 209.965 139.213 210.156 139.577C210.347 139.941 210.477 140.335 210.546 140.76H208.856C208.726 140.301 208.496 139.928 208.167 139.642C207.838 139.347 207.396 139.2 206.841 139.2C206.148 139.2 205.584 139.443 205.151 139.928C204.726 140.405 204.514 141.133 204.514 142.112V142.658C204.514 143.178 204.57 143.629 204.683 144.01C204.804 144.391 204.965 144.708 205.164 144.959C205.372 145.21 205.619 145.397 205.905 145.518C206.191 145.639 206.503 145.7 206.841 145.7C207.387 145.7 207.82 145.548 208.141 145.245C208.47 144.942 208.7 144.53 208.83 144.01H210.546C210.477 144.469 210.347 144.89 210.156 145.271C209.965 145.652 209.714 145.982 209.402 146.259C209.09 146.536 208.717 146.753 208.284 146.909C207.859 147.056 207.378 147.13 206.841 147.13Z" fill="#207BF9"/>
</svg>
