<svg width="518" height="512"  viewBox="0 0 259 256" fill="none" xmlns="http://www.w3.org/2000/svg">
<g clip-path="url(#clip0_28_115)">
<path d="M0 12C0 5.37258 5.37258 0 12 0H246.667C253.294 0 258.667 5.37258 258.667 12V244C258.667 250.627 253.294 256 246.667 256H12C5.37259 256 0 250.627 0 244V12Z" fill="#207BF9"/>
<g filter="url(#filter0_f_28_115)">
<ellipse cx="341.897" cy="696.311" rx="341.897" ry="696.311" transform="matrix(-0.857055 -0.515224 0.539235 -0.842155 -234.593 1258.84)" fill="#207BF9" fill-opacity="0.5"/>
</g>
<g filter="url(#filter1_f_28_115)">
<ellipse cx="81.4128" cy="456.144" rx="241.737" ry="311.437" transform="rotate(35.3824 81.4128 456.144)" fill="#6EABFF"/>
</g>
<path d="M19.2557 19.3636V31H17.1477V19.3636H19.2557ZM23.5043 25.8864V31H21.4474V22.2727H23.4134V23.7557H23.5156C23.7164 23.267 24.0365 22.8788 24.4759 22.5909C24.919 22.303 25.4664 22.1591 26.1179 22.1591C26.7202 22.1591 27.2448 22.2879 27.6918 22.5455C28.1425 22.803 28.491 23.1761 28.7372 23.6648C28.9872 24.1534 29.1103 24.7462 29.1065 25.4432V31H27.0497V25.7614C27.0497 25.178 26.8982 24.7216 26.5952 24.392C26.2959 24.0625 25.8812 23.8977 25.3509 23.8977C24.991 23.8977 24.6709 23.9773 24.3906 24.1364C24.1141 24.2917 23.8963 24.517 23.7372 24.8125C23.5819 25.108 23.5043 25.4659 23.5043 25.8864ZM38.0952 24.5795L36.2202 24.7841C36.1671 24.5947 36.0743 24.4167 35.9418 24.25C35.813 24.0833 35.6387 23.9489 35.419 23.8466C35.1993 23.7443 34.9304 23.6932 34.6122 23.6932C34.1842 23.6932 33.8243 23.786 33.5327 23.9716C33.2448 24.1572 33.1027 24.3977 33.1065 24.6932C33.1027 24.947 33.1955 25.1534 33.3849 25.3125C33.5781 25.4716 33.8963 25.6023 34.3395 25.7045L35.8281 26.0227C36.6539 26.2008 37.2675 26.483 37.669 26.8693C38.0743 27.2557 38.2789 27.7614 38.2827 28.3864C38.2789 28.9356 38.1179 29.4205 37.7997 29.8409C37.4853 30.2576 37.0478 30.5833 36.4872 30.8182C35.9266 31.053 35.2827 31.1705 34.5554 31.1705C33.4872 31.1705 32.6274 30.947 31.9759 30.5C31.3243 30.0492 30.9361 29.4223 30.8111 28.6193L32.8168 28.4261C32.9077 28.8201 33.1009 29.1174 33.3963 29.3182C33.6918 29.5189 34.0762 29.6193 34.5497 29.6193C35.0384 29.6193 35.4304 29.5189 35.7259 29.3182C36.0251 29.1174 36.1747 28.8693 36.1747 28.5739C36.1747 28.3239 36.0781 28.1174 35.8849 27.9545C35.6955 27.7917 35.4001 27.6667 34.9986 27.5795L33.5099 27.267C32.6728 27.0928 32.0535 26.7992 31.652 26.3864C31.2505 25.9697 31.0516 25.4432 31.0554 24.8068C31.0516 24.2689 31.1974 23.803 31.4929 23.4091C31.7921 23.0114 32.2069 22.7045 32.7372 22.4886C33.2713 22.2689 33.8868 22.1591 34.5838 22.1591C35.6065 22.1591 36.4115 22.3769 36.9986 22.8125C37.5895 23.2481 37.955 23.8371 38.0952 24.5795ZM44.3366 22.2727V23.8636H39.3196V22.2727H44.3366ZM40.5582 20.1818H42.6151V28.375C42.6151 28.6515 42.6567 28.8636 42.7401 29.0114C42.8272 29.1553 42.9408 29.2538 43.081 29.3068C43.2211 29.3598 43.3764 29.3864 43.5469 29.3864C43.6757 29.3864 43.7931 29.3769 43.8991 29.358C44.009 29.339 44.0923 29.322 44.1491 29.3068L44.4957 30.9148C44.3859 30.9527 44.2287 30.9943 44.0241 31.0398C43.8234 31.0852 43.5772 31.1117 43.2855 31.1193C42.7704 31.1345 42.3063 31.0568 41.8935 30.8864C41.4806 30.7121 41.1529 30.4432 40.9105 30.0795C40.6719 29.7159 40.5545 29.2614 40.5582 28.7159V20.1818ZM48.5682 31.1761C48.0152 31.1761 47.517 31.0777 47.0739 30.8807C46.6345 30.6799 46.286 30.3845 46.0284 29.9943C45.7746 29.6042 45.6477 29.1231 45.6477 28.5511C45.6477 28.0587 45.7386 27.6515 45.9205 27.3295C46.1023 27.0076 46.3504 26.75 46.6648 26.5568C46.9792 26.3636 47.3333 26.2178 47.7273 26.1193C48.125 26.017 48.536 25.9432 48.9602 25.8977C49.4716 25.8447 49.8864 25.7973 50.2045 25.7557C50.5227 25.7102 50.7538 25.642 50.8977 25.5511C51.0455 25.4564 51.1193 25.3106 51.1193 25.1136V25.0795C51.1193 24.6515 50.9924 24.3201 50.7386 24.0852C50.4848 23.8504 50.1193 23.733 49.642 23.733C49.1383 23.733 48.7386 23.8428 48.4432 24.0625C48.1515 24.2822 47.9545 24.5417 47.8523 24.8409L45.9318 24.5682C46.0833 24.0379 46.3333 23.5947 46.6818 23.2386C47.0303 22.8788 47.4564 22.6098 47.9602 22.4318C48.464 22.25 49.0208 22.1591 49.6307 22.1591C50.0511 22.1591 50.4697 22.2083 50.8864 22.3068C51.303 22.4053 51.6837 22.5682 52.0284 22.7955C52.3731 23.0189 52.6496 23.3239 52.858 23.7102C53.0701 24.0966 53.1761 24.5795 53.1761 25.1591V31H51.1989V29.8011H51.1307C51.0057 30.0436 50.8295 30.2708 50.6023 30.483C50.3788 30.6913 50.0966 30.8598 49.7557 30.9886C49.4186 31.1136 49.0227 31.1761 48.5682 31.1761ZM49.1023 29.6648C49.5152 29.6648 49.8731 29.5833 50.1761 29.4205C50.4792 29.2538 50.7121 29.0341 50.875 28.7614C51.0417 28.4886 51.125 28.1913 51.125 27.8693V26.8409C51.0606 26.8939 50.9508 26.9432 50.7955 26.9886C50.6439 27.0341 50.4735 27.0739 50.2841 27.108C50.0947 27.142 49.9072 27.1723 49.7216 27.1989C49.536 27.2254 49.375 27.2481 49.2386 27.267C48.9318 27.3087 48.6572 27.3769 48.4148 27.4716C48.1723 27.5663 47.9811 27.6989 47.8409 27.8693C47.7008 28.036 47.6307 28.2519 47.6307 28.517C47.6307 28.8958 47.7689 29.1818 48.0455 29.375C48.322 29.5682 48.6742 29.6648 49.1023 29.6648ZM57.3011 19.3636V31H55.2443V19.3636H57.3011ZM61.473 19.3636V31H59.4162V19.3636H61.473ZM66.0994 31.1761C65.5464 31.1761 65.0483 31.0777 64.6051 30.8807C64.1657 30.6799 63.8172 30.3845 63.5597 29.9943C63.3059 29.6042 63.179 29.1231 63.179 28.5511C63.179 28.0587 63.2699 27.6515 63.4517 27.3295C63.6335 27.0076 63.8816 26.75 64.196 26.5568C64.5104 26.3636 64.8646 26.2178 65.2585 26.1193C65.6563 26.017 66.0672 25.9432 66.4915 25.8977C67.0028 25.8447 67.4176 25.7973 67.7358 25.7557C68.054 25.7102 68.285 25.642 68.429 25.5511C68.5767 25.4564 68.6506 25.3106 68.6506 25.1136V25.0795C68.6506 24.6515 68.5237 24.3201 68.2699 24.0852C68.0161 23.8504 67.6506 23.733 67.1733 23.733C66.6695 23.733 66.2699 23.8428 65.9744 24.0625C65.6828 24.2822 65.4858 24.5417 65.3835 24.8409L63.4631 24.5682C63.6146 24.0379 63.8646 23.5947 64.2131 23.2386C64.5616 22.8788 64.9877 22.6098 65.4915 22.4318C65.9953 22.25 66.5521 22.1591 67.1619 22.1591C67.5824 22.1591 68.0009 22.2083 68.4176 22.3068C68.8343 22.4053 69.215 22.5682 69.5597 22.7955C69.9044 23.0189 70.1809 23.3239 70.3892 23.7102C70.6013 24.0966 70.7074 24.5795 70.7074 25.1591V31H68.7301V29.8011H68.6619C68.5369 30.0436 68.3608 30.2708 68.1335 30.483C67.91 30.6913 67.6278 30.8598 67.2869 30.9886C66.9498 31.1136 66.554 31.1761 66.0994 31.1761ZM66.6335 29.6648C67.0464 29.6648 67.4044 29.5833 67.7074 29.4205C68.0104 29.2538 68.2434 29.0341 68.4062 28.7614C68.5729 28.4886 68.6562 28.1913 68.6562 27.8693V26.8409C68.5919 26.8939 68.482 26.9432 68.3267 26.9886C68.1752 27.0341 68.0047 27.0739 67.8153 27.108C67.6259 27.142 67.4384 27.1723 67.2528 27.1989C67.0672 27.2254 66.9063 27.2481 66.7699 27.267C66.4631 27.3087 66.1884 27.3769 65.946 27.4716C65.7036 27.5663 65.5123 27.6989 65.3722 27.8693C65.232 28.036 65.1619 28.2519 65.1619 28.517C65.1619 28.8958 65.3002 29.1818 65.5767 29.375C65.8532 29.5682 66.2055 29.6648 66.6335 29.6648ZM77.1335 22.2727V23.8636H72.1165V22.2727H77.1335ZM73.3551 20.1818H75.4119V28.375C75.4119 28.6515 75.4536 28.8636 75.5369 29.0114C75.6241 29.1553 75.7377 29.2538 75.8778 29.3068C76.018 29.3598 76.1733 29.3864 76.3438 29.3864C76.4725 29.3864 76.59 29.3769 76.696 29.358C76.8059 29.339 76.8892 29.322 76.946 29.3068L77.2926 30.9148C77.1828 30.9527 77.0256 30.9943 76.821 31.0398C76.6203 31.0852 76.3741 31.1117 76.0824 31.1193C75.5672 31.1345 75.1032 31.0568 74.6903 30.8864C74.2775 30.7121 73.9498 30.4432 73.7074 30.0795C73.4688 29.7159 73.3513 29.2614 73.3551 28.7159V20.1818ZM78.8537 31V22.2727H80.9105V31H78.8537ZM79.8878 21.0341C79.562 21.0341 79.2817 20.9261 79.0469 20.7102C78.812 20.4905 78.6946 20.2273 78.6946 19.9205C78.6946 19.6098 78.812 19.3466 79.0469 19.1307C79.2817 18.911 79.562 18.8011 79.8878 18.8011C80.2173 18.8011 80.4976 18.911 80.7287 19.1307C80.9635 19.3466 81.081 19.6098 81.081 19.9205C81.081 20.2273 80.9635 20.4905 80.7287 20.7102C80.4976 20.9261 80.2173 21.0341 79.8878 21.0341ZM86.8324 31.1705C85.9801 31.1705 85.2415 30.983 84.6165 30.608C83.9915 30.233 83.5066 29.7083 83.1619 29.0341C82.821 28.3598 82.6506 27.572 82.6506 26.6705C82.6506 25.7689 82.821 24.9792 83.1619 24.3011C83.5066 23.6231 83.9915 23.0966 84.6165 22.7216C85.2415 22.3466 85.9801 22.1591 86.8324 22.1591C87.6847 22.1591 88.4233 22.3466 89.0483 22.7216C89.6733 23.0966 90.1563 23.6231 90.4972 24.3011C90.8419 24.9792 91.0142 25.7689 91.0142 26.6705C91.0142 27.572 90.8419 28.3598 90.4972 29.0341C90.1563 29.7083 89.6733 30.233 89.0483 30.608C88.4233 30.983 87.6847 31.1705 86.8324 31.1705ZM86.8438 29.5227C87.3059 29.5227 87.6922 29.3958 88.0028 29.142C88.3134 28.8845 88.5445 28.5398 88.696 28.108C88.8513 27.6761 88.929 27.1951 88.929 26.6648C88.929 26.1307 88.8513 25.6477 88.696 25.2159C88.5445 24.7803 88.3134 24.4337 88.0028 24.1761C87.6922 23.9186 87.3059 23.7898 86.8438 23.7898C86.3703 23.7898 85.9763 23.9186 85.6619 24.1761C85.3513 24.4337 85.1184 24.7803 84.9631 25.2159C84.8116 25.6477 84.7358 26.1307 84.7358 26.6648C84.7358 27.1951 84.8116 27.6761 84.9631 28.108C85.1184 28.5398 85.3513 28.8845 85.6619 29.142C85.9763 29.3958 86.3703 29.5227 86.8438 29.5227ZM94.8168 25.8864V31H92.7599V22.2727H94.7259V23.7557H94.8281C95.0289 23.267 95.349 22.8788 95.7884 22.5909C96.2315 22.303 96.7789 22.1591 97.4304 22.1591C98.0327 22.1591 98.5573 22.2879 99.0043 22.5455C99.455 22.803 99.8035 23.1761 100.05 23.6648C100.3 24.1534 100.423 24.7462 100.419 25.4432V31H98.3622V25.7614C98.3622 25.178 98.2107 24.7216 97.9077 24.392C97.6084 24.0625 97.1937 23.8977 96.6634 23.8977C96.3035 23.8977 95.9834 23.9773 95.7031 24.1364C95.4266 24.2917 95.2088 24.517 95.0497 24.8125C94.8944 25.108 94.8168 25.4659 94.8168 25.8864ZM108.99 31.1761C108.437 31.1761 107.939 31.0777 107.496 30.8807C107.056 30.6799 106.708 30.3845 106.45 29.9943C106.196 29.6042 106.07 29.1231 106.07 28.5511C106.07 28.0587 106.161 27.6515 106.342 27.3295C106.524 27.0076 106.772 26.75 107.087 26.5568C107.401 26.3636 107.755 26.2178 108.149 26.1193C108.547 26.017 108.958 25.9432 109.382 25.8977C109.893 25.8447 110.308 25.7973 110.626 25.7557C110.945 25.7102 111.176 25.642 111.32 25.5511C111.467 25.4564 111.541 25.3106 111.541 25.1136V25.0795C111.541 24.6515 111.414 24.3201 111.161 24.0852C110.907 23.8504 110.541 23.733 110.064 23.733C109.56 23.733 109.161 23.8428 108.865 24.0625C108.573 24.2822 108.376 24.5417 108.274 24.8409L106.354 24.5682C106.505 24.0379 106.755 23.5947 107.104 23.2386C107.452 22.8788 107.878 22.6098 108.382 22.4318C108.886 22.25 109.443 22.1591 110.053 22.1591C110.473 22.1591 110.892 22.2083 111.308 22.3068C111.725 22.4053 112.106 22.5682 112.45 22.7955C112.795 23.0189 113.071 23.3239 113.28 23.7102C113.492 24.0966 113.598 24.5795 113.598 25.1591V31H111.621V29.8011H111.553C111.428 30.0436 111.251 30.2708 111.024 30.483C110.801 30.6913 110.518 30.8598 110.178 30.9886C109.84 31.1136 109.445 31.1761 108.99 31.1761ZM109.524 29.6648C109.937 29.6648 110.295 29.5833 110.598 29.4205C110.901 29.2538 111.134 29.0341 111.297 28.7614C111.464 28.4886 111.547 28.1913 111.547 27.8693V26.8409C111.482 26.8939 111.373 26.9432 111.217 26.9886C111.066 27.0341 110.895 27.0739 110.706 27.108C110.517 27.142 110.329 27.1723 110.143 27.1989C109.958 27.2254 109.797 27.2481 109.661 27.267C109.354 27.3087 109.079 27.3769 108.837 27.4716C108.594 27.5663 108.403 27.6989 108.263 27.8693C108.123 28.036 108.053 28.2519 108.053 28.517C108.053 28.8958 108.191 29.1818 108.467 29.375C108.744 29.5682 109.096 29.6648 109.524 29.6648ZM117.723 25.8864V31H115.666V22.2727H117.632V23.7557H117.734C117.935 23.267 118.255 22.8788 118.695 22.5909C119.138 22.303 119.685 22.1591 120.337 22.1591C120.939 22.1591 121.464 22.2879 121.911 22.5455C122.361 22.803 122.71 23.1761 122.956 23.6648C123.206 24.1534 123.329 24.7462 123.325 25.4432V31H121.268V25.7614C121.268 25.178 121.117 24.7216 120.814 24.392C120.515 24.0625 120.1 23.8977 119.57 23.8977C119.21 23.8977 118.89 23.9773 118.609 24.1364C118.333 24.2917 118.115 24.517 117.956 24.8125C117.801 25.108 117.723 25.4659 117.723 25.8864ZM128.655 31.1534C127.969 31.1534 127.356 30.9773 126.814 30.625C126.272 30.2727 125.844 29.7614 125.53 29.0909C125.215 28.4205 125.058 27.6061 125.058 26.6477C125.058 25.678 125.217 24.8598 125.536 24.1932C125.857 23.5227 126.291 23.017 126.837 22.6761C127.382 22.3314 127.99 22.1591 128.661 22.1591C129.172 22.1591 129.592 22.2462 129.922 22.4205C130.251 22.5909 130.513 22.7973 130.706 23.0398C130.899 23.2784 131.049 23.5038 131.155 23.7159H131.24V19.3636H133.303V31H131.28V29.625H131.155C131.049 29.8371 130.895 30.0625 130.695 30.3011C130.494 30.536 130.229 30.7367 129.899 30.9034C129.57 31.0701 129.155 31.1534 128.655 31.1534ZM129.229 29.4659C129.664 29.4659 130.036 29.3485 130.342 29.1136C130.649 28.875 130.882 28.5436 131.041 28.1193C131.2 27.6951 131.28 27.2008 131.28 26.6364C131.28 26.072 131.2 25.5814 131.041 25.1648C130.886 24.7481 130.655 24.4242 130.348 24.1932C130.045 23.9621 129.672 23.8466 129.229 23.8466C128.77 23.8466 128.388 23.9659 128.081 24.2045C127.774 24.4432 127.543 24.7727 127.388 25.1932C127.232 25.6136 127.155 26.0947 127.155 26.6364C127.155 27.1818 127.232 27.6686 127.388 28.0966C127.547 28.5208 127.78 28.8561 128.087 29.1023C128.397 29.3447 128.778 29.4659 129.229 29.4659ZM145.878 22.5625C145.825 22.0663 145.601 21.6799 145.207 21.4034C144.817 21.1269 144.31 20.9886 143.685 20.9886C143.245 20.9886 142.868 21.0549 142.554 21.1875C142.24 21.3201 141.999 21.5 141.832 21.7273C141.666 21.9545 141.58 22.214 141.577 22.5057C141.577 22.7481 141.632 22.9583 141.741 23.1364C141.855 23.3144 142.009 23.4659 142.202 23.5909C142.395 23.7121 142.609 23.8144 142.844 23.8977C143.079 23.9811 143.315 24.0511 143.554 24.108L144.645 24.3807C145.084 24.483 145.507 24.6212 145.912 24.7955C146.321 24.9697 146.687 25.1894 147.009 25.4545C147.334 25.7197 147.592 26.0398 147.781 26.4148C147.971 26.7898 148.065 27.2292 148.065 27.733C148.065 28.4148 147.891 29.0152 147.543 29.5341C147.194 30.0492 146.69 30.4527 146.031 30.7443C145.376 31.0322 144.582 31.1761 143.651 31.1761C142.745 31.1761 141.959 31.036 141.293 30.7557C140.63 30.4754 140.111 30.0663 139.736 29.5284C139.365 28.9905 139.164 28.3352 139.134 27.5625H141.207C141.238 27.9678 141.363 28.3049 141.582 28.5739C141.802 28.8428 142.088 29.0436 142.44 29.1761C142.796 29.3087 143.194 29.375 143.634 29.375C144.092 29.375 144.493 29.3068 144.838 29.1705C145.187 29.0303 145.459 28.8371 145.656 28.5909C145.853 28.3409 145.954 28.0492 145.957 27.7159C145.954 27.4129 145.865 27.1629 145.69 26.9659C145.516 26.7652 145.272 26.5985 144.957 26.4659C144.647 26.3295 144.283 26.2083 143.866 26.1023L142.543 25.7614C141.584 25.5152 140.827 25.142 140.27 24.642C139.717 24.1383 139.44 23.4697 139.44 22.6364C139.44 21.9508 139.626 21.3504 139.997 20.8352C140.372 20.3201 140.882 19.9205 141.526 19.6364C142.17 19.3485 142.899 19.2045 143.713 19.2045C144.539 19.2045 145.262 19.3485 145.884 19.6364C146.509 19.9205 146.999 20.3163 147.355 20.8239C147.711 21.3277 147.895 21.9072 147.906 22.5625H145.878ZM153.717 31.1705C152.842 31.1705 152.087 30.9886 151.45 30.625C150.818 30.2576 150.331 29.7386 149.99 29.0682C149.649 28.3939 149.479 27.6004 149.479 26.6875C149.479 25.7898 149.649 25.0019 149.99 24.3239C150.335 23.642 150.816 23.1117 151.433 22.733C152.051 22.3504 152.776 22.1591 153.609 22.1591C154.147 22.1591 154.655 22.2462 155.132 22.4205C155.613 22.5909 156.037 22.8561 156.405 23.2159C156.776 23.5758 157.068 24.0341 157.28 24.5909C157.492 25.1439 157.598 25.803 157.598 26.5682V27.1989H150.445V25.8125H155.626C155.623 25.4186 155.537 25.0682 155.371 24.7614C155.204 24.4508 154.971 24.2064 154.672 24.0284C154.376 23.8504 154.032 23.7614 153.638 23.7614C153.217 23.7614 152.848 23.8636 152.53 24.0682C152.212 24.2689 151.964 24.5341 151.786 24.8636C151.611 25.1894 151.522 25.5473 151.518 25.9375V27.1477C151.518 27.6553 151.611 28.0909 151.797 28.4545C151.982 28.8144 152.242 29.0909 152.575 29.2841C152.909 29.4735 153.299 29.5682 153.746 29.5682C154.045 29.5682 154.316 29.5265 154.558 29.4432C154.801 29.3561 155.011 29.2292 155.189 29.0625C155.367 28.8958 155.501 28.6894 155.592 28.4432L157.513 28.6591C157.392 29.1667 157.161 29.6098 156.82 29.9886C156.482 30.3636 156.051 30.6553 155.524 30.8636C154.998 31.0682 154.395 31.1705 153.717 31.1705ZM163.696 22.2727V23.8636H158.679V22.2727H163.696ZM159.918 20.1818H161.974V28.375C161.974 28.6515 162.016 28.8636 162.099 29.0114C162.187 29.1553 162.3 29.2538 162.44 29.3068C162.58 29.3598 162.736 29.3864 162.906 29.3864C163.035 29.3864 163.152 29.3769 163.259 29.358C163.368 29.339 163.452 29.322 163.509 29.3068L163.855 30.9148C163.745 30.9527 163.588 30.9943 163.384 31.0398C163.183 31.0852 162.937 31.1117 162.645 31.1193C162.13 31.1345 161.666 31.0568 161.253 30.8864C160.84 30.7121 160.512 30.4432 160.27 30.0795C160.031 29.7159 159.914 29.2614 159.918 28.7159V20.1818ZM170.979 27.3295V22.2727H173.036V31H171.041V29.4489H170.95C170.753 29.9375 170.429 30.3371 169.979 30.6477C169.532 30.9583 168.981 31.1136 168.325 31.1136C167.753 31.1136 167.248 30.9867 166.808 30.733C166.373 30.4754 166.032 30.1023 165.786 29.6136C165.539 29.1212 165.416 28.5265 165.416 27.8295V22.2727H167.473V27.5114C167.473 28.0644 167.625 28.5038 167.928 28.8295C168.231 29.1553 168.628 29.3182 169.121 29.3182C169.424 29.3182 169.717 29.2443 170.001 29.0966C170.286 28.9489 170.518 28.7292 170.7 28.4375C170.886 28.142 170.979 27.7727 170.979 27.3295ZM175.151 34.2727V22.2727H177.173V23.7159H177.293C177.399 23.5038 177.548 23.2784 177.741 23.0398C177.935 22.7973 178.196 22.5909 178.526 22.4205C178.855 22.2462 179.276 22.1591 179.787 22.1591C180.461 22.1591 181.069 22.3314 181.611 22.6761C182.156 23.017 182.588 23.5227 182.906 24.1932C183.228 24.8598 183.389 25.678 183.389 26.6477C183.389 27.6061 183.232 28.4205 182.918 29.0909C182.603 29.7614 182.175 30.2727 181.634 30.625C181.092 30.9773 180.478 31.1534 179.793 31.1534C179.293 31.1534 178.878 31.0701 178.548 30.9034C178.219 30.7367 177.954 30.536 177.753 30.3011C177.556 30.0625 177.402 29.8371 177.293 29.625H177.207V34.2727H175.151ZM177.168 26.6364C177.168 27.2008 177.247 27.6951 177.406 28.1193C177.569 28.5436 177.802 28.875 178.105 29.1136C178.412 29.3485 178.783 29.4659 179.219 29.4659C179.673 29.4659 180.054 29.3447 180.361 29.1023C180.668 28.8561 180.899 28.5208 181.054 28.0966C181.213 27.6686 181.293 27.1818 181.293 26.6364C181.293 26.0947 181.215 25.6136 181.06 25.1932C180.904 24.7727 180.673 24.4432 180.366 24.2045C180.06 23.9659 179.677 23.8466 179.219 23.8466C178.779 23.8466 178.406 23.9621 178.099 24.1932C177.793 24.4242 177.56 24.7481 177.401 25.1648C177.245 25.5814 177.168 26.072 177.168 26.6364Z" fill="white"/>
<path opacity="0.7" d="M16.6165 52.1406V50.8182H24.4964V52.1406H21.3196V61H19.7884V52.1406H16.6165ZM28.2276 61.1541C27.5117 61.1541 26.887 60.9901 26.3533 60.6619C25.8197 60.3338 25.4054 59.8748 25.1104 59.2848C24.8155 58.6948 24.668 58.0054 24.668 57.2166C24.668 56.4245 24.8155 55.7318 25.1104 55.1385C25.4054 54.5452 25.8197 54.0845 26.3533 53.7564C26.887 53.4283 27.5117 53.2642 28.2276 53.2642C28.9435 53.2642 29.5683 53.4283 30.1019 53.7564C30.6355 54.0845 31.0498 54.5452 31.3448 55.1385C31.6398 55.7318 31.7873 56.4245 31.7873 57.2166C31.7873 58.0054 31.6398 58.6948 31.3448 59.2848C31.0498 59.8748 30.6355 60.3338 30.1019 60.6619C29.5683 60.9901 28.9435 61.1541 28.2276 61.1541ZM28.2326 59.9062C28.6966 59.9062 29.0811 59.7836 29.386 59.5384C29.6909 59.2931 29.9163 58.9666 30.0621 58.5589C30.2113 58.1513 30.2859 57.7022 30.2859 57.2116C30.2859 56.7244 30.2113 56.277 30.0621 55.8693C29.9163 55.4583 29.6909 55.1286 29.386 54.88C29.0811 54.6314 28.6966 54.5071 28.2326 54.5071C27.7653 54.5071 27.3775 54.6314 27.0692 54.88C26.7643 55.1286 26.5373 55.4583 26.3881 55.8693C26.2423 56.277 26.1694 56.7244 26.1694 57.2116C26.1694 57.7022 26.2423 58.1513 26.3881 58.5589C26.5373 58.9666 26.7643 59.2931 27.0692 59.5384C27.3775 59.7836 27.7653 59.9062 28.2326 59.9062ZM37.1516 61V53.3636H38.6381V61H37.1516ZM37.9023 52.1854C37.6438 52.1854 37.4218 52.0992 37.2362 51.9268C37.0539 51.7512 36.9627 51.5424 36.9627 51.3004C36.9627 51.0552 37.0539 50.8464 37.2362 50.674C37.4218 50.4983 37.6438 50.4105 37.9023 50.4105C38.1609 50.4105 38.3813 50.4983 38.5636 50.674C38.7492 50.8464 38.842 51.0552 38.842 51.3004C38.842 51.5424 38.7492 51.7512 38.5636 51.9268C38.3813 52.0992 38.1609 52.1854 37.9023 52.1854ZM42.1245 56.4659V61H40.638V53.3636H42.0648V54.6065H42.1593C42.3349 54.2022 42.61 53.8774 42.9846 53.6321C43.3624 53.3868 43.838 53.2642 44.4114 53.2642C44.9318 53.2642 45.3875 53.3736 45.7786 53.5923C46.1697 53.8078 46.473 54.1293 46.6884 54.5568C46.9038 54.9844 47.0115 55.513 47.0115 56.1428V61H45.525V56.3217C45.525 55.7682 45.3809 55.3357 45.0925 55.0241C44.8042 54.7093 44.4081 54.5518 43.9043 54.5518C43.5596 54.5518 43.253 54.6264 42.9846 54.7756C42.7194 54.9247 42.5089 55.1435 42.3532 55.4318C42.2007 55.7169 42.1245 56.0616 42.1245 56.4659ZM54.7275 55.228L53.3801 55.4666C53.3238 55.2943 53.2343 55.1302 53.1117 54.9744C52.9924 54.8187 52.83 54.6911 52.6245 54.5916C52.419 54.4922 52.1621 54.4425 51.8539 54.4425C51.4329 54.4425 51.0816 54.5369 50.7999 54.7259C50.5182 54.9115 50.3773 55.1518 50.3773 55.4467C50.3773 55.7019 50.4718 55.9074 50.6607 56.0632C50.8496 56.219 51.1545 56.3466 51.5755 56.446L52.7885 56.7244C53.4912 56.8868 54.0149 57.1371 54.3596 57.4751C54.7042 57.8132 54.8766 58.2524 54.8766 58.7926C54.8766 59.25 54.744 59.6577 54.4789 60.0156C54.217 60.3703 53.8508 60.6487 53.3801 60.8509C52.9128 61.053 52.3709 61.1541 51.7544 61.1541C50.8993 61.1541 50.2016 60.9718 49.6614 60.6072C49.1212 60.2393 48.7897 59.7173 48.6671 59.0412L50.1039 58.8224C50.1934 59.197 50.3773 59.4804 50.6557 59.6726C50.9341 59.8615 51.2971 59.956 51.7445 59.956C52.2317 59.956 52.6212 59.8549 52.9128 59.6527C53.2045 59.4472 53.3503 59.197 53.3503 58.902C53.3503 58.6634 53.2608 58.4628 53.0819 58.3004C52.9062 58.138 52.6361 58.0154 52.2715 57.9325L50.9789 57.6491C50.2663 57.4867 49.7393 57.2282 49.3979 56.8736C49.0598 56.5189 48.8908 56.0698 48.8908 55.5263C48.8908 55.0755 49.0167 54.6811 49.2686 54.343C49.5205 54.005 49.8685 53.7415 50.3127 53.5526C50.7568 53.3603 51.2656 53.2642 51.839 53.2642C52.6642 53.2642 53.3139 53.4432 53.7878 53.8011C54.2618 54.1558 54.575 54.6314 54.7275 55.228ZM60.0756 53.3636V54.5568H55.9045V53.3636H60.0756ZM57.0231 51.5341H58.5096V58.7578C58.5096 59.0462 58.5527 59.2633 58.6388 59.4091C58.725 59.5516 58.8361 59.6494 58.9719 59.7024C59.1112 59.7521 59.262 59.777 59.4244 59.777C59.5437 59.777 59.6481 59.7687 59.7376 59.7521C59.8271 59.7356 59.8967 59.7223 59.9464 59.7124L60.2148 60.9403C60.1287 60.9735 60.006 61.0066 59.8469 61.0398C59.6879 61.0762 59.489 61.0961 59.2504 61.0994C58.8593 61.1061 58.4947 61.0365 58.1566 60.8906C57.8185 60.7448 57.5451 60.5194 57.3363 60.2145C57.1275 59.9096 57.0231 59.5268 57.0231 59.0661V51.5341ZM63.9423 61.169C63.4584 61.169 63.0209 61.0795 62.6298 60.9006C62.2387 60.7183 61.9288 60.4548 61.7001 60.1101C61.4747 59.7654 61.362 59.3428 61.362 58.8423C61.362 58.4115 61.4449 58.0568 61.6106 57.7784C61.7763 57.5 62.0001 57.2796 62.2818 57.1172C62.5635 56.9548 62.8784 56.8321 63.2264 56.7493C63.5744 56.6664 63.929 56.6035 64.2903 56.5604C64.7477 56.5073 65.1189 56.4643 65.4039 56.4311C65.689 56.3946 65.8961 56.3366 66.0254 56.2571C66.1547 56.1776 66.2193 56.0483 66.2193 55.8693V55.8345C66.2193 55.4003 66.0967 55.0639 65.8514 54.8253C65.6094 54.5866 65.2482 54.4673 64.7676 54.4673C64.2671 54.4673 63.8727 54.5784 63.5843 54.8004C63.2993 55.0192 63.1021 55.2628 62.9927 55.5312L61.5957 55.2131C61.7614 54.7491 62.0034 54.3745 62.3216 54.0895C62.6431 53.8011 63.0126 53.5923 63.4302 53.4631C63.8478 53.3305 64.287 53.2642 64.7477 53.2642C65.0526 53.2642 65.3758 53.3007 65.7172 53.3736C66.0618 53.4432 66.3833 53.5724 66.6816 53.7614C66.9833 53.9503 67.2302 54.2204 67.4224 54.5717C67.6146 54.9197 67.7108 55.3722 67.7108 55.929V61H66.2591V59.956H66.1994C66.1033 60.1482 65.9591 60.3371 65.7669 60.5227C65.5746 60.7083 65.3277 60.8625 65.0261 60.9851C64.7245 61.1077 64.3632 61.169 63.9423 61.169ZM64.2654 59.9759C64.6764 59.9759 65.0278 59.8946 65.3194 59.7322C65.6144 59.5698 65.8381 59.3577 65.9906 59.0959C66.1464 58.8307 66.2243 58.5473 66.2243 58.2457V57.2614C66.1712 57.3144 66.0685 57.3641 65.916 57.4105C65.7669 57.4536 65.5962 57.4917 65.4039 57.5249C65.2117 57.5547 65.0244 57.5829 64.8422 57.6094C64.6599 57.6326 64.5074 57.6525 64.3848 57.669C64.0964 57.7055 63.8329 57.7668 63.5943 57.853C63.359 57.9392 63.17 58.0634 63.0275 58.2259C62.8883 58.3849 62.8187 58.5971 62.8187 58.8622C62.8187 59.2301 62.9546 59.5085 63.2264 59.6974C63.4982 59.883 63.8445 59.9759 64.2654 59.9759ZM71.1772 50.8182V61H69.6907V50.8182H71.1772ZM74.6635 50.8182V61H73.177V50.8182H74.6635ZM79.9856 52.1406V50.8182H87.8656V52.1406H84.6887V61H83.1575V52.1406H79.9856ZM95.1602 53.4929C95.1071 53.0223 94.8884 52.6577 94.5039 52.3991C94.1194 52.1373 93.6355 52.0064 93.0522 52.0064C92.6346 52.0064 92.2733 52.0727 91.9684 52.2053C91.6635 52.3345 91.4265 52.5135 91.2575 52.7422C91.0917 52.9676 91.0089 53.2244 91.0089 53.5128C91.0089 53.7547 91.0652 53.9635 91.1779 54.1392C91.2939 54.3149 91.4447 54.4624 91.6303 54.5817C91.8192 54.6977 92.0214 54.7955 92.2369 54.875C92.4523 54.9512 92.6594 55.0142 92.8583 55.0639L93.8526 55.3224C94.1774 55.402 94.5105 55.5097 94.8519 55.6456C95.1933 55.7815 95.5098 55.9605 95.8015 56.1825C96.0932 56.4046 96.3285 56.6797 96.5075 57.0078C96.6897 57.3359 96.7809 57.7287 96.7809 58.1861C96.7809 58.7628 96.6317 59.2749 96.3335 59.7223C96.0385 60.1697 95.6093 60.5227 95.0458 60.7812C94.4857 61.0398 93.8079 61.169 93.0124 61.169C92.2501 61.169 91.5906 61.0481 91.0337 60.8061C90.4769 60.5642 90.0411 60.2211 89.7262 59.777C89.4113 59.3295 89.2373 58.7992 89.2042 58.1861H90.7454C90.7752 58.554 90.8945 58.8606 91.1033 59.1058C91.3155 59.3478 91.5856 59.5284 91.9137 59.6477C92.2451 59.7637 92.6081 59.8217 93.0025 59.8217C93.4367 59.8217 93.8228 59.7538 94.1609 59.6179C94.5022 59.4787 94.7707 59.2865 94.9663 59.0412C95.1618 58.7926 95.2596 58.5026 95.2596 58.1712C95.2596 57.8696 95.1734 57.6226 95.0011 57.4304C94.832 57.2382 94.6017 57.0791 94.31 56.9531C94.0217 56.8272 93.6952 56.7161 93.3306 56.62L92.1275 56.2919C91.3121 56.0698 90.6658 55.7434 90.1886 55.3125C89.7146 54.8816 89.4776 54.3116 89.4776 53.6023C89.4776 53.0156 89.6367 52.5036 89.9549 52.0661C90.2731 51.6286 90.704 51.2888 91.2475 51.0469C91.7911 50.8016 92.4042 50.679 93.087 50.679C93.7764 50.679 94.3846 50.8 94.9116 51.0419C95.4419 51.2839 95.8595 51.617 96.1644 52.0412C96.4693 52.4621 96.6284 52.946 96.6417 53.4929H95.1602ZM99.3947 61H97.764L101.428 50.8182H103.203L106.867 61H105.236L102.358 52.6676H102.278L99.3947 61ZM99.6681 57.0128H104.958V58.3054H99.6681V57.0128ZM110.152 59.608L110.077 60.1499C110.028 60.5476 109.943 60.9619 109.824 61.3928C109.708 61.8269 109.587 62.2296 109.461 62.6009C109.338 62.9721 109.237 63.267 109.158 63.4858H108.104C108.147 63.2803 108.206 63.0019 108.283 62.6506C108.359 62.3026 108.433 61.9131 108.506 61.4822C108.579 61.0514 108.634 60.6122 108.67 60.1648L108.72 59.608H110.152ZM119.426 53.3636V54.5568H115.111V53.3636H119.426ZM116.294 61V52.4787C116.294 52.0014 116.399 51.6053 116.608 51.2905C116.816 50.9723 117.093 50.7353 117.438 50.5795C117.783 50.4205 118.157 50.3409 118.561 50.3409C118.86 50.3409 119.115 50.3658 119.327 50.4155C119.539 50.4619 119.697 50.505 119.799 50.5447L119.451 51.7479C119.382 51.728 119.292 51.7048 119.183 51.6783C119.074 51.6484 118.941 51.6335 118.785 51.6335C118.424 51.6335 118.165 51.723 118.01 51.902C117.857 52.081 117.781 52.3395 117.781 52.6776V61H116.294ZM123.876 61.1541C123.16 61.1541 122.535 60.9901 122.002 60.6619C121.468 60.3338 121.054 59.8748 120.759 59.2848C120.464 58.6948 120.316 58.0054 120.316 57.2166C120.316 56.4245 120.464 55.7318 120.759 55.1385C121.054 54.5452 121.468 54.0845 122.002 53.7564C122.535 53.4283 123.16 53.2642 123.876 53.2642C124.592 53.2642 125.217 53.4283 125.75 53.7564C126.284 54.0845 126.698 54.5452 126.993 55.1385C127.288 55.7318 127.436 56.4245 127.436 57.2166C127.436 58.0054 127.288 58.6948 126.993 59.2848C126.698 59.8748 126.284 60.3338 125.75 60.6619C125.217 60.9901 124.592 61.1541 123.876 61.1541ZM123.881 59.9062C124.345 59.9062 124.73 59.7836 125.034 59.5384C125.339 59.2931 125.565 58.9666 125.711 58.5589C125.86 58.1513 125.934 57.7022 125.934 57.2116C125.934 56.7244 125.86 56.277 125.711 55.8693C125.565 55.4583 125.339 55.1286 125.034 54.88C124.73 54.6314 124.345 54.5071 123.881 54.5071C123.414 54.5071 123.026 54.6314 122.718 54.88C122.413 55.1286 122.186 55.4583 122.037 55.8693C121.891 56.277 121.818 56.7244 121.818 57.2116C121.818 57.7022 121.891 58.1513 122.037 58.5589C122.186 58.9666 122.413 59.2931 122.718 59.5384C123.026 59.7836 123.414 59.9062 123.881 59.9062ZM130.581 50.8182V61H129.095V50.8182H130.581ZM134.068 50.8182V61H132.581V50.8182H134.068ZM139.284 61.1541C138.568 61.1541 137.944 60.9901 137.41 60.6619C136.876 60.3338 136.462 59.8748 136.167 59.2848C135.872 58.6948 135.725 58.0054 135.725 57.2166C135.725 56.4245 135.872 55.7318 136.167 55.1385C136.462 54.5452 136.876 54.0845 137.41 53.7564C137.944 53.4283 138.568 53.2642 139.284 53.2642C140 53.2642 140.625 53.4283 141.159 53.7564C141.692 54.0845 142.106 54.5452 142.401 55.1385C142.696 55.7318 142.844 56.4245 142.844 57.2166C142.844 58.0054 142.696 58.6948 142.401 59.2848C142.106 59.8748 141.692 60.3338 141.159 60.6619C140.625 60.9901 140 61.1541 139.284 61.1541ZM139.289 59.9062C139.753 59.9062 140.138 59.7836 140.443 59.5384C140.748 59.2931 140.973 58.9666 141.119 58.5589C141.268 58.1513 141.343 57.7022 141.343 57.2116C141.343 56.7244 141.268 56.277 141.119 55.8693C140.973 55.4583 140.748 55.1286 140.443 54.88C140.138 54.6314 139.753 54.5071 139.289 54.5071C138.822 54.5071 138.434 54.6314 138.126 54.88C137.821 55.1286 137.594 55.4583 137.445 55.8693C137.299 56.277 137.226 56.7244 137.226 57.2116C137.226 57.7022 137.299 58.1513 137.445 58.5589C137.594 58.9666 137.821 59.2931 138.126 59.5384C138.434 59.7836 138.822 59.9062 139.289 59.9062ZM145.926 61L143.679 53.3636H145.215L146.712 58.9716H146.786L148.288 53.3636H149.824L151.316 58.9467H151.39L152.877 53.3636H154.413L152.171 61H150.654L149.103 55.4865H148.989L147.438 61H145.926ZM163.093 53.3636V54.5568H158.922V53.3636H163.093ZM160.041 51.5341H161.527V58.7578C161.527 59.0462 161.57 59.2633 161.656 59.4091C161.743 59.5516 161.854 59.6494 161.99 59.7024C162.129 59.7521 162.28 59.777 162.442 59.777C162.561 59.777 162.666 59.7687 162.755 59.7521C162.845 59.7356 162.914 59.7223 162.964 59.7124L163.232 60.9403C163.146 60.9735 163.024 61.0066 162.865 61.0398C162.705 61.0762 162.507 61.0961 162.268 61.0994C161.877 61.1061 161.512 61.0365 161.174 60.8906C160.836 60.7448 160.563 60.5194 160.354 60.2145C160.145 59.9096 160.041 59.5268 160.041 59.0661V51.5341ZM166.388 56.4659V61H164.902V50.8182H166.368V54.6065H166.463C166.642 54.1955 166.915 53.8691 167.283 53.6271C167.651 53.3852 168.132 53.2642 168.725 53.2642C169.248 53.2642 169.706 53.3719 170.097 53.5874C170.491 53.8028 170.796 54.1243 171.012 54.5518C171.23 54.9761 171.34 55.5064 171.34 56.1428V61H169.853V56.3217C169.853 55.7616 169.709 55.3274 169.421 55.0192C169.132 54.7076 168.731 54.5518 168.218 54.5518C167.866 54.5518 167.551 54.6264 167.273 54.7756C166.998 54.9247 166.781 55.1435 166.622 55.4318C166.466 55.7169 166.388 56.0616 166.388 56.4659ZM176.615 61.1541C175.862 61.1541 175.214 60.9934 174.671 60.6719C174.131 60.3471 173.713 59.8913 173.418 59.3047C173.126 58.7147 172.98 58.0237 172.98 57.2315C172.98 56.4493 173.126 55.7599 173.418 55.1634C173.713 54.5668 174.124 54.1011 174.651 53.7663C175.181 53.4316 175.801 53.2642 176.51 53.2642C176.941 53.2642 177.359 53.3355 177.763 53.478C178.167 53.6205 178.53 53.8442 178.852 54.1491C179.173 54.4541 179.427 54.8501 179.613 55.3374C179.798 55.8213 179.891 56.4096 179.891 57.1023V57.6293H173.821V56.5156H178.434C178.434 56.1245 178.355 55.7782 178.196 55.4766C178.037 55.1716 177.813 54.9313 177.525 54.7557C177.239 54.58 176.905 54.4922 176.52 54.4922C176.103 54.4922 175.738 54.5949 175.426 54.8004C175.118 55.0026 174.88 55.2678 174.711 55.5959C174.545 55.9207 174.462 56.2737 174.462 56.6548V57.5249C174.462 58.0353 174.551 58.4695 174.73 58.8274C174.913 59.1854 175.166 59.4588 175.491 59.6477C175.816 59.8333 176.195 59.9261 176.63 59.9261C176.911 59.9261 177.168 59.8864 177.4 59.8068C177.632 59.724 177.833 59.6013 178.002 59.4389C178.171 59.2765 178.3 59.076 178.39 58.8374L179.797 59.0909C179.684 59.5052 179.482 59.8681 179.19 60.1797C178.902 60.4879 178.539 60.7282 178.101 60.9006C177.667 61.0696 177.172 61.1541 176.615 61.1541ZM18.6548 68.8182V79H17.1186V68.8182H18.6548ZM22.2592 74.4659V79H20.7727V71.3636H22.1996V72.6065H22.294C22.4697 72.2022 22.7448 71.8774 23.1193 71.6321C23.4972 71.3868 23.9728 71.2642 24.5462 71.2642C25.0665 71.2642 25.5223 71.3736 25.9134 71.5923C26.3045 71.8078 26.6077 72.1293 26.8232 72.5568C27.0386 72.9844 27.1463 73.513 27.1463 74.1428V79H25.6598V74.3217C25.6598 73.7682 25.5156 73.3357 25.2273 73.0241C24.9389 72.7093 24.5429 72.5518 24.0391 72.5518C23.6944 72.5518 23.3878 72.6264 23.1193 72.7756C22.8542 72.9247 22.6437 73.1435 22.4879 73.4318C22.3355 73.7169 22.2592 74.0616 22.2592 74.4659ZM34.8622 73.228L33.5149 73.4666C33.4586 73.2943 33.3691 73.1302 33.2464 72.9744C33.1271 72.8187 32.9647 72.6911 32.7592 72.5916C32.5537 72.4922 32.2969 72.4425 31.9886 72.4425C31.5677 72.4425 31.2164 72.5369 30.9347 72.7259C30.6529 72.9115 30.5121 73.1518 30.5121 73.4467C30.5121 73.7019 30.6065 73.9074 30.7955 74.0632C30.9844 74.219 31.2893 74.3466 31.7102 74.446L32.9233 74.7244C33.6259 74.8868 34.1496 75.1371 34.4943 75.4751C34.839 75.8132 35.0114 76.2524 35.0114 76.7926C35.0114 77.25 34.8788 77.6577 34.6136 78.0156C34.3518 78.3703 33.9856 78.6487 33.5149 78.8509C33.0476 79.053 32.5057 79.1541 31.8892 79.1541C31.0341 79.1541 30.3364 78.9718 29.7962 78.6072C29.2559 78.2393 28.9245 77.7173 28.8018 77.0412L30.2386 76.8224C30.3281 77.197 30.5121 77.4804 30.7905 77.6726C31.0689 77.8615 31.4318 77.956 31.8793 77.956C32.3665 77.956 32.7559 77.8549 33.0476 77.6527C33.3393 77.4472 33.4851 77.197 33.4851 76.902C33.4851 76.6634 33.3956 76.4628 33.2166 76.3004C33.041 76.138 32.7708 76.0154 32.4062 75.9325L31.1136 75.6491C30.401 75.4867 29.8741 75.2282 29.5327 74.8736C29.1946 74.5189 29.0256 74.0698 29.0256 73.5263C29.0256 73.0755 29.1515 72.6811 29.4034 72.343C29.6553 72.005 30.0033 71.7415 30.4474 71.5526C30.8916 71.3603 31.4003 71.2642 31.9737 71.2642C32.799 71.2642 33.4486 71.4432 33.9226 71.8011C34.3965 72.1558 34.7098 72.6314 34.8622 73.228ZM40.2104 71.3636V72.5568H36.0392V71.3636H40.2104ZM37.1578 69.5341H38.6444V76.7578C38.6444 77.0462 38.6874 77.2633 38.7736 77.4091C38.8598 77.5516 38.9708 77.6494 39.1067 77.7024C39.2459 77.7521 39.3967 77.777 39.5591 77.777C39.6784 77.777 39.7828 77.7687 39.8723 77.7521C39.9618 77.7356 40.0314 77.7223 40.0811 77.7124L40.3496 78.9403C40.2634 78.9735 40.1408 79.0066 39.9817 79.0398C39.8226 79.0762 39.6238 79.0961 39.3851 79.0994C38.994 79.1061 38.6294 79.0365 38.2914 78.8906C37.9533 78.7448 37.6799 78.5194 37.4711 78.2145C37.2623 77.9096 37.1578 77.5268 37.1578 77.0661V69.5341ZM44.0771 79.169C43.5932 79.169 43.1557 79.0795 42.7646 78.9006C42.3735 78.7183 42.0636 78.4548 41.8349 78.1101C41.6095 77.7654 41.4968 77.3428 41.4968 76.8423C41.4968 76.4115 41.5797 76.0568 41.7454 75.7784C41.9111 75.5 42.1348 75.2796 42.4165 75.1172C42.6983 74.9548 43.0131 74.8321 43.3612 74.7493C43.7092 74.6664 44.0638 74.6035 44.4251 74.5604C44.8825 74.5073 45.2537 74.4643 45.5387 74.4311C45.8237 74.3946 46.0309 74.3366 46.1602 74.2571C46.2894 74.1776 46.354 74.0483 46.354 73.8693V73.8345C46.354 73.4003 46.2314 73.0639 45.9862 72.8253C45.7442 72.5866 45.3829 72.4673 44.9023 72.4673C44.4019 72.4673 44.0075 72.5784 43.7191 72.8004C43.4341 73.0192 43.2369 73.2628 43.1275 73.5312L41.7305 73.2131C41.8962 72.7491 42.1381 72.3745 42.4563 72.0895C42.7778 71.8011 43.1474 71.5923 43.565 71.4631C43.9826 71.3305 44.4218 71.2642 44.8825 71.2642C45.1874 71.2642 45.5105 71.3007 45.8519 71.3736C46.1966 71.4432 46.5181 71.5724 46.8164 71.7614C47.118 71.9503 47.3649 72.2204 47.5572 72.5717C47.7494 72.9197 47.8455 73.3722 47.8455 73.929V79H46.3938V77.956H46.3342C46.238 78.1482 46.0939 78.3371 45.9016 78.5227C45.7094 78.7083 45.4625 78.8625 45.1609 78.9851C44.8593 79.1077 44.498 79.169 44.0771 79.169ZM44.4002 77.9759C44.8112 77.9759 45.1625 77.8946 45.4542 77.7322C45.7492 77.5698 45.9729 77.3577 46.1254 77.0959C46.2811 76.8307 46.359 76.5473 46.359 76.2457V75.2614C46.306 75.3144 46.2032 75.3641 46.0508 75.4105C45.9016 75.4536 45.7309 75.4917 45.5387 75.5249C45.3465 75.5547 45.1592 75.5829 44.9769 75.6094C44.7946 75.6326 44.6422 75.6525 44.5195 75.669C44.2312 75.7055 43.9677 75.7668 43.729 75.853C43.4937 75.9392 43.3048 76.0634 43.1623 76.2259C43.0231 76.3849 42.9535 76.5971 42.9535 76.8622C42.9535 77.2301 43.0894 77.5085 43.3612 77.6974C43.6329 77.883 43.9793 77.9759 44.4002 77.9759ZM51.312 68.8182V79H49.8255V68.8182H51.312ZM54.7983 68.8182V79H53.3118V68.8182H54.7983ZM59.0204 79.169C58.5365 79.169 58.099 79.0795 57.7079 78.9006C57.3168 78.7183 57.0069 78.4548 56.7782 78.1101C56.5529 77.7654 56.4402 77.3428 56.4402 76.8423C56.4402 76.4115 56.523 76.0568 56.6887 75.7784C56.8545 75.5 57.0782 75.2796 57.3599 75.1172C57.6416 74.9548 57.9565 74.8321 58.3045 74.7493C58.6525 74.6664 59.0072 74.6035 59.3684 74.5604C59.8258 74.5073 60.197 74.4643 60.4821 74.4311C60.7671 74.3946 60.9743 74.3366 61.1035 74.2571C61.2328 74.1776 61.2974 74.0483 61.2974 73.8693V73.8345C61.2974 73.4003 61.1748 73.0639 60.9295 72.8253C60.6876 72.5866 60.3263 72.4673 59.8457 72.4673C59.3452 72.4673 58.9508 72.5784 58.6625 72.8004C58.3774 73.0192 58.1802 73.2628 58.0708 73.5312L56.6738 73.2131C56.8395 72.7491 57.0815 72.3745 57.3997 72.0895C57.7212 71.8011 58.0907 71.5923 58.5083 71.4631C58.926 71.3305 59.3651 71.2642 59.8258 71.2642C60.1307 71.2642 60.4539 71.3007 60.7953 71.3736C61.14 71.4432 61.4615 71.5724 61.7598 71.7614C62.0614 71.9503 62.3083 72.2204 62.5005 72.5717C62.6928 72.9197 62.7889 73.3722 62.7889 73.929V79H61.3372V77.956H61.2775C61.1814 78.1482 61.0372 78.3371 60.845 78.5227C60.6528 78.7083 60.4058 78.8625 60.1042 78.9851C59.8026 79.1077 59.4413 79.169 59.0204 79.169ZM59.3436 77.9759C59.7546 77.9759 60.1059 77.8946 60.3975 77.7322C60.6925 77.5698 60.9163 77.3577 61.0687 77.0959C61.2245 76.8307 61.3024 76.5473 61.3024 76.2457V75.2614C61.2493 75.3144 61.1466 75.3641 60.9941 75.4105C60.845 75.4536 60.6743 75.4917 60.4821 75.5249C60.2898 75.5547 60.1026 75.5829 59.9203 75.6094C59.738 75.6326 59.5855 75.6525 59.4629 75.669C59.1745 75.7055 58.911 75.7668 58.6724 75.853C58.4371 75.9392 58.2482 76.0634 58.1056 76.2259C57.9664 76.3849 57.8968 76.5971 57.8968 76.8622C57.8968 77.2301 58.0327 77.5085 58.3045 77.6974C58.5763 77.883 58.9226 77.9759 59.3436 77.9759ZM68.3335 71.3636V72.5568H64.1623V71.3636H68.3335ZM65.2809 69.5341H66.7674V76.7578C66.7674 77.0462 66.8105 77.2633 66.8967 77.4091C66.9828 77.5516 67.0939 77.6494 67.2298 77.7024C67.369 77.7521 67.5198 77.777 67.6822 77.777C67.8015 77.777 67.9059 77.7687 67.9954 77.7521C68.0849 77.7356 68.1545 77.7223 68.2042 77.7124L68.4727 78.9403C68.3865 78.9735 68.2638 79.0066 68.1048 79.0398C67.9457 79.0762 67.7468 79.0961 67.5082 79.0994C67.1171 79.1061 66.7525 79.0365 66.4144 78.8906C66.0763 78.7448 65.8029 78.5194 65.5941 78.2145C65.3853 77.9096 65.2809 77.5268 65.2809 77.0661V69.5341ZM69.9778 79V71.3636H71.4643V79H69.9778ZM70.7285 70.1854C70.47 70.1854 70.2479 70.0992 70.0623 69.9268C69.88 69.7512 69.7889 69.5424 69.7889 69.3004C69.7889 69.0552 69.88 68.8464 70.0623 68.674C70.2479 68.4983 70.47 68.4105 70.7285 68.4105C70.987 68.4105 71.2074 68.4983 71.3897 68.674C71.5753 68.8464 71.6681 69.0552 71.6681 69.3004C71.6681 69.5424 71.5753 69.7512 71.3897 69.9268C71.2074 70.0992 70.987 70.1854 70.7285 70.1854ZM76.6808 79.1541C75.9648 79.1541 75.3401 78.9901 74.8065 78.6619C74.2728 78.3338 73.8585 77.8748 73.5636 77.2848C73.2686 76.6948 73.1211 76.0054 73.1211 75.2166C73.1211 74.4245 73.2686 73.7318 73.5636 73.1385C73.8585 72.5452 74.2728 72.0845 74.8065 71.7564C75.3401 71.4283 75.9648 71.2642 76.6808 71.2642C77.3967 71.2642 78.0214 71.4283 78.555 71.7564C79.0887 72.0845 79.503 72.5452 79.7979 73.1385C80.0929 73.7318 80.2404 74.4245 80.2404 75.2166C80.2404 76.0054 80.0929 76.6948 79.7979 77.2848C79.503 77.8748 79.0887 78.3338 78.555 78.6619C78.0214 78.9901 77.3967 79.1541 76.6808 79.1541ZM76.6857 77.9062C77.1497 77.9062 77.5342 77.7836 77.8391 77.5384C78.1441 77.2931 78.3694 76.9666 78.5153 76.5589C78.6644 76.1513 78.739 75.7022 78.739 75.2116C78.739 74.7244 78.6644 74.277 78.5153 73.8693C78.3694 73.4583 78.1441 73.1286 77.8391 72.88C77.5342 72.6314 77.1497 72.5071 76.6857 72.5071C76.2184 72.5071 75.8306 72.6314 75.5224 72.88C75.2174 73.1286 74.9904 73.4583 74.8413 73.8693C74.6954 74.277 74.6225 74.7244 74.6225 75.2116C74.6225 75.7022 74.6954 76.1513 74.8413 76.5589C74.9904 76.9666 75.2174 77.2931 75.5224 77.5384C75.8306 77.7836 76.2184 77.9062 76.6857 77.9062ZM83.3862 74.4659V79H81.8997V71.3636H83.3265V72.6065H83.421C83.5967 72.2022 83.8717 71.8774 84.2463 71.6321C84.6241 71.3868 85.0997 71.2642 85.6731 71.2642C86.1935 71.2642 86.6492 71.3736 87.0403 71.5923C87.4314 71.8078 87.7347 72.1293 87.9501 72.5568C88.1655 72.9844 88.2733 73.513 88.2733 74.1428V79H86.7868V74.3217C86.7868 73.7682 86.6426 73.3357 86.3542 73.0241C86.0659 72.7093 85.6698 72.5518 85.166 72.5518C84.8213 72.5518 84.5147 72.6264 84.2463 72.7756C83.9811 72.9247 83.7707 73.1435 83.6149 73.4318C83.4624 73.7169 83.3862 74.0616 83.3862 74.4659ZM100.982 72.0348C100.886 71.7332 100.757 71.4631 100.594 71.2244C100.435 70.9825 100.244 70.777 100.022 70.608C99.8003 70.4356 99.5468 70.3047 99.2617 70.2152C98.98 70.1257 98.6701 70.081 98.332 70.081C97.7586 70.081 97.2416 70.2285 96.7809 70.5234C96.3202 70.8184 95.9556 71.2509 95.6871 71.821C95.422 72.3878 95.2894 73.0821 95.2894 73.9041C95.2894 74.7294 95.4237 75.4271 95.6921 75.9972C95.9606 76.5672 96.3285 76.9998 96.7958 77.2947C97.2631 77.5897 97.7951 77.7372 98.3917 77.7372C98.9452 77.7372 99.4274 77.6245 99.8384 77.3991C100.253 77.1738 100.573 76.8556 100.798 76.4446C101.027 76.0303 101.141 75.5431 101.141 74.983L101.539 75.0575H98.6254V73.7898H102.627V74.9482C102.627 75.8033 102.445 76.5457 102.081 77.1754C101.719 77.8018 101.219 78.2857 100.579 78.6271C99.9428 78.9685 99.2137 79.1392 98.3917 79.1392C97.4703 79.1392 96.6616 78.9271 95.9656 78.5028C95.2728 78.0786 94.7326 77.477 94.3448 76.6982C93.957 75.916 93.7631 74.9879 93.7631 73.9141C93.7631 73.102 93.8758 72.3729 94.1012 71.7266C94.3266 71.0803 94.6431 70.5317 95.0508 70.081C95.4618 69.6269 95.944 69.2805 96.4975 69.0419C97.0543 68.8 97.6625 68.679 98.3221 68.679C98.8723 68.679 99.3844 68.7602 99.8583 68.9226C100.336 69.085 100.76 69.3153 101.131 69.6136C101.506 69.9119 101.815 70.2666 102.061 70.6776C102.306 71.0852 102.472 71.5376 102.558 72.0348H100.982ZM109.296 75.8331V71.3636H110.787V79H109.325V77.6776H109.246C109.07 78.0852 108.789 78.425 108.401 78.6967C108.016 78.9652 107.537 79.0994 106.964 79.0994C106.473 79.0994 106.039 78.9917 105.661 78.7763C105.287 78.5575 104.992 78.2344 104.776 77.8068C104.564 77.3793 104.458 76.8506 104.458 76.2209V71.3636H105.945V76.0419C105.945 76.5623 106.089 76.9766 106.377 77.2848C106.666 77.593 107.04 77.7472 107.501 77.7472C107.779 77.7472 108.056 77.6776 108.331 77.5384C108.61 77.3991 108.84 77.1887 109.022 76.907C109.208 76.6252 109.299 76.2673 109.296 75.8331ZM112.784 79V71.3636H114.271V79H112.784ZM113.535 70.1854C113.277 70.1854 113.055 70.0992 112.869 69.9268C112.687 69.7512 112.596 69.5424 112.596 69.3004C112.596 69.0552 112.687 68.8464 112.869 68.674C113.055 68.4983 113.277 68.4105 113.535 68.4105C113.794 68.4105 114.014 68.4983 114.196 68.674C114.382 68.8464 114.475 69.0552 114.475 69.3004C114.475 69.5424 114.382 69.7512 114.196 69.9268C114.014 70.0992 113.794 70.1854 113.535 70.1854ZM119.129 79.1491C118.513 79.1491 117.963 78.9917 117.479 78.6768C116.998 78.3587 116.62 77.9062 116.345 77.3196C116.074 76.7296 115.938 76.022 115.938 75.1967C115.938 74.3714 116.075 73.6655 116.35 73.0788C116.629 72.4922 117.01 72.0431 117.494 71.7315C117.978 71.42 118.526 71.2642 119.139 71.2642C119.613 71.2642 119.994 71.3438 120.283 71.5028C120.575 71.6586 120.8 71.8409 120.959 72.0497C121.121 72.2585 121.247 72.4425 121.337 72.6016H121.426V68.8182H122.913V79H121.461V77.8118H121.337C121.247 77.9742 121.118 78.1598 120.949 78.3686C120.783 78.5774 120.555 78.7597 120.263 78.9155C119.971 79.0713 119.593 79.1491 119.129 79.1491ZM119.458 77.8814C119.885 77.8814 120.246 77.7687 120.541 77.5433C120.84 77.3146 121.065 76.9981 121.218 76.5938C121.373 76.1894 121.451 75.7187 121.451 75.1818C121.451 74.6515 121.375 74.1875 121.222 73.7898C121.07 73.392 120.846 73.0821 120.551 72.8601C120.256 72.638 119.892 72.527 119.458 72.527C119.01 72.527 118.637 72.643 118.339 72.875C118.041 73.107 117.815 73.4235 117.663 73.8246C117.514 74.2256 117.439 74.678 117.439 75.1818C117.439 75.6922 117.515 76.1513 117.668 76.5589C117.82 76.9666 118.046 77.2898 118.344 77.5284C118.646 77.7637 119.017 77.8814 119.458 77.8814ZM128.326 79.1541C127.573 79.1541 126.925 78.9934 126.382 78.6719C125.842 78.3471 125.424 77.8913 125.129 77.3047C124.837 76.7147 124.691 76.0237 124.691 75.2315C124.691 74.4493 124.837 73.7599 125.129 73.1634C125.424 72.5668 125.835 72.1011 126.362 71.7663C126.892 71.4316 127.512 71.2642 128.221 71.2642C128.652 71.2642 129.07 71.3355 129.474 71.478C129.878 71.6205 130.241 71.8442 130.563 72.1491C130.884 72.4541 131.138 72.8501 131.324 73.3374C131.509 73.8213 131.602 74.4096 131.602 75.1023V75.6293H125.532V74.5156H130.145C130.145 74.1245 130.066 73.7782 129.907 73.4766C129.748 73.1716 129.524 72.9313 129.235 72.7557C128.95 72.58 128.616 72.4922 128.231 72.4922C127.814 72.4922 127.449 72.5949 127.137 72.8004C126.829 73.0026 126.591 73.2678 126.422 73.5959C126.256 73.9207 126.173 74.2737 126.173 74.6548V75.5249C126.173 76.0353 126.262 76.4695 126.441 76.8274C126.624 77.1854 126.877 77.4588 127.202 77.6477C127.527 77.8333 127.906 77.9261 128.341 77.9261C128.622 77.9261 128.879 77.8864 129.111 77.8068C129.343 77.724 129.544 77.6013 129.713 77.4389C129.882 77.2765 130.011 77.076 130.1 76.8374L131.507 77.0909C131.395 77.5052 131.193 77.8681 130.901 78.1797C130.613 78.4879 130.25 78.7282 129.812 78.9006C129.378 79.0696 128.882 79.1541 128.326 79.1541Z" fill="white"/>
<rect x="72" y="201" width="171" height="40" rx="20" fill="white"/>
<path d="M90.6548 216.318V226.5H89.1186V216.318H90.6548ZM94.2592 221.966V226.5H92.7727V218.864H94.1996V220.107H94.294C94.4697 219.702 94.7448 219.377 95.1193 219.132C95.4972 218.887 95.9728 218.764 96.5462 218.764C97.0665 218.764 97.5223 218.874 97.9134 219.092C98.3045 219.308 98.6077 219.629 98.8232 220.057C99.0386 220.484 99.1463 221.013 99.1463 221.643V226.5H97.6598V221.822C97.6598 221.268 97.5156 220.836 97.2273 220.524C96.9389 220.209 96.5429 220.052 96.0391 220.052C95.6944 220.052 95.3878 220.126 95.1193 220.276C94.8542 220.425 94.6437 220.643 94.4879 220.932C94.3355 221.217 94.2592 221.562 94.2592 221.966ZM106.862 220.728L105.515 220.967C105.459 220.794 105.369 220.63 105.246 220.474C105.127 220.319 104.965 220.191 104.759 220.092C104.554 219.992 104.297 219.942 103.989 219.942C103.568 219.942 103.216 220.037 102.935 220.226C102.653 220.411 102.512 220.652 102.512 220.947C102.512 221.202 102.607 221.407 102.795 221.563C102.984 221.719 103.289 221.847 103.71 221.946L104.923 222.224C105.626 222.387 106.15 222.637 106.494 222.975C106.839 223.313 107.011 223.752 107.011 224.293C107.011 224.75 106.879 225.158 106.614 225.516C106.352 225.87 105.986 226.149 105.515 226.351C105.048 226.553 104.506 226.654 103.889 226.654C103.034 226.654 102.336 226.472 101.796 226.107C101.256 225.739 100.924 225.217 100.802 224.541L102.239 224.322C102.328 224.697 102.512 224.98 102.79 225.173C103.069 225.362 103.432 225.456 103.879 225.456C104.366 225.456 104.756 225.355 105.048 225.153C105.339 224.947 105.485 224.697 105.485 224.402C105.485 224.163 105.396 223.963 105.217 223.8C105.041 223.638 104.771 223.515 104.406 223.433L103.114 223.149C102.401 222.987 101.874 222.728 101.533 222.374C101.195 222.019 101.026 221.57 101.026 221.026C101.026 220.576 101.152 220.181 101.403 219.843C101.655 219.505 102.003 219.241 102.447 219.053C102.892 218.86 103.4 218.764 103.974 218.764C104.799 218.764 105.449 218.943 105.923 219.301C106.397 219.656 106.71 220.131 106.862 220.728ZM112.21 218.864V220.057H108.039V218.864H112.21ZM109.158 217.034H110.644V224.258C110.644 224.546 110.687 224.763 110.774 224.909C110.86 225.052 110.971 225.149 111.107 225.202C111.246 225.252 111.397 225.277 111.559 225.277C111.678 225.277 111.783 225.269 111.872 225.252C111.962 225.236 112.031 225.222 112.081 225.212L112.35 226.44C112.263 226.473 112.141 226.507 111.982 226.54C111.823 226.576 111.624 226.596 111.385 226.599C110.994 226.606 110.629 226.536 110.291 226.391C109.953 226.245 109.68 226.019 109.471 225.714C109.262 225.41 109.158 225.027 109.158 224.566V217.034ZM116.077 226.669C115.593 226.669 115.156 226.58 114.765 226.401C114.373 226.218 114.064 225.955 113.835 225.61C113.609 225.265 113.497 224.843 113.497 224.342C113.497 223.911 113.58 223.557 113.745 223.278C113.911 223 114.135 222.78 114.417 222.617C114.698 222.455 115.013 222.332 115.361 222.249C115.709 222.166 116.064 222.103 116.425 222.06C116.882 222.007 117.254 221.964 117.539 221.931C117.824 221.895 118.031 221.837 118.16 221.757C118.289 221.678 118.354 221.548 118.354 221.369V221.335C118.354 220.9 118.231 220.564 117.986 220.325C117.744 220.087 117.383 219.967 116.902 219.967C116.402 219.967 116.007 220.078 115.719 220.3C115.434 220.519 115.237 220.763 115.127 221.031L113.73 220.713C113.896 220.249 114.138 219.875 114.456 219.589C114.778 219.301 115.147 219.092 115.565 218.963C115.983 218.83 116.422 218.764 116.882 218.764C117.187 218.764 117.511 218.801 117.852 218.874C118.197 218.943 118.518 219.072 118.816 219.261C119.118 219.45 119.365 219.72 119.557 220.072C119.749 220.42 119.846 220.872 119.846 221.429V226.5H118.394V225.456H118.334C118.238 225.648 118.094 225.837 117.902 226.023C117.709 226.208 117.462 226.362 117.161 226.485C116.859 226.608 116.498 226.669 116.077 226.669ZM116.4 225.476C116.811 225.476 117.163 225.395 117.454 225.232C117.749 225.07 117.973 224.858 118.125 224.596C118.281 224.331 118.359 224.047 118.359 223.746V222.761C118.306 222.814 118.203 222.864 118.051 222.911C117.902 222.954 117.731 222.992 117.539 223.025C117.346 223.055 117.159 223.083 116.977 223.109C116.795 223.133 116.642 223.152 116.52 223.169C116.231 223.205 115.968 223.267 115.729 223.353C115.494 223.439 115.305 223.563 115.162 223.726C115.023 223.885 114.953 224.097 114.953 224.362C114.953 224.73 115.089 225.009 115.361 225.197C115.633 225.383 115.979 225.476 116.4 225.476ZM123.312 216.318V226.5H121.825V216.318H123.312ZM126.798 216.318V226.5H125.312V216.318H126.798ZM131.02 226.669C130.537 226.669 130.099 226.58 129.708 226.401C129.317 226.218 129.007 225.955 128.778 225.61C128.553 225.265 128.44 224.843 128.44 224.342C128.44 223.911 128.523 223.557 128.689 223.278C128.854 223 129.078 222.78 129.36 222.617C129.642 222.455 129.956 222.332 130.305 222.249C130.653 222.166 131.007 222.103 131.368 222.06C131.826 222.007 132.197 221.964 132.482 221.931C132.767 221.895 132.974 221.837 133.104 221.757C133.233 221.678 133.297 221.548 133.297 221.369V221.335C133.297 220.9 133.175 220.564 132.93 220.325C132.688 220.087 132.326 219.967 131.846 219.967C131.345 219.967 130.951 220.078 130.662 220.3C130.377 220.519 130.18 220.763 130.071 221.031L128.674 220.713C128.84 220.249 129.081 219.875 129.4 219.589C129.721 219.301 130.091 219.092 130.508 218.963C130.926 218.83 131.365 218.764 131.826 218.764C132.131 218.764 132.454 218.801 132.795 218.874C133.14 218.943 133.461 219.072 133.76 219.261C134.061 219.45 134.308 219.72 134.501 220.072C134.693 220.42 134.789 220.872 134.789 221.429V226.5H133.337V225.456H133.278C133.181 225.648 133.037 225.837 132.845 226.023C132.653 226.208 132.406 226.362 132.104 226.485C131.803 226.608 131.441 226.669 131.02 226.669ZM131.344 225.476C131.755 225.476 132.106 225.395 132.398 225.232C132.693 225.07 132.916 224.858 133.069 224.596C133.224 224.331 133.302 224.047 133.302 223.746V222.761C133.249 222.814 133.147 222.864 132.994 222.911C132.845 222.954 132.674 222.992 132.482 223.025C132.29 223.055 132.103 223.083 131.92 223.109C131.738 223.133 131.586 223.152 131.463 223.169C131.175 223.205 130.911 223.267 130.672 223.353C130.437 223.439 130.248 223.563 130.106 223.726C129.966 223.885 129.897 224.097 129.897 224.362C129.897 224.73 130.033 225.009 130.305 225.197C130.576 225.383 130.923 225.476 131.344 225.476ZM140.333 218.864V220.057H136.162V218.864H140.333ZM137.281 217.034H138.767V224.258C138.767 224.546 138.81 224.763 138.897 224.909C138.983 225.052 139.094 225.149 139.23 225.202C139.369 225.252 139.52 225.277 139.682 225.277C139.801 225.277 139.906 225.269 139.995 225.252C140.085 225.236 140.154 225.222 140.204 225.212L140.473 226.44C140.386 226.473 140.264 226.507 140.105 226.54C139.946 226.576 139.747 226.596 139.508 226.599C139.117 226.606 138.752 226.536 138.414 226.391C138.076 226.245 137.803 226.019 137.594 225.714C137.385 225.41 137.281 225.027 137.281 224.566V217.034ZM141.978 226.5V218.864H143.464V226.5H141.978ZM142.729 217.685C142.47 217.685 142.248 217.599 142.062 217.427C141.88 217.251 141.789 217.042 141.789 216.8C141.789 216.555 141.88 216.346 142.062 216.174C142.248 215.998 142.47 215.911 142.729 215.911C142.987 215.911 143.207 215.998 143.39 216.174C143.575 216.346 143.668 216.555 143.668 216.8C143.668 217.042 143.575 217.251 143.39 217.427C143.207 217.599 142.987 217.685 142.729 217.685ZM148.681 226.654C147.965 226.654 147.34 226.49 146.806 226.162C146.273 225.834 145.859 225.375 145.564 224.785C145.269 224.195 145.121 223.505 145.121 222.717C145.121 221.924 145.269 221.232 145.564 220.638C145.859 220.045 146.273 219.585 146.806 219.256C147.34 218.928 147.965 218.764 148.681 218.764C149.397 218.764 150.021 218.928 150.555 219.256C151.089 219.585 151.503 220.045 151.798 220.638C152.093 221.232 152.24 221.924 152.24 222.717C152.24 223.505 152.093 224.195 151.798 224.785C151.503 225.375 151.089 225.834 150.555 226.162C150.021 226.49 149.397 226.654 148.681 226.654ZM148.686 225.406C149.15 225.406 149.534 225.284 149.839 225.038C150.144 224.793 150.369 224.467 150.515 224.059C150.664 223.651 150.739 223.202 150.739 222.712C150.739 222.224 150.664 221.777 150.515 221.369C150.369 220.958 150.144 220.629 149.839 220.38C149.534 220.131 149.15 220.007 148.686 220.007C148.218 220.007 147.831 220.131 147.522 220.38C147.217 220.629 146.99 220.958 146.841 221.369C146.695 221.777 146.623 222.224 146.623 222.712C146.623 223.202 146.695 223.651 146.841 224.059C146.99 224.467 147.217 224.793 147.522 225.038C147.831 225.284 148.218 225.406 148.686 225.406ZM155.386 221.966V226.5H153.9V218.864H155.327V220.107H155.421C155.597 219.702 155.872 219.377 156.246 219.132C156.624 218.887 157.1 218.764 157.673 218.764C158.193 218.764 158.649 218.874 159.04 219.092C159.431 219.308 159.735 219.629 159.95 220.057C160.166 220.484 160.273 221.013 160.273 221.643V226.5H158.787V221.822C158.787 221.268 158.643 220.836 158.354 220.524C158.066 220.209 157.67 220.052 157.166 220.052C156.821 220.052 156.515 220.126 156.246 220.276C155.981 220.425 155.771 220.643 155.615 220.932C155.462 221.217 155.386 221.562 155.386 221.966ZM169.174 229.523C168.567 229.523 168.045 229.443 167.608 229.284C167.173 229.125 166.819 228.915 166.544 228.653C166.269 228.391 166.063 228.104 165.927 227.793L167.205 227.266C167.294 227.411 167.414 227.566 167.563 227.728C167.715 227.894 167.921 228.035 168.179 228.151C168.441 228.267 168.778 228.325 169.189 228.325C169.752 228.325 170.218 228.187 170.586 227.912C170.953 227.64 171.137 227.206 171.137 226.609V225.108H171.043C170.953 225.27 170.824 225.451 170.655 225.65C170.489 225.849 170.261 226.021 169.969 226.167C169.677 226.313 169.298 226.386 168.831 226.386C168.227 226.386 167.684 226.245 167.2 225.963C166.719 225.678 166.338 225.259 166.056 224.705C165.778 224.148 165.639 223.464 165.639 222.652C165.639 221.84 165.776 221.144 166.051 220.564C166.33 219.984 166.711 219.54 167.195 219.232C167.679 218.92 168.227 218.764 168.841 218.764C169.315 218.764 169.697 218.844 169.989 219.003C170.281 219.159 170.508 219.341 170.67 219.55C170.836 219.759 170.963 219.942 171.053 220.102H171.162V218.864H172.619V226.669C172.619 227.325 172.467 227.864 172.162 228.285C171.857 228.706 171.444 229.017 170.924 229.219C170.407 229.422 169.823 229.523 169.174 229.523ZM169.159 225.153C169.586 225.153 169.948 225.053 170.243 224.854C170.541 224.652 170.766 224.364 170.919 223.989C171.074 223.612 171.152 223.159 171.152 222.632C171.152 222.118 171.076 221.666 170.924 221.275C170.771 220.884 170.547 220.579 170.252 220.36C169.958 220.138 169.593 220.027 169.159 220.027C168.711 220.027 168.338 220.143 168.04 220.375C167.742 220.604 167.516 220.915 167.364 221.31C167.215 221.704 167.14 222.145 167.14 222.632C167.14 223.133 167.217 223.572 167.369 223.95C167.521 224.327 167.747 224.622 168.045 224.835C168.347 225.047 168.718 225.153 169.159 225.153ZM179.45 223.333V218.864H180.941V226.5H179.48V225.178H179.4C179.225 225.585 178.943 225.925 178.555 226.197C178.171 226.465 177.692 226.599 177.118 226.599C176.628 226.599 176.194 226.492 175.816 226.276C175.441 226.058 175.146 225.734 174.931 225.307C174.719 224.879 174.613 224.351 174.613 223.721V218.864H176.099V223.542C176.099 224.062 176.243 224.477 176.532 224.785C176.82 225.093 177.194 225.247 177.655 225.247C177.934 225.247 178.21 225.178 178.485 225.038C178.764 224.899 178.994 224.689 179.176 224.407C179.362 224.125 179.453 223.767 179.45 223.333ZM182.939 226.5V218.864H184.425V226.5H182.939ZM183.689 217.685C183.431 217.685 183.209 217.599 183.023 217.427C182.841 217.251 182.75 217.042 182.75 216.8C182.75 216.555 182.841 216.346 183.023 216.174C183.209 215.998 183.431 215.911 183.689 215.911C183.948 215.911 184.168 215.998 184.351 216.174C184.536 216.346 184.629 216.555 184.629 216.8C184.629 217.042 184.536 217.251 184.351 217.427C184.168 217.599 183.948 217.685 183.689 217.685ZM189.284 226.649C188.667 226.649 188.117 226.492 187.633 226.177C187.153 225.859 186.775 225.406 186.5 224.82C186.228 224.23 186.092 223.522 186.092 222.697C186.092 221.871 186.23 221.165 186.505 220.579C186.783 219.992 187.164 219.543 187.648 219.232C188.132 218.92 188.681 218.764 189.294 218.764C189.768 218.764 190.149 218.844 190.437 219.003C190.729 219.159 190.954 219.341 191.113 219.55C191.276 219.759 191.402 219.942 191.491 220.102H191.581V216.318H193.067V226.5H191.615V225.312H191.491C191.402 225.474 191.272 225.66 191.103 225.869C190.938 226.077 190.709 226.26 190.417 226.415C190.126 226.571 189.748 226.649 189.284 226.649ZM189.612 225.381C190.039 225.381 190.401 225.269 190.696 225.043C190.994 224.815 191.219 224.498 191.372 224.094C191.528 223.689 191.605 223.219 191.605 222.682C191.605 222.152 191.529 221.687 191.377 221.29C191.224 220.892 191.001 220.582 190.706 220.36C190.411 220.138 190.046 220.027 189.612 220.027C189.164 220.027 188.792 220.143 188.493 220.375C188.195 220.607 187.97 220.924 187.817 221.325C187.668 221.726 187.593 222.178 187.593 222.682C187.593 223.192 187.67 223.651 187.822 224.059C187.975 224.467 188.2 224.79 188.498 225.028C188.8 225.264 189.171 225.381 189.612 225.381ZM198.48 226.654C197.728 226.654 197.08 226.493 196.536 226.172C195.996 225.847 195.578 225.391 195.283 224.805C194.992 224.215 194.846 223.524 194.846 222.732C194.846 221.949 194.992 221.26 195.283 220.663C195.578 220.067 195.989 219.601 196.516 219.266C197.046 218.932 197.666 218.764 198.376 218.764C198.806 218.764 199.224 218.835 199.628 218.978C200.033 219.121 200.396 219.344 200.717 219.649C201.039 219.954 201.292 220.35 201.478 220.837C201.663 221.321 201.756 221.91 201.756 222.602V223.129H195.686V222.016H200.3C200.3 221.625 200.22 221.278 200.061 220.977C199.902 220.672 199.678 220.431 199.39 220.256C199.105 220.08 198.77 219.992 198.385 219.992C197.968 219.992 197.603 220.095 197.292 220.3C196.983 220.503 196.745 220.768 196.576 221.096C196.41 221.421 196.327 221.774 196.327 222.155V223.025C196.327 223.535 196.417 223.969 196.596 224.327C196.778 224.685 197.032 224.959 197.356 225.148C197.681 225.333 198.061 225.426 198.495 225.426C198.777 225.426 199.033 225.386 199.265 225.307C199.497 225.224 199.698 225.101 199.867 224.939C200.036 224.777 200.165 224.576 200.255 224.337L201.662 224.591C201.549 225.005 201.347 225.368 201.055 225.68C200.767 225.988 200.404 226.228 199.966 226.401C199.532 226.57 199.037 226.654 198.48 226.654Z" fill="#27262B"/>
<path d="M223.9 220.7L219.3 216.1L220.7 214.7L226.7 220.7L220.7 226.7L219.3 225.3L223.9 220.7Z" fill="#27262B"/>
<g opacity="0.6">
<path d="M26 223L31 228L36 223" stroke="white" stroke-width="2" stroke-linecap="round" stroke-linejoin="round"/>
<path d="M31 228L31 216" stroke="white" stroke-width="2" stroke-linecap="round" stroke-linejoin="round"/>
<path d="M40 228L40 232C40 232.53 39.7893 233.039 39.4142 233.414C39.0391 233.789 38.5304 234 38 234L24 234C23.4696 234 22.9609 233.789 22.5858 233.414C22.2107 233.039 22 232.53 22 232L22 228" stroke="white" stroke-width="2" stroke-linecap="round" stroke-linejoin="round"/>
</g>
</g>
<defs>
<filter id="filter0_f_28_115" x="-1026.43" y="-514.151" width="1748.58" height="2020.87" filterUnits="userSpaceOnUse" color-interpolation-filters="sRGB">
<feFlood flood-opacity="0" result="BackgroundImageFix"/>
<feBlend mode="normal" in="SourceGraphic" in2="BackgroundImageFix" result="shape"/>
<feGaussianBlur stdDeviation="198.992" result="effect1_foregroundBlur_28_115"/>
</filter>
<filter id="filter1_f_28_115" x="-451.052" y="-99.1736" width="1064.93" height="1110.64" filterUnits="userSpaceOnUse" color-interpolation-filters="sRGB">
<feFlood flood-opacity="0" result="BackgroundImageFix"/>
<feBlend mode="normal" in="SourceGraphic" in2="BackgroundImageFix" result="shape"/>
<feGaussianBlur stdDeviation="132.662" result="effect1_foregroundBlur_28_115"/>
</filter>
<clipPath id="clip0_28_115">
<path d="M0 12C0 5.37258 5.37258 0 12 0H246.667C253.294 0 258.667 5.37258 258.667 12V244C258.667 250.627 253.294 256 246.667 256H12C5.37259 256 0 250.627 0 244V12Z" fill="white"/>
</clipPath>
</defs>
</svg>
