<svg width="518" height="512" viewBox="0 0 259 256" fill="none" xmlns="http://www.w3.org/2000/svg">
<g clip-path="url(#clip0_91_478)">
<rect width="258.667" height="256" rx="30" fill="#207BF9"/>
<g filter="url(#filter0_f_91_478)">
<ellipse cx="341.897" cy="696.311" rx="341.897" ry="696.311" transform="matrix(-0.857055 -0.515224 0.539235 -0.842155 -234.593 1258.84)" fill="#207BF9" fill-opacity="0.5"/>
</g>
<g filter="url(#filter1_f_91_478)">
<ellipse cx="16.421" cy="369.889" rx="241.737" ry="311.437" transform="rotate(35.3824 16.421 369.889)" fill="#6EABFF"/>
</g>
<path d="M25.35 28.4H27.51V41H25.35V28.4ZM30.0216 32H31.6416L31.8216 32.99H31.8576C32.5896 32.21 33.5076 31.82 34.6116 31.82C35.7036 31.82 36.5616 32.15 37.1856 32.81C37.8096 33.458 38.1216 34.418 38.1216 35.69V41H36.0336V35.78C36.0336 35.096 35.8716 34.586 35.5476 34.25C35.2236 33.902 34.7616 33.728 34.1616 33.728C33.5376 33.728 33.0396 33.914 32.6676 34.286C32.2956 34.658 32.1096 35.156 32.1096 35.78V41H30.0216V32ZM43.7951 41.162C42.4751 41.162 41.5031 40.898 40.8791 40.37C40.2671 39.83 39.9191 39.08 39.8351 38.12H42.0311C42.1271 38.576 42.2951 38.912 42.5351 39.128C42.7751 39.332 43.1651 39.434 43.7051 39.434C44.2691 39.434 44.6591 39.35 44.8751 39.182C45.0911 39.002 45.1991 38.768 45.1991 38.48C45.1991 38.18 45.0671 37.952 44.8031 37.796C44.5511 37.628 44.2331 37.49 43.8491 37.382C43.4651 37.274 43.0511 37.172 42.6071 37.076C42.1631 36.968 41.7491 36.818 41.3651 36.626C40.9811 36.422 40.6571 36.152 40.3931 35.816C40.1411 35.48 40.0151 35.024 40.0151 34.448C40.0151 34.076 40.0871 33.734 40.2311 33.422C40.3751 33.098 40.5911 32.822 40.8791 32.594C41.1671 32.354 41.5271 32.168 41.9591 32.036C42.4031 31.904 42.9251 31.838 43.5251 31.838C44.7731 31.838 45.6911 32.096 46.2791 32.612C46.8671 33.128 47.2091 33.824 47.3051 34.7H45.1091C45.0131 34.316 44.8511 34.034 44.6231 33.854C44.4071 33.662 44.0411 33.566 43.5251 33.566C43.0331 33.566 42.6911 33.644 42.4991 33.8C42.3071 33.956 42.2111 34.166 42.2111 34.43C42.2111 34.718 42.3371 34.934 42.5891 35.078C42.8531 35.21 43.1771 35.324 43.5611 35.42C43.9451 35.516 44.3591 35.618 44.8031 35.726C45.2471 35.822 45.6611 35.972 46.0451 36.176C46.4291 36.38 46.7471 36.662 46.9991 37.022C47.2631 37.37 47.3951 37.85 47.3951 38.462C47.3951 38.846 47.3171 39.206 47.1611 39.542C47.0171 39.866 46.7951 40.148 46.4951 40.388C46.2071 40.628 45.8351 40.82 45.3791 40.964C44.9351 41.096 44.4071 41.162 43.7951 41.162ZM52.7093 41C52.2173 41 51.8033 40.94 51.4673 40.82C51.1313 40.7 50.8493 40.544 50.6213 40.352C50.4053 40.16 50.2373 39.95 50.1173 39.722C49.9973 39.482 49.9073 39.254 49.8473 39.038C49.7993 38.822 49.7693 38.624 49.7573 38.444C49.7453 38.264 49.7393 38.126 49.7393 38.03V33.908H48.1193V32H49.7393V29.48H51.8273V32H54.0593V33.908H51.8273V37.742C51.8273 37.838 51.8333 37.964 51.8453 38.12C51.8573 38.276 51.9053 38.426 51.9893 38.57C52.0733 38.714 52.1993 38.84 52.3673 38.948C52.5353 39.044 52.7753 39.092 53.0873 39.092H54.2393V41H52.7093ZM58.2935 41.18C57.2255 41.18 56.4335 40.94 55.9175 40.46C55.4015 39.98 55.1435 39.314 55.1435 38.462C55.1435 38.018 55.2155 37.616 55.3595 37.256C55.5035 36.896 55.7375 36.59 56.0615 36.338C56.3855 36.086 56.8055 35.894 57.3215 35.762C57.8375 35.618 58.4615 35.546 59.1935 35.546H60.9755V35.06C60.9755 34.592 60.8375 34.232 60.5615 33.98C60.2855 33.716 59.8595 33.584 59.2835 33.584C58.7075 33.584 58.2935 33.692 58.0415 33.908C57.7895 34.112 57.6395 34.376 57.5915 34.7H55.5035C55.5275 34.292 55.6235 33.914 55.7915 33.566C55.9595 33.206 56.1995 32.9 56.5115 32.648C56.8235 32.384 57.2075 32.18 57.6635 32.036C58.1315 31.892 58.6715 31.82 59.2835 31.82C60.5675 31.82 61.5155 32.114 62.1275 32.702C62.7515 33.29 63.0635 34.136 63.0635 35.24V41H61.4435L61.2455 39.83H61.2095C60.8615 40.262 60.4355 40.598 59.9315 40.838C59.4275 41.066 58.8815 41.18 58.2935 41.18ZM58.6535 39.416C58.9895 39.416 59.2955 39.362 59.5715 39.254C59.8595 39.146 60.1055 39.002 60.3095 38.822C60.5135 38.63 60.6755 38.408 60.7955 38.156C60.9155 37.892 60.9755 37.61 60.9755 37.31V37.094H59.2835C58.5635 37.094 58.0595 37.214 57.7715 37.454C57.4835 37.682 57.3395 37.994 57.3395 38.39C57.3395 38.69 57.4415 38.936 57.6455 39.128C57.8615 39.32 58.1975 39.416 58.6535 39.416ZM68.2704 41C67.7784 41 67.3644 40.94 67.0284 40.82C66.6924 40.7 66.4164 40.544 66.2004 40.352C65.9844 40.16 65.8164 39.95 65.6964 39.722C65.5764 39.482 65.4864 39.254 65.4264 39.038C65.3784 38.822 65.3484 38.624 65.3364 38.444C65.3244 38.264 65.3184 38.126 65.3184 38.03V28.4H67.4064V37.814C67.4064 38.666 67.8204 39.092 68.6484 39.092H69.0984V41H68.2704ZM73.4911 41C72.9991 41 72.5851 40.94 72.2491 40.82C71.9131 40.7 71.6371 40.544 71.4211 40.352C71.2051 40.16 71.0371 39.95 70.9171 39.722C70.7971 39.482 70.7071 39.254 70.6471 39.038C70.5991 38.822 70.5691 38.624 70.5571 38.444C70.5451 38.264 70.5391 38.126 70.5391 38.03V28.4H72.6271V37.814C72.6271 38.666 73.0411 39.092 73.8691 39.092H74.3191V41H73.4911ZM78.4556 41.18C77.3876 41.18 76.5956 40.94 76.0796 40.46C75.5636 39.98 75.3056 39.314 75.3056 38.462C75.3056 38.018 75.3776 37.616 75.5216 37.256C75.6656 36.896 75.8996 36.59 76.2236 36.338C76.5476 36.086 76.9676 35.894 77.4836 35.762C77.9996 35.618 78.6236 35.546 79.3556 35.546H81.1376V35.06C81.1376 34.592 80.9996 34.232 80.7236 33.98C80.4476 33.716 80.0216 33.584 79.4456 33.584C78.8696 33.584 78.4556 33.692 78.2036 33.908C77.9516 34.112 77.8016 34.376 77.7536 34.7H75.6656C75.6896 34.292 75.7856 33.914 75.9536 33.566C76.1216 33.206 76.3616 32.9 76.6736 32.648C76.9856 32.384 77.3696 32.18 77.8256 32.036C78.2936 31.892 78.8336 31.82 79.4456 31.82C80.7296 31.82 81.6776 32.114 82.2896 32.702C82.9136 33.29 83.2256 34.136 83.2256 35.24V41H81.6056L81.4076 39.83H81.3716C81.0236 40.262 80.5976 40.598 80.0936 40.838C79.5896 41.066 79.0436 41.18 78.4556 41.18ZM78.8156 39.416C79.1516 39.416 79.4576 39.362 79.7336 39.254C80.0216 39.146 80.2676 39.002 80.4716 38.822C80.6756 38.63 80.8376 38.408 80.9576 38.156C81.0776 37.892 81.1376 37.61 81.1376 37.31V37.094H79.4456C78.7256 37.094 78.2216 37.214 77.9336 37.454C77.6456 37.682 77.5016 37.994 77.5016 38.39C77.5016 38.69 77.6036 38.936 77.8076 39.128C78.0236 39.32 78.3596 39.416 78.8156 39.416ZM88.9905 41C88.4985 41 88.0845 40.94 87.7485 40.82C87.4125 40.7 87.1305 40.544 86.9025 40.352C86.6865 40.16 86.5185 39.95 86.3985 39.722C86.2785 39.482 86.1885 39.254 86.1285 39.038C86.0805 38.822 86.0505 38.624 86.0385 38.444C86.0265 38.264 86.0205 38.126 86.0205 38.03V33.908H84.4005V32H86.0205V29.48H88.1085V32H90.3405V33.908H88.1085V37.742C88.1085 37.838 88.1145 37.964 88.1265 38.12C88.1385 38.276 88.1865 38.426 88.2705 38.57C88.3545 38.714 88.4805 38.84 88.6485 38.948C88.8165 39.044 89.0565 39.092 89.3685 39.092H90.5205V41H88.9905ZM92.0569 32H94.1449V41H92.0569V32ZM93.1009 30.92C92.7169 30.92 92.3929 30.794 92.1289 30.542C91.8769 30.278 91.7509 29.954 91.7509 29.57C91.7509 29.186 91.8769 28.868 92.1289 28.616C92.3929 28.352 92.7169 28.22 93.1009 28.22C93.4849 28.22 93.8029 28.352 94.0549 28.616C94.3189 28.868 94.4509 29.186 94.4509 29.57C94.4509 29.954 94.3189 30.278 94.0549 30.542C93.8029 30.794 93.4849 30.92 93.1009 30.92ZM100.352 41.18C98.9963 41.18 97.9343 40.796 97.1663 40.028C96.4103 39.248 96.0323 38.138 96.0323 36.698V36.302C96.0323 35.594 96.1283 34.964 96.3203 34.412C96.5243 33.86 96.8123 33.392 97.1843 33.008C97.5683 32.624 98.0243 32.33 98.5523 32.126C99.0803 31.922 99.6803 31.82 100.352 31.82C101.708 31.82 102.764 32.21 103.52 32.99C104.288 33.758 104.672 34.862 104.672 36.302V36.698C104.672 37.406 104.57 38.036 104.366 38.588C104.174 39.14 103.886 39.608 103.502 39.992C103.13 40.376 102.674 40.67 102.134 40.874C101.606 41.078 101.012 41.18 100.352 41.18ZM100.352 39.272C101.012 39.272 101.528 39.068 101.9 38.66C102.284 38.24 102.476 37.586 102.476 36.698V36.302C102.476 35.438 102.284 34.796 101.9 34.376C101.516 33.944 101 33.728 100.352 33.728C99.6923 33.728 99.1703 33.938 98.7863 34.358C98.4143 34.766 98.2283 35.414 98.2283 36.302V36.698C98.2283 37.562 98.4203 38.21 98.8043 38.642C99.1883 39.062 99.7043 39.272 100.352 39.272ZM106.469 32H108.089L108.269 32.99H108.305C109.037 32.21 109.955 31.82 111.059 31.82C112.151 31.82 113.009 32.15 113.633 32.81C114.257 33.458 114.569 34.418 114.569 35.69V41H112.481V35.78C112.481 35.096 112.319 34.586 111.995 34.25C111.671 33.902 111.209 33.728 110.609 33.728C109.985 33.728 109.487 33.914 109.115 34.286C108.743 34.658 108.557 35.156 108.557 35.78V41H106.469V32ZM123.842 41.18C122.774 41.18 121.982 40.94 121.466 40.46C120.95 39.98 120.692 39.314 120.692 38.462C120.692 38.018 120.764 37.616 120.908 37.256C121.052 36.896 121.286 36.59 121.61 36.338C121.934 36.086 122.354 35.894 122.87 35.762C123.386 35.618 124.01 35.546 124.742 35.546H126.524V35.06C126.524 34.592 126.386 34.232 126.11 33.98C125.834 33.716 125.408 33.584 124.832 33.584C124.256 33.584 123.842 33.692 123.59 33.908C123.338 34.112 123.188 34.376 123.14 34.7H121.052C121.076 34.292 121.172 33.914 121.34 33.566C121.508 33.206 121.748 32.9 122.06 32.648C122.372 32.384 122.756 32.18 123.212 32.036C123.68 31.892 124.22 31.82 124.832 31.82C126.116 31.82 127.064 32.114 127.676 32.702C128.3 33.29 128.612 34.136 128.612 35.24V41H126.992L126.794 39.83H126.758C126.41 40.262 125.984 40.598 125.48 40.838C124.976 41.066 124.43 41.18 123.842 41.18ZM124.202 39.416C124.538 39.416 124.844 39.362 125.12 39.254C125.408 39.146 125.654 39.002 125.858 38.822C126.062 38.63 126.224 38.408 126.344 38.156C126.464 37.892 126.524 37.61 126.524 37.31V37.094H124.832C124.112 37.094 123.608 37.214 123.32 37.454C123.032 37.682 122.888 37.994 122.888 38.39C122.888 38.69 122.99 38.936 123.194 39.128C123.41 39.32 123.746 39.416 124.202 39.416ZM130.867 32H132.487L132.667 32.99H132.703C133.435 32.21 134.353 31.82 135.457 31.82C136.549 31.82 137.407 32.15 138.031 32.81C138.655 33.458 138.967 34.418 138.967 35.69V41H136.879V35.78C136.879 35.096 136.717 34.586 136.393 34.25C136.069 33.902 135.607 33.728 135.007 33.728C134.383 33.728 133.885 33.914 133.513 34.286C133.141 34.658 132.955 35.156 132.955 35.78V41H130.867V32ZM144.425 41.18C143.285 41.18 142.373 40.808 141.689 40.064C141.017 39.32 140.681 38.198 140.681 36.698V36.302C140.681 34.814 141.023 33.698 141.707 32.954C142.403 32.198 143.309 31.82 144.425 31.82C144.941 31.82 145.427 31.916 145.883 32.108C146.351 32.3 146.729 32.564 147.017 32.9H147.053V28.4H149.141V41H147.521C147.509 40.952 147.491 40.874 147.467 40.766C147.455 40.658 147.437 40.55 147.413 40.442C147.401 40.334 147.389 40.232 147.377 40.136C147.365 40.04 147.353 39.968 147.341 39.92H147.305C146.573 40.76 145.613 41.18 144.425 41.18ZM144.965 39.272C145.613 39.272 146.123 39.068 146.495 38.66C146.867 38.24 147.053 37.58 147.053 36.68V36.284C147.053 35.42 146.861 34.778 146.477 34.358C146.105 33.938 145.601 33.728 144.965 33.728C144.317 33.728 143.807 33.932 143.435 34.34C143.063 34.748 142.877 35.402 142.877 36.302V36.698C142.877 37.574 143.063 38.222 143.435 38.642C143.819 39.062 144.329 39.272 144.965 39.272ZM160.486 41.18C158.89 41.18 157.684 40.802 156.868 40.046C156.064 39.29 155.62 38.228 155.536 36.86H157.84C157.9 37.652 158.14 38.24 158.56 38.624C158.98 39.008 159.622 39.2 160.486 39.2C161.314 39.2 161.908 39.05 162.268 38.75C162.628 38.45 162.808 38.048 162.808 37.544C162.808 37.076 162.634 36.722 162.286 36.482C161.938 36.242 161.5 36.044 160.972 35.888C160.444 35.72 159.874 35.564 159.262 35.42C158.65 35.264 158.08 35.048 157.552 34.772C157.024 34.496 156.586 34.124 156.238 33.656C155.89 33.188 155.716 32.552 155.716 31.748C155.716 31.244 155.812 30.782 156.004 30.362C156.196 29.93 156.478 29.558 156.85 29.246C157.234 28.922 157.702 28.67 158.254 28.49C158.818 28.31 159.472 28.22 160.216 28.22C161.764 28.22 162.922 28.58 163.69 29.3C164.458 30.02 164.89 31.04 164.986 32.36H162.682C162.622 31.64 162.4 31.1 162.016 30.74C161.632 30.38 161.032 30.2 160.216 30.2C159.424 30.2 158.854 30.35 158.506 30.65C158.158 30.938 157.984 31.31 157.984 31.766C157.984 32.258 158.158 32.63 158.506 32.882C158.854 33.122 159.292 33.32 159.82 33.476C160.348 33.632 160.918 33.782 161.53 33.926C162.142 34.058 162.712 34.256 163.24 34.52C163.768 34.784 164.206 35.156 164.554 35.636C164.902 36.104 165.076 36.746 165.076 37.562C165.076 38.09 164.98 38.576 164.788 39.02C164.608 39.464 164.326 39.848 163.942 40.172C163.558 40.484 163.078 40.73 162.502 40.91C161.926 41.09 161.254 41.18 160.486 41.18ZM170.753 41.18C169.397 41.18 168.335 40.796 167.567 40.028C166.811 39.248 166.433 38.138 166.433 36.698V36.302C166.433 35.594 166.529 34.964 166.721 34.412C166.925 33.848 167.207 33.374 167.567 32.99C167.939 32.606 168.383 32.318 168.899 32.126C169.427 31.922 170.015 31.82 170.663 31.82C171.971 31.82 173.003 32.21 173.759 32.99C174.515 33.77 174.893 34.904 174.893 36.392V37.148H168.539C168.599 37.94 168.797 38.516 169.133 38.876C169.469 39.236 169.979 39.416 170.663 39.416C171.743 39.416 172.403 39.044 172.643 38.3H174.803C174.599 39.236 174.143 39.95 173.435 40.442C172.739 40.934 171.845 41.18 170.753 41.18ZM170.663 33.584C170.027 33.584 169.541 33.746 169.205 34.07C168.869 34.382 168.653 34.892 168.557 35.6H172.769C172.685 34.892 172.475 34.382 172.139 34.07C171.803 33.746 171.311 33.584 170.663 33.584ZM180.203 41C179.711 41 179.297 40.94 178.961 40.82C178.625 40.7 178.343 40.544 178.115 40.352C177.899 40.16 177.731 39.95 177.611 39.722C177.491 39.482 177.401 39.254 177.341 39.038C177.293 38.822 177.263 38.624 177.251 38.444C177.239 38.264 177.233 38.126 177.233 38.03V33.908H175.613V32H177.233V29.48H179.321V32H181.553V33.908H179.321V37.742C179.321 37.838 179.327 37.964 179.339 38.12C179.351 38.276 179.399 38.426 179.483 38.57C179.567 38.714 179.693 38.84 179.861 38.948C180.029 39.044 180.269 39.092 180.581 39.092H181.733V41H180.203ZM186.42 41.18C185.424 41.18 184.62 40.85 184.008 40.19C183.396 39.518 183.09 38.528 183.09 37.22V32H185.178V37.22C185.178 37.904 185.334 38.42 185.646 38.768C185.958 39.104 186.366 39.272 186.87 39.272C187.494 39.272 187.992 39.086 188.364 38.714C188.736 38.342 188.922 37.844 188.922 37.22V32H191.01V41H189.39L189.21 40.01H189.174C188.478 40.79 187.56 41.18 186.42 41.18ZM193.358 32H194.978L195.158 33.08H195.194C195.926 32.24 196.886 31.82 198.074 31.82C198.638 31.82 199.148 31.916 199.604 32.108C200.072 32.288 200.468 32.564 200.792 32.936C201.116 33.308 201.368 33.776 201.548 34.34C201.728 34.892 201.818 35.546 201.818 36.302V36.698C201.818 38.186 201.47 39.308 200.774 40.064C200.09 40.808 199.19 41.18 198.074 41.18C197.558 41.18 197.066 41.084 196.598 40.892C196.142 40.7 195.77 40.436 195.482 40.1H195.446V44.6H193.358V32ZM197.534 39.272C198.182 39.272 198.692 39.068 199.064 38.66C199.436 38.252 199.622 37.598 199.622 36.698V36.302C199.622 35.426 199.43 34.778 199.046 34.358C198.674 33.938 198.17 33.728 197.534 33.728C196.886 33.728 196.376 33.938 196.004 34.358C195.632 34.766 195.446 35.42 195.446 36.32V36.716C195.446 37.58 195.632 38.222 196.004 38.642C196.388 39.062 196.898 39.272 197.534 39.272Z" fill="white"/>
<path opacity="0.7" d="M27.645 61.79H24.3V60.5H32.4V61.79H29.055V71H27.645V61.79ZM35.332 71.12C34.262 71.12 33.417 70.805 32.797 70.175C32.187 69.545 31.882 68.64 31.882 67.46V67.04C31.882 65.87 32.192 64.97 32.812 64.34C33.432 63.7 34.272 63.38 35.332 63.38C36.402 63.38 37.242 63.695 37.852 64.325C38.472 64.955 38.782 65.86 38.782 67.04V67.46C38.782 68.63 38.472 69.535 37.852 70.175C37.232 70.805 36.392 71.12 35.332 71.12ZM35.332 69.89C35.962 69.89 36.457 69.695 36.817 69.305C37.187 68.905 37.372 68.29 37.372 67.46V67.04C37.372 66.22 37.187 65.61 36.817 65.21C36.457 64.81 35.962 64.61 35.332 64.61C34.702 64.61 34.202 64.81 33.832 65.21C33.472 65.6 33.292 66.21 33.292 67.04V67.46C33.292 68.28 33.472 68.89 33.832 69.29C34.202 69.69 34.702 69.89 35.332 69.89ZM44.4491 63.5H45.7991V71H44.4491V63.5ZM45.1241 62.375C44.8641 62.375 44.6491 62.29 44.4791 62.12C44.3091 61.95 44.2241 61.735 44.2241 61.475C44.2241 61.215 44.3091 61 44.4791 60.83C44.6491 60.66 44.8641 60.575 45.1241 60.575C45.3841 60.575 45.5991 60.66 45.7691 60.83C45.9391 61 46.0241 61.215 46.0241 61.475C46.0241 61.735 45.9391 61.95 45.7691 62.12C45.5991 62.29 45.3841 62.375 45.1241 62.375ZM48.167 63.5H49.217L49.352 64.475H49.382C49.702 64.095 50.047 63.82 50.417 63.65C50.797 63.47 51.237 63.38 51.737 63.38C52.637 63.38 53.342 63.645 53.852 64.175C54.362 64.705 54.617 65.48 54.617 66.5V71H53.267V66.575C53.267 65.905 53.112 65.41 52.802 65.09C52.502 64.77 52.057 64.61 51.467 64.61C50.877 64.61 50.402 64.79 50.042 65.15C49.692 65.5 49.517 65.975 49.517 66.575V71H48.167V63.5ZM59.4949 71.12C58.4549 71.12 57.6849 70.91 57.1849 70.49C56.6949 70.06 56.4149 69.48 56.3449 68.75H57.7549C57.8349 69.11 57.9899 69.39 58.2199 69.59C58.4599 69.79 58.8599 69.89 59.4199 69.89C59.9899 69.89 60.3849 69.805 60.6049 69.635C60.8249 69.455 60.9349 69.225 60.9349 68.945C60.9349 68.655 60.8249 68.435 60.6049 68.285C60.3849 68.125 60.1099 67.995 59.7799 67.895C59.4499 67.795 59.0949 67.7 58.7149 67.61C58.3349 67.52 57.9799 67.395 57.6499 67.235C57.3199 67.075 57.0449 66.86 56.8249 66.59C56.6049 66.32 56.4949 65.95 56.4949 65.48C56.4949 65.18 56.5499 64.905 56.6599 64.655C56.7799 64.395 56.9549 64.175 57.1849 63.995C57.4149 63.805 57.6999 63.655 58.0399 63.545C58.3899 63.435 58.7999 63.38 59.2699 63.38C60.2499 63.38 60.9749 63.585 61.4449 63.995C61.9149 64.405 62.1899 64.94 62.2699 65.6H60.8599C60.8199 65.45 60.7649 65.315 60.6949 65.195C60.6249 65.075 60.5299 64.97 60.4099 64.88C60.2899 64.79 60.1349 64.725 59.9449 64.685C59.7649 64.635 59.5399 64.61 59.2699 64.61C58.7699 64.61 58.4149 64.695 58.2049 64.865C58.0049 65.025 57.9049 65.23 57.9049 65.48C57.9049 65.75 58.0149 65.955 58.2349 66.095C58.4549 66.235 58.7299 66.35 59.0599 66.44C59.3899 66.53 59.7449 66.62 60.1249 66.71C60.5049 66.8 60.8599 66.93 61.1899 67.1C61.5199 67.26 61.7949 67.485 62.0149 67.775C62.2349 68.065 62.3449 68.455 62.3449 68.945C62.3449 69.255 62.2849 69.545 62.1649 69.815C62.0549 70.075 61.8799 70.305 61.6399 70.505C61.4099 70.695 61.1149 70.845 60.7549 70.955C60.3949 71.065 59.9749 71.12 59.4949 71.12ZM66.8034 71C66.2534 71 65.8284 70.905 65.5284 70.715C65.2384 70.525 65.0234 70.305 64.8834 70.055C64.7434 69.805 64.6584 69.56 64.6284 69.32C64.6084 69.07 64.5984 68.895 64.5984 68.795V64.73H63.2484V63.5H64.5984V61.4H65.9484V63.5H67.8984V64.73H65.9484V68.645C65.9484 69.395 66.2984 69.77 66.9984 69.77H68.0484V71H66.8034ZM71.652 71.12C70.802 71.12 70.162 70.92 69.732 70.52C69.312 70.12 69.102 69.575 69.102 68.885C69.102 68.135 69.352 67.545 69.852 67.115C70.362 66.675 71.187 66.455 72.327 66.455H74.052V66.05C74.052 65.56 73.922 65.2 73.662 64.97C73.412 64.73 72.992 64.61 72.402 64.61C71.862 64.61 71.467 64.705 71.217 64.895C70.967 65.075 70.822 65.31 70.782 65.6H69.402C69.422 65.29 69.497 65 69.627 64.73C69.767 64.46 69.962 64.225 70.212 64.025C70.462 63.825 70.767 63.67 71.127 63.56C71.497 63.44 71.922 63.38 72.402 63.38C73.432 63.38 74.187 63.61 74.667 64.07C75.157 64.53 75.402 65.215 75.402 66.125V71H74.352L74.187 69.875H74.157C73.547 70.705 72.712 71.12 71.652 71.12ZM71.802 69.89C72.112 69.89 72.402 69.84 72.672 69.74C72.952 69.63 73.192 69.485 73.392 69.305C73.602 69.115 73.762 68.9 73.872 68.66C73.992 68.41 74.052 68.145 74.052 67.865V67.595H72.402C71.702 67.595 71.212 67.715 70.932 67.955C70.652 68.185 70.512 68.49 70.512 68.87C70.512 69.17 70.617 69.415 70.827 69.605C71.047 69.795 71.372 69.89 71.802 69.89ZM79.7711 71C79.2311 71 78.8111 70.905 78.5111 70.715C78.2111 70.525 77.9911 70.305 77.8511 70.055C77.7211 69.805 77.6411 69.56 77.6111 69.32C77.5911 69.08 77.5811 68.905 77.5811 68.795V60.5H78.9311V68.645C78.9311 69.395 79.2761 69.77 79.9661 69.77H80.4311V71H79.7711ZM84.1216 71C83.5816 71 83.1616 70.905 82.8616 70.715C82.5616 70.525 82.3416 70.305 82.2016 70.055C82.0716 69.805 81.9916 69.56 81.9616 69.32C81.9416 69.08 81.9316 68.905 81.9316 68.795V60.5H83.2816V68.645C83.2816 69.395 83.6266 69.77 84.3166 69.77H84.7816V71H84.1216ZM92.5522 61.79H89.2072V60.5H97.3072V61.79H93.9622V71H92.5522V61.79ZM102.114 71.12C100.834 71.12 99.8687 70.82 99.2187 70.22C98.5787 69.62 98.2187 68.78 98.1387 67.7H99.6387C99.7187 68.41 99.9487 68.945 100.329 69.305C100.709 69.655 101.304 69.83 102.114 69.83C102.884 69.83 103.444 69.68 103.794 69.38C104.144 69.07 104.319 68.67 104.319 68.18C104.319 67.86 104.229 67.6 104.049 67.4C103.879 67.19 103.654 67.02 103.374 66.89C103.094 66.75 102.774 66.63 102.414 66.53C102.054 66.43 101.684 66.33 101.304 66.23C100.924 66.12 100.554 65.995 100.194 65.855C99.8337 65.715 99.5137 65.535 99.2337 65.315C98.9537 65.085 98.7237 64.805 98.5437 64.475C98.3737 64.135 98.2887 63.72 98.2887 63.23C98.2887 62.83 98.3637 62.455 98.5137 62.105C98.6737 61.755 98.9037 61.455 99.2037 61.205C99.5037 60.945 99.8787 60.745 100.329 60.605C100.779 60.455 101.299 60.38 101.889 60.38C103.129 60.38 104.054 60.67 104.664 61.25C105.284 61.82 105.634 62.62 105.714 63.65H104.214C104.174 63.31 104.104 63.015 104.004 62.765C103.904 62.515 103.764 62.31 103.584 62.15C103.404 61.98 103.174 61.86 102.894 61.79C102.614 61.71 102.279 61.67 101.889 61.67C101.139 61.67 100.594 61.82 100.254 62.12C99.9237 62.41 99.7587 62.78 99.7587 63.23C99.7587 63.56 99.8437 63.83 100.014 64.04C100.194 64.25 100.424 64.425 100.704 64.565C100.984 64.705 101.304 64.825 101.664 64.925C102.024 65.015 102.394 65.11 102.774 65.21C103.154 65.31 103.524 65.43 103.884 65.57C104.244 65.7 104.564 65.88 104.844 66.11C105.124 66.33 105.349 66.61 105.519 66.95C105.699 67.28 105.789 67.695 105.789 68.195C105.789 68.625 105.714 69.02 105.564 69.38C105.414 69.74 105.184 70.05 104.874 70.31C104.574 70.56 104.194 70.76 103.734 70.91C103.274 71.05 102.734 71.12 102.114 71.12ZM110.449 60.5H112.099L115.924 71H114.394L113.404 68.12H109.069L108.064 71H106.624L110.449 60.5ZM112.954 66.83L111.274 61.925H111.244L109.519 66.83H112.954ZM118.038 69.425H119.598L118.548 73.25H117.348L118.038 69.425ZM126.27 64.73H124.92V63.5H126.27V62.75C126.27 62.01 126.46 61.45 126.84 61.07C127.23 60.69 127.815 60.5 128.595 60.5H129.72V61.73H128.745C128.355 61.73 128.07 61.82 127.89 62C127.71 62.18 127.62 62.48 127.62 62.9V63.5H129.42V64.73H127.62V71H126.27V64.73ZM133.696 71.12C132.626 71.12 131.781 70.805 131.161 70.175C130.551 69.545 130.246 68.64 130.246 67.46V67.04C130.246 65.87 130.556 64.97 131.176 64.34C131.796 63.7 132.636 63.38 133.696 63.38C134.766 63.38 135.606 63.695 136.216 64.325C136.836 64.955 137.146 65.86 137.146 67.04V67.46C137.146 68.63 136.836 69.535 136.216 70.175C135.596 70.805 134.756 71.12 133.696 71.12ZM133.696 69.89C134.326 69.89 134.821 69.695 135.181 69.305C135.551 68.905 135.736 68.29 135.736 67.46V67.04C135.736 66.22 135.551 65.61 135.181 65.21C134.821 64.81 134.326 64.61 133.696 64.61C133.066 64.61 132.566 64.81 132.196 65.21C131.836 65.6 131.656 66.21 131.656 67.04V67.46C131.656 68.28 131.836 68.89 132.196 69.29C132.566 69.69 133.066 69.89 133.696 69.89ZM141.133 71C140.593 71 140.173 70.905 139.873 70.715C139.573 70.525 139.353 70.305 139.213 70.055C139.083 69.805 139.003 69.56 138.973 69.32C138.953 69.08 138.943 68.905 138.943 68.795V60.5H140.293V68.645C140.293 69.395 140.638 69.77 141.328 69.77H141.793V71H141.133ZM145.484 71C144.944 71 144.524 70.905 144.224 70.715C143.924 70.525 143.704 70.305 143.564 70.055C143.434 69.805 143.354 69.56 143.324 69.32C143.304 69.08 143.294 68.905 143.294 68.795V60.5H144.644V68.645C144.644 69.395 144.989 69.77 145.679 69.77H146.144V71H145.484ZM150.645 71.12C149.575 71.12 148.73 70.805 148.11 70.175C147.5 69.545 147.195 68.64 147.195 67.46V67.04C147.195 65.87 147.505 64.97 148.125 64.34C148.745 63.7 149.585 63.38 150.645 63.38C151.715 63.38 152.555 63.695 153.165 64.325C153.785 64.955 154.095 65.86 154.095 67.04V67.46C154.095 68.63 153.785 69.535 153.165 70.175C152.545 70.805 151.705 71.12 150.645 71.12ZM150.645 69.89C151.275 69.89 151.77 69.695 152.13 69.305C152.5 68.905 152.685 68.29 152.685 67.46V67.04C152.685 66.22 152.5 65.61 152.13 65.21C151.77 64.81 151.275 64.61 150.645 64.61C150.015 64.61 149.515 64.81 149.145 65.21C148.785 65.6 148.605 66.21 148.605 67.04V67.46C148.605 68.28 148.785 68.89 149.145 69.29C149.515 69.69 150.015 69.89 150.645 69.89ZM154.995 63.5H156.435L158.04 69.5H158.07L159.465 63.5H161.295L162.915 69.5H162.945L164.445 63.5H165.795L163.86 71H162.03L160.38 65H160.35L158.91 71H157.08L154.995 63.5ZM27.78 90C27.23 90 26.805 89.905 26.505 89.715C26.215 89.525 26 89.305 25.86 89.055C25.72 88.805 25.635 88.56 25.605 88.32C25.585 88.07 25.575 87.895 25.575 87.795V83.73H24.225V82.5H25.575V80.4H26.925V82.5H28.875V83.73H26.925V87.645C26.925 88.395 27.275 88.77 27.975 88.77H29.025V90H27.78ZM30.5303 79.5H31.8803V83.4H31.9103C32.4803 82.72 33.2103 82.38 34.1003 82.38C35.0003 82.38 35.7053 82.645 36.2153 83.175C36.7253 83.705 36.9803 84.48 36.9803 85.5V90H35.6303V85.575C35.6303 84.905 35.4753 84.41 35.1653 84.09C34.8653 83.77 34.4203 83.61 33.8303 83.61C33.2403 83.61 32.7653 83.79 32.4053 84.15C32.0553 84.5 31.8803 84.975 31.8803 85.575V90H30.5303V79.5ZM42.1582 90.12C41.6282 90.12 41.1482 90.04 40.7182 89.88C40.2982 89.71 39.9382 89.47 39.6382 89.16C39.3382 88.84 39.1082 88.455 38.9482 88.005C38.7882 87.555 38.7082 87.04 38.7082 86.46V86.04C38.7082 85.46 38.7882 84.945 38.9482 84.495C39.1082 84.035 39.3332 83.65 39.6232 83.34C39.9232 83.03 40.2782 82.795 40.6882 82.635C41.1082 82.465 41.5732 82.38 42.0832 82.38C42.5932 82.38 43.0532 82.465 43.4632 82.635C43.8832 82.795 44.2382 83.035 44.5282 83.355C44.8282 83.675 45.0582 84.065 45.2182 84.525C45.3782 84.985 45.4582 85.515 45.4582 86.115V86.655H40.1182C40.1382 87.365 40.3182 87.915 40.6582 88.305C41.0082 88.695 41.4832 88.89 42.0832 88.89C42.5632 88.89 42.9582 88.8 43.2682 88.62C43.5782 88.44 43.8132 88.15 43.9732 87.75H45.3832C45.2032 88.53 44.8332 89.12 44.2732 89.52C43.7232 89.92 43.0182 90.12 42.1582 90.12ZM42.0832 83.61C41.5132 83.61 41.0632 83.775 40.7332 84.105C40.4032 84.435 40.2032 84.915 40.1332 85.545H44.0482C43.9282 84.255 43.2732 83.61 42.0832 83.61ZM51.2038 79.5H52.6138V90H51.2038V79.5ZM55.0518 82.5H56.1018L56.2368 83.475H56.2668C56.5868 83.095 56.9318 82.82 57.3018 82.65C57.6818 82.47 58.1218 82.38 58.6218 82.38C59.5218 82.38 60.2268 82.645 60.7368 83.175C61.2468 83.705 61.5018 84.48 61.5018 85.5V90H60.1518V85.575C60.1518 84.905 59.9968 84.41 59.6868 84.09C59.3868 83.77 58.9418 83.61 58.3518 83.61C57.7618 83.61 57.2868 83.79 56.9268 84.15C56.5768 84.5 56.4018 84.975 56.4018 85.575V90H55.0518V82.5ZM66.3797 90.12C65.3397 90.12 64.5697 89.91 64.0697 89.49C63.5797 89.06 63.2997 88.48 63.2297 87.75H64.6397C64.7197 88.11 64.8747 88.39 65.1047 88.59C65.3447 88.79 65.7447 88.89 66.3047 88.89C66.8747 88.89 67.2697 88.805 67.4897 88.635C67.7097 88.455 67.8197 88.225 67.8197 87.945C67.8197 87.655 67.7097 87.435 67.4897 87.285C67.2697 87.125 66.9947 86.995 66.6647 86.895C66.3347 86.795 65.9797 86.7 65.5997 86.61C65.2197 86.52 64.8647 86.395 64.5347 86.235C64.2047 86.075 63.9297 85.86 63.7097 85.59C63.4897 85.32 63.3797 84.95 63.3797 84.48C63.3797 84.18 63.4347 83.905 63.5447 83.655C63.6647 83.395 63.8397 83.175 64.0697 82.995C64.2997 82.805 64.5847 82.655 64.9247 82.545C65.2747 82.435 65.6847 82.38 66.1547 82.38C67.1347 82.38 67.8597 82.585 68.3297 82.995C68.7997 83.405 69.0747 83.94 69.1547 84.6H67.7447C67.7047 84.45 67.6497 84.315 67.5797 84.195C67.5097 84.075 67.4147 83.97 67.2947 83.88C67.1747 83.79 67.0197 83.725 66.8297 83.685C66.6497 83.635 66.4247 83.61 66.1547 83.61C65.6547 83.61 65.2997 83.695 65.0897 83.865C64.8897 84.025 64.7897 84.23 64.7897 84.48C64.7897 84.75 64.8997 84.955 65.1197 85.095C65.3397 85.235 65.6147 85.35 65.9447 85.44C66.2747 85.53 66.6297 85.62 67.0097 85.71C67.3897 85.8 67.7447 85.93 68.0747 86.1C68.4047 86.26 68.6797 86.485 68.8997 86.775C69.1197 87.065 69.2297 87.455 69.2297 87.945C69.2297 88.255 69.1697 88.545 69.0497 88.815C68.9397 89.075 68.7647 89.305 68.5247 89.505C68.2947 89.695 67.9997 89.845 67.6397 89.955C67.2797 90.065 66.8597 90.12 66.3797 90.12ZM73.6882 90C73.1382 90 72.7132 89.905 72.4132 89.715C72.1232 89.525 71.9082 89.305 71.7682 89.055C71.6282 88.805 71.5432 88.56 71.5132 88.32C71.4932 88.07 71.4832 87.895 71.4832 87.795V83.73H70.1332V82.5H71.4832V80.4H72.8332V82.5H74.7832V83.73H72.8332V87.645C72.8332 88.395 73.1832 88.77 73.8832 88.77H74.9332V90H73.6882ZM78.5367 90.12C77.6867 90.12 77.0467 89.92 76.6167 89.52C76.1967 89.12 75.9867 88.575 75.9867 87.885C75.9867 87.135 76.2367 86.545 76.7367 86.115C77.2467 85.675 78.0717 85.455 79.2117 85.455H80.9367V85.05C80.9367 84.56 80.8067 84.2 80.5467 83.97C80.2967 83.73 79.8767 83.61 79.2867 83.61C78.7467 83.61 78.3517 83.705 78.1017 83.895C77.8517 84.075 77.7067 84.31 77.6667 84.6H76.2867C76.3067 84.29 76.3817 84 76.5117 83.73C76.6517 83.46 76.8467 83.225 77.0967 83.025C77.3467 82.825 77.6517 82.67 78.0117 82.56C78.3817 82.44 78.8067 82.38 79.2867 82.38C80.3167 82.38 81.0717 82.61 81.5517 83.07C82.0417 83.53 82.2867 84.215 82.2867 85.125V90H81.2367L81.0717 88.875H81.0417C80.4317 89.705 79.5967 90.12 78.5367 90.12ZM78.6867 88.89C78.9967 88.89 79.2867 88.84 79.5567 88.74C79.8367 88.63 80.0767 88.485 80.2767 88.305C80.4867 88.115 80.6467 87.9 80.7567 87.66C80.8767 87.41 80.9367 87.145 80.9367 86.865V86.595H79.2867C78.5867 86.595 78.0967 86.715 77.8167 86.955C77.5367 87.185 77.3967 87.49 77.3967 87.87C77.3967 88.17 77.5017 88.415 77.7117 88.605C77.9317 88.795 78.2567 88.89 78.6867 88.89ZM86.6558 90C86.1158 90 85.6958 89.905 85.3958 89.715C85.0958 89.525 84.8758 89.305 84.7358 89.055C84.6058 88.805 84.5258 88.56 84.4958 88.32C84.4758 88.08 84.4658 87.905 84.4658 87.795V79.5H85.8158V87.645C85.8158 88.395 86.1608 88.77 86.8508 88.77H87.3158V90H86.6558ZM91.0064 90C90.4664 90 90.0464 89.905 89.7464 89.715C89.4464 89.525 89.2264 89.305 89.0864 89.055C88.9564 88.805 88.8764 88.56 88.8464 88.32C88.8264 88.08 88.8164 87.905 88.8164 87.795V79.5H90.1664V87.645C90.1664 88.395 90.5114 88.77 91.2014 88.77H91.6664V90H91.0064ZM95.3385 90.12C94.4885 90.12 93.8485 89.92 93.4185 89.52C92.9985 89.12 92.7885 88.575 92.7885 87.885C92.7885 87.135 93.0385 86.545 93.5385 86.115C94.0485 85.675 94.8735 85.455 96.0135 85.455H97.7385V85.05C97.7385 84.56 97.6085 84.2 97.3485 83.97C97.0985 83.73 96.6785 83.61 96.0885 83.61C95.5485 83.61 95.1535 83.705 94.9035 83.895C94.6535 84.075 94.5085 84.31 94.4685 84.6H93.0885C93.1085 84.29 93.1835 84 93.3135 83.73C93.4535 83.46 93.6485 83.225 93.8985 83.025C94.1485 82.825 94.4535 82.67 94.8135 82.56C95.1835 82.44 95.6085 82.38 96.0885 82.38C97.1185 82.38 97.8735 82.61 98.3535 83.07C98.8435 83.53 99.0885 84.215 99.0885 85.125V90H98.0385L97.8735 88.875H97.8435C97.2335 89.705 96.3985 90.12 95.3385 90.12ZM95.4885 88.89C95.7985 88.89 96.0885 88.84 96.3585 88.74C96.6385 88.63 96.8785 88.485 97.0785 88.305C97.2885 88.115 97.4485 87.9 97.5585 87.66C97.6785 87.41 97.7385 87.145 97.7385 86.865V86.595H96.0885C95.3885 86.595 94.8985 86.715 94.6185 86.955C94.3385 87.185 94.1985 87.49 94.1985 87.87C94.1985 88.17 94.3035 88.415 94.5135 88.605C94.7335 88.795 95.0585 88.89 95.4885 88.89ZM103.923 90C103.373 90 102.948 89.905 102.648 89.715C102.358 89.525 102.143 89.305 102.003 89.055C101.863 88.805 101.778 88.56 101.748 88.32C101.728 88.07 101.718 87.895 101.718 87.795V83.73H100.368V82.5H101.718V80.4H103.068V82.5H105.018V83.73H103.068V87.645C103.068 88.395 103.418 88.77 104.118 88.77H105.168V90H103.923ZM106.793 82.5H108.143V90H106.793V82.5ZM107.468 81.375C107.208 81.375 106.993 81.29 106.823 81.12C106.653 80.95 106.568 80.735 106.568 80.475C106.568 80.215 106.653 80 106.823 79.83C106.993 79.66 107.208 79.575 107.468 79.575C107.728 79.575 107.943 79.66 108.113 79.83C108.283 80 108.368 80.215 108.368 80.475C108.368 80.735 108.283 80.95 108.113 81.12C107.943 81.29 107.728 81.375 107.468 81.375ZM113.511 90.12C112.441 90.12 111.596 89.805 110.976 89.175C110.366 88.545 110.061 87.64 110.061 86.46V86.04C110.061 84.87 110.371 83.97 110.991 83.34C111.611 82.7 112.451 82.38 113.511 82.38C114.581 82.38 115.421 82.695 116.031 83.325C116.651 83.955 116.961 84.86 116.961 86.04V86.46C116.961 87.63 116.651 88.535 116.031 89.175C115.411 89.805 114.571 90.12 113.511 90.12ZM113.511 88.89C114.141 88.89 114.636 88.695 114.996 88.305C115.366 87.905 115.551 87.29 115.551 86.46V86.04C115.551 85.22 115.366 84.61 114.996 84.21C114.636 83.81 114.141 83.61 113.511 83.61C112.881 83.61 112.381 83.81 112.011 84.21C111.651 84.6 111.471 85.21 111.471 86.04V86.46C111.471 87.28 111.651 87.89 112.011 88.29C112.381 88.69 112.881 88.89 113.511 88.89ZM118.758 82.5H119.808L119.943 83.475H119.973C120.293 83.095 120.638 82.82 121.008 82.65C121.388 82.47 121.828 82.38 122.328 82.38C123.228 82.38 123.933 82.645 124.443 83.175C124.953 83.705 125.208 84.48 125.208 85.5V90H123.858V85.575C123.858 84.905 123.703 84.41 123.393 84.09C123.093 83.77 122.648 83.61 122.058 83.61C121.468 83.61 120.993 83.79 120.633 84.15C120.283 84.5 120.108 84.975 120.108 85.575V90H118.758V82.5ZM135.261 90.12C134.601 90.12 134.001 90.01 133.461 89.79C132.921 89.57 132.456 89.245 132.066 88.815C131.676 88.385 131.371 87.855 131.151 87.225C130.941 86.585 130.836 85.855 130.836 85.035V84.315C130.836 83.535 130.941 82.84 131.151 82.23C131.371 81.62 131.676 81.105 132.066 80.685C132.456 80.255 132.921 79.93 133.461 79.71C134.011 79.49 134.611 79.38 135.261 79.38C135.871 79.38 136.416 79.465 136.896 79.635C137.386 79.805 137.806 80.04 138.156 80.34C138.516 80.63 138.801 80.975 139.011 81.375C139.231 81.775 139.381 82.2 139.461 82.65H137.961C137.881 82.37 137.766 82.11 137.616 81.87C137.476 81.63 137.291 81.42 137.061 81.24C136.841 81.06 136.581 80.92 136.281 80.82C135.981 80.72 135.641 80.67 135.261 80.67C134.841 80.67 134.446 80.75 134.076 80.91C133.716 81.06 133.406 81.29 133.146 81.6C132.886 81.91 132.681 82.29 132.531 82.74C132.381 83.19 132.306 83.715 132.306 84.315V85.035C132.306 85.665 132.381 86.22 132.531 86.7C132.681 87.17 132.886 87.565 133.146 87.885C133.416 88.195 133.731 88.43 134.091 88.59C134.451 88.75 134.841 88.83 135.261 88.83C136.141 88.83 136.826 88.6 137.316 88.14C137.806 87.68 138.091 86.915 138.171 85.845H135.261V84.555H139.536V85.05C139.536 85.91 139.436 86.66 139.236 87.3C139.036 87.93 138.751 88.455 138.381 88.875C138.021 89.295 137.576 89.61 137.046 89.82C136.516 90.02 135.921 90.12 135.261 90.12ZM144.147 90.12C143.327 90.12 142.667 89.855 142.167 89.325C141.667 88.795 141.417 88.02 141.417 87V82.5H142.767V86.925C142.767 87.595 142.912 88.09 143.202 88.41C143.502 88.73 143.907 88.89 144.417 88.89C145.007 88.89 145.477 88.715 145.827 88.365C146.187 88.005 146.367 87.525 146.367 86.925V82.5H147.717V90H146.667L146.532 89.025H146.502C146.202 89.405 145.862 89.685 145.482 89.865C145.102 90.035 144.657 90.12 144.147 90.12ZM150.094 82.5H151.444V90H150.094V82.5ZM150.769 81.375C150.509 81.375 150.294 81.29 150.124 81.12C149.954 80.95 149.869 80.735 149.869 80.475C149.869 80.215 149.954 80 150.124 79.83C150.294 79.66 150.509 79.575 150.769 79.575C151.029 79.575 151.244 79.66 151.414 79.83C151.584 80 151.669 80.215 151.669 80.475C151.669 80.735 151.584 80.95 151.414 81.12C151.244 81.29 151.029 81.375 150.769 81.375ZM156.392 90.12C155.492 90.12 154.762 89.815 154.202 89.205C153.642 88.595 153.362 87.68 153.362 86.46V86.04C153.362 85.44 153.437 84.915 153.587 84.465C153.737 84.005 153.947 83.62 154.217 83.31C154.487 83 154.807 82.77 155.177 82.62C155.547 82.46 155.952 82.38 156.392 82.38C157.362 82.38 158.142 82.72 158.732 83.4H158.762V79.5H160.112V90H159.062C159.052 89.95 159.037 89.875 159.017 89.775C159.007 89.675 158.992 89.575 158.972 89.475C158.962 89.365 158.952 89.265 158.942 89.175C158.932 89.075 158.922 89 158.912 88.95H158.882C158.312 89.73 157.482 90.12 156.392 90.12ZM156.767 88.89C157.377 88.89 157.862 88.695 158.222 88.305C158.582 87.905 158.762 87.29 158.762 86.46V86.04C158.762 85.23 158.577 84.625 158.207 84.225C157.847 83.815 157.367 83.61 156.767 83.61C156.157 83.61 155.672 83.81 155.312 84.21C154.952 84.6 154.772 85.21 154.772 86.04V86.46C154.772 87.27 154.952 87.88 155.312 88.29C155.682 88.69 156.167 88.89 156.767 88.89ZM165.366 90.12C164.836 90.12 164.356 90.04 163.926 89.88C163.506 89.71 163.146 89.47 162.846 89.16C162.546 88.84 162.316 88.455 162.156 88.005C161.996 87.555 161.916 87.04 161.916 86.46V86.04C161.916 85.46 161.996 84.945 162.156 84.495C162.316 84.035 162.541 83.65 162.831 83.34C163.131 83.03 163.486 82.795 163.896 82.635C164.316 82.465 164.781 82.38 165.291 82.38C165.801 82.38 166.261 82.465 166.671 82.635C167.091 82.795 167.446 83.035 167.736 83.355C168.036 83.675 168.266 84.065 168.426 84.525C168.586 84.985 168.666 85.515 168.666 86.115V86.655H163.326C163.346 87.365 163.526 87.915 163.866 88.305C164.216 88.695 164.691 88.89 165.291 88.89C165.771 88.89 166.166 88.8 166.476 88.62C166.786 88.44 167.021 88.15 167.181 87.75H168.591C168.411 88.53 168.041 89.12 167.481 89.52C166.931 89.92 166.226 90.12 165.366 90.12ZM165.291 83.61C164.721 83.61 164.271 83.775 163.941 84.105C163.611 84.435 163.411 84.915 163.341 85.545H167.256C167.136 84.255 166.481 83.61 165.291 83.61Z" fill="white"/>
<rect x="76" y="198" width="164" height="40" rx="20" fill="white"/>
<path d="M93.125 212.5H94.925V223H93.125V212.5ZM97.018 215.5H98.368L98.518 216.325H98.548C99.158 215.675 99.923 215.35 100.843 215.35C101.753 215.35 102.468 215.625 102.988 216.175C103.508 216.715 103.768 217.515 103.768 218.575V223H102.028V218.65C102.028 218.08 101.893 217.655 101.623 217.375C101.353 217.085 100.968 216.94 100.468 216.94C99.948 216.94 99.533 217.095 99.223 217.405C98.913 217.715 98.758 218.13 98.758 218.65V223H97.018V215.5ZM108.496 223.135C107.396 223.135 106.586 222.915 106.066 222.475C105.556 222.025 105.266 221.4 105.196 220.6H107.026C107.106 220.98 107.246 221.26 107.446 221.44C107.646 221.61 107.971 221.695 108.421 221.695C108.891 221.695 109.216 221.625 109.396 221.485C109.576 221.335 109.666 221.14 109.666 220.9C109.666 220.65 109.556 220.46 109.336 220.33C109.126 220.19 108.861 220.075 108.541 219.985C108.221 219.895 107.876 219.81 107.506 219.73C107.136 219.64 106.791 219.515 106.471 219.355C106.151 219.185 105.881 218.96 105.661 218.68C105.451 218.4 105.346 218.02 105.346 217.54C105.346 217.23 105.406 216.945 105.526 216.685C105.646 216.415 105.826 216.185 106.066 215.995C106.306 215.795 106.606 215.64 106.966 215.53C107.336 215.42 107.771 215.365 108.271 215.365C109.311 215.365 110.076 215.58 110.566 216.01C111.056 216.44 111.341 217.02 111.421 217.75H109.591C109.511 217.43 109.376 217.195 109.186 217.045C109.006 216.885 108.701 216.805 108.271 216.805C107.861 216.805 107.576 216.87 107.416 217C107.256 217.13 107.176 217.305 107.176 217.525C107.176 217.765 107.281 217.945 107.491 218.065C107.711 218.175 107.981 218.27 108.301 218.35C108.621 218.43 108.966 218.515 109.336 218.605C109.706 218.685 110.051 218.81 110.371 218.98C110.691 219.15 110.956 219.385 111.166 219.685C111.386 219.975 111.496 220.375 111.496 220.885C111.496 221.205 111.431 221.505 111.301 221.785C111.181 222.055 110.996 222.29 110.746 222.49C110.506 222.69 110.196 222.85 109.816 222.97C109.446 223.08 109.006 223.135 108.496 223.135ZM115.924 223C115.514 223 115.169 222.95 114.889 222.85C114.609 222.75 114.374 222.62 114.184 222.46C114.004 222.3 113.864 222.125 113.764 221.935C113.664 221.735 113.589 221.545 113.539 221.365C113.499 221.185 113.474 221.02 113.464 220.87C113.454 220.72 113.449 220.605 113.449 220.525V217.09H112.099V215.5H113.449V213.4H115.189V215.5H117.049V217.09H115.189V220.285C115.189 220.365 115.194 220.47 115.204 220.6C115.214 220.73 115.254 220.855 115.324 220.975C115.394 221.095 115.499 221.2 115.639 221.29C115.779 221.37 115.979 221.41 116.239 221.41H117.199V223H115.924ZM120.578 223.15C119.688 223.15 119.028 222.95 118.598 222.55C118.168 222.15 117.953 221.595 117.953 220.885C117.953 220.515 118.013 220.18 118.133 219.88C118.253 219.58 118.448 219.325 118.718 219.115C118.988 218.905 119.338 218.745 119.768 218.635C120.198 218.515 120.718 218.455 121.328 218.455H122.813V218.05C122.813 217.66 122.698 217.36 122.468 217.15C122.238 216.93 121.883 216.82 121.403 216.82C120.923 216.82 120.578 216.91 120.368 217.09C120.158 217.26 120.033 217.48 119.993 217.75H118.253C118.273 217.41 118.353 217.095 118.493 216.805C118.633 216.505 118.833 216.25 119.093 216.04C119.353 215.82 119.673 215.65 120.053 215.53C120.443 215.41 120.893 215.35 121.403 215.35C122.473 215.35 123.263 215.595 123.773 216.085C124.293 216.575 124.553 217.28 124.553 218.2V223H123.203L123.038 222.025H123.008C122.718 222.385 122.363 222.665 121.943 222.865C121.523 223.055 121.068 223.15 120.578 223.15ZM120.878 221.68C121.158 221.68 121.413 221.635 121.643 221.545C121.883 221.455 122.088 221.335 122.258 221.185C122.428 221.025 122.563 220.84 122.663 220.63C122.763 220.41 122.813 220.175 122.813 219.925V219.745H121.403C120.803 219.745 120.383 219.845 120.143 220.045C119.903 220.235 119.783 220.495 119.783 220.825C119.783 221.075 119.868 221.28 120.038 221.44C120.218 221.6 120.498 221.68 120.878 221.68ZM128.892 223C128.482 223 128.137 222.95 127.857 222.85C127.577 222.75 127.347 222.62 127.167 222.46C126.987 222.3 126.847 222.125 126.747 221.935C126.647 221.735 126.572 221.545 126.522 221.365C126.482 221.185 126.457 221.02 126.447 220.87C126.437 220.72 126.432 220.605 126.432 220.525V212.5H128.172V220.345C128.172 221.055 128.517 221.41 129.207 221.41H129.582V223H128.892ZM133.243 223C132.833 223 132.488 222.95 132.208 222.85C131.928 222.75 131.698 222.62 131.518 222.46C131.338 222.3 131.198 222.125 131.098 221.935C130.998 221.735 130.923 221.545 130.873 221.365C130.833 221.185 130.808 221.02 130.798 220.87C130.788 220.72 130.783 220.605 130.783 220.525V212.5H132.523V220.345C132.523 221.055 132.868 221.41 133.558 221.41H133.933V223H133.243ZM137.38 223.15C136.49 223.15 135.83 222.95 135.4 222.55C134.97 222.15 134.755 221.595 134.755 220.885C134.755 220.515 134.815 220.18 134.935 219.88C135.055 219.58 135.25 219.325 135.52 219.115C135.79 218.905 136.14 218.745 136.57 218.635C137 218.515 137.52 218.455 138.13 218.455H139.615V218.05C139.615 217.66 139.5 217.36 139.27 217.15C139.04 216.93 138.685 216.82 138.205 216.82C137.725 216.82 137.38 216.91 137.17 217.09C136.96 217.26 136.835 217.48 136.795 217.75H135.055C135.075 217.41 135.155 217.095 135.295 216.805C135.435 216.505 135.635 216.25 135.895 216.04C136.155 215.82 136.475 215.65 136.855 215.53C137.245 215.41 137.695 215.35 138.205 215.35C139.275 215.35 140.065 215.595 140.575 216.085C141.095 216.575 141.355 217.28 141.355 218.2V223H140.005L139.84 222.025H139.81C139.52 222.385 139.165 222.665 138.745 222.865C138.325 223.055 137.87 223.15 137.38 223.15ZM137.68 221.68C137.96 221.68 138.215 221.635 138.445 221.545C138.685 221.455 138.89 221.335 139.06 221.185C139.23 221.025 139.365 220.84 139.465 220.63C139.565 220.41 139.615 220.175 139.615 219.925V219.745H138.205C137.605 219.745 137.185 219.845 136.945 220.045C136.705 220.235 136.585 220.495 136.585 220.825C136.585 221.075 136.67 221.28 136.84 221.44C137.02 221.6 137.3 221.68 137.68 221.68ZM146.159 223C145.749 223 145.404 222.95 145.124 222.85C144.844 222.75 144.609 222.62 144.419 222.46C144.239 222.3 144.099 222.125 143.999 221.935C143.899 221.735 143.824 221.545 143.774 221.365C143.734 221.185 143.709 221.02 143.699 220.87C143.689 220.72 143.684 220.605 143.684 220.525V217.09H142.334V215.5H143.684V213.4H145.424V215.5H147.284V217.09H145.424V220.285C145.424 220.365 145.429 220.47 145.439 220.6C145.449 220.73 145.489 220.855 145.559 220.975C145.629 221.095 145.734 221.2 145.874 221.29C146.014 221.37 146.214 221.41 146.474 221.41H147.434V223H146.159ZM148.714 215.5H150.454V223H148.714V215.5ZM149.584 214.6C149.264 214.6 148.994 214.495 148.774 214.285C148.564 214.065 148.459 213.795 148.459 213.475C148.459 213.155 148.564 212.89 148.774 212.68C148.994 212.46 149.264 212.35 149.584 212.35C149.904 212.35 150.169 212.46 150.379 212.68C150.599 212.89 150.709 213.155 150.709 213.475C150.709 213.795 150.599 214.065 150.379 214.285C150.169 214.495 149.904 214.6 149.584 214.6ZM155.627 223.15C154.497 223.15 153.612 222.83 152.972 222.19C152.342 221.54 152.027 220.615 152.027 219.415V219.085C152.027 218.495 152.107 217.97 152.267 217.51C152.437 217.05 152.677 216.66 152.987 216.34C153.307 216.02 153.687 215.775 154.127 215.605C154.567 215.435 155.067 215.35 155.627 215.35C156.757 215.35 157.637 215.675 158.267 216.325C158.907 216.965 159.227 217.885 159.227 219.085V219.415C159.227 220.005 159.142 220.53 158.972 220.99C158.812 221.45 158.572 221.84 158.252 222.16C157.942 222.48 157.562 222.725 157.112 222.895C156.672 223.065 156.177 223.15 155.627 223.15ZM155.627 221.56C156.177 221.56 156.607 221.39 156.917 221.05C157.237 220.7 157.397 220.155 157.397 219.415V219.085C157.397 218.365 157.237 217.83 156.917 217.48C156.597 217.12 156.167 216.94 155.627 216.94C155.077 216.94 154.642 217.115 154.322 217.465C154.012 217.805 153.857 218.345 153.857 219.085V219.415C153.857 220.135 154.017 220.675 154.337 221.035C154.657 221.385 155.087 221.56 155.627 221.56ZM160.724 215.5H162.074L162.224 216.325H162.254C162.864 215.675 163.629 215.35 164.549 215.35C165.459 215.35 166.174 215.625 166.694 216.175C167.214 216.715 167.474 217.515 167.474 218.575V223H165.734V218.65C165.734 218.08 165.599 217.655 165.329 217.375C165.059 217.085 164.674 216.94 164.174 216.94C163.654 216.94 163.239 217.095 162.929 217.405C162.619 217.715 162.464 218.13 162.464 218.65V223H160.724V215.5ZM175.772 222.85C174.822 222.85 174.062 222.55 173.492 221.95C172.932 221.34 172.652 220.445 172.652 219.265V218.935C172.652 218.355 172.727 217.845 172.877 217.405C173.027 216.955 173.237 216.58 173.507 216.28C173.787 215.97 174.117 215.74 174.497 215.59C174.877 215.43 175.302 215.35 175.772 215.35C176.762 215.35 177.562 215.7 178.172 216.4H178.202L178.337 215.5H179.702V223.075C179.702 224.085 179.432 224.85 178.892 225.37C178.352 225.89 177.512 226.15 176.372 226.15C175.302 226.15 174.522 225.93 174.032 225.49C173.542 225.06 173.257 224.455 173.177 223.675H175.007C175.087 224.015 175.227 224.27 175.427 224.44C175.637 224.62 175.952 224.71 176.372 224.71C176.912 224.71 177.312 224.575 177.572 224.305C177.832 224.035 177.962 223.6 177.962 223V221.95H177.932C177.692 222.23 177.377 222.45 176.987 222.61C176.607 222.77 176.202 222.85 175.772 222.85ZM176.222 221.26C176.762 221.26 177.187 221.095 177.497 220.765C177.807 220.435 177.962 219.935 177.962 219.265V218.935C177.962 218.275 177.802 217.78 177.482 217.45C177.172 217.11 176.752 216.94 176.222 216.94C175.682 216.94 175.257 217.105 174.947 217.435C174.637 217.765 174.482 218.265 174.482 218.935V219.265C174.482 219.925 174.637 220.425 174.947 220.765C175.267 221.095 175.692 221.26 176.222 221.26ZM184.357 223.15C183.527 223.15 182.857 222.875 182.347 222.325C181.837 221.765 181.582 220.94 181.582 219.85V215.5H183.322V219.85C183.322 220.42 183.452 220.85 183.712 221.14C183.972 221.42 184.312 221.56 184.732 221.56C185.252 221.56 185.667 221.405 185.977 221.095C186.287 220.785 186.442 220.37 186.442 219.85V215.5H188.182V223H186.832L186.682 222.175H186.652C186.072 222.825 185.307 223.15 184.357 223.15ZM190.213 215.5H191.953V223H190.213V215.5ZM191.083 214.6C190.763 214.6 190.493 214.495 190.273 214.285C190.063 214.065 189.958 213.795 189.958 213.475C189.958 213.155 190.063 212.89 190.273 212.68C190.493 212.46 190.763 212.35 191.083 212.35C191.403 212.35 191.668 212.46 191.878 212.68C192.098 212.89 192.208 213.155 192.208 213.475C192.208 213.795 192.098 214.065 191.878 214.285C191.668 214.495 191.403 214.6 191.083 214.6ZM196.646 223.15C195.696 223.15 194.936 222.84 194.366 222.22C193.806 221.6 193.526 220.665 193.526 219.415V219.085C193.526 217.845 193.811 216.915 194.381 216.295C194.961 215.665 195.716 215.35 196.646 215.35C197.076 215.35 197.481 215.43 197.861 215.59C198.251 215.75 198.566 215.97 198.806 216.25H198.836V212.5H200.576V223H199.226C199.216 222.96 199.201 222.895 199.181 222.805C199.171 222.715 199.156 222.625 199.136 222.535C199.126 222.445 199.116 222.36 199.106 222.28C199.096 222.2 199.086 222.14 199.076 222.1H199.046C198.436 222.8 197.636 223.15 196.646 223.15ZM197.096 221.56C197.636 221.56 198.061 221.39 198.371 221.05C198.681 220.7 198.836 220.15 198.836 219.4V219.07C198.836 218.35 198.676 217.815 198.356 217.465C198.046 217.115 197.626 216.94 197.096 216.94C196.556 216.94 196.131 217.11 195.821 217.45C195.511 217.79 195.356 218.335 195.356 219.085V219.415C195.356 220.145 195.511 220.685 195.821 221.035C196.141 221.385 196.566 221.56 197.096 221.56ZM205.681 223.15C204.551 223.15 203.666 222.83 203.026 222.19C202.396 221.54 202.081 220.615 202.081 219.415V219.085C202.081 218.495 202.161 217.97 202.321 217.51C202.491 217.04 202.726 216.645 203.026 216.325C203.336 216.005 203.706 215.765 204.136 215.605C204.576 215.435 205.066 215.35 205.606 215.35C206.696 215.35 207.556 215.675 208.186 216.325C208.816 216.975 209.131 217.92 209.131 219.16V219.79H203.836C203.886 220.45 204.051 220.93 204.331 221.23C204.611 221.53 205.036 221.68 205.606 221.68C206.506 221.68 207.056 221.37 207.256 220.75H209.056C208.886 221.53 208.506 222.125 207.916 222.535C207.336 222.945 206.591 223.15 205.681 223.15ZM205.606 216.82C205.076 216.82 204.671 216.955 204.391 217.225C204.111 217.485 203.931 217.91 203.851 218.5H207.361C207.291 217.91 207.116 217.485 206.836 217.225C206.556 216.955 206.146 216.82 205.606 216.82Z" fill="#373C42"/>
<path d="M222.735 218.7L219.55 215.515C219.234 215.2 219.234 214.688 219.55 214.372C219.866 214.056 220.378 214.056 220.693 214.372L224.444 218.123C224.763 218.442 224.763 218.959 224.444 219.278L220.693 223.029C220.378 223.344 219.866 223.344 219.55 223.029C219.234 222.713 219.234 222.201 219.55 221.885L222.735 218.7Z" fill="#373C42"/>
<g opacity="0.6">
<path d="M31 218L36 223L41 218" stroke="white" stroke-width="2" stroke-linecap="round" stroke-linejoin="round"/>
<path d="M36 223L36 211" stroke="white" stroke-width="2" stroke-linecap="round" stroke-linejoin="round"/>
<path d="M45 223L45 227C45 227.53 44.7893 228.039 44.4142 228.414C44.0391 228.789 43.5304 229 43 229L29 229C28.4696 229 27.9609 228.789 27.5858 228.414C27.2107 228.039 27 227.53 27 227L27 223" stroke="white" stroke-width="2" stroke-linecap="round" stroke-linejoin="round"/>
</g>
</g>
<defs>
<filter id="filter0_f_91_478" x="-1026.43" y="-514.151" width="1748.58" height="2020.87" filterUnits="userSpaceOnUse" color-interpolation-filters="sRGB">
<feFlood flood-opacity="0" result="BackgroundImageFix"/>
<feBlend mode="normal" in="SourceGraphic" in2="BackgroundImageFix" result="shape"/>
<feGaussianBlur stdDeviation="198.992" result="effect1_foregroundBlur_91_478"/>
</filter>
<filter id="filter1_f_91_478" x="-450.721" y="-120.105" width="934.283" height="979.989" filterUnits="userSpaceOnUse" color-interpolation-filters="sRGB">
<feFlood flood-opacity="0" result="BackgroundImageFix"/>
<feBlend mode="normal" in="SourceGraphic" in2="BackgroundImageFix" result="shape"/>
<feGaussianBlur stdDeviation="100" result="effect1_foregroundBlur_91_478"/>
</filter>
<clipPath id="clip0_91_478">
<rect width="258.667" height="256" rx="30" fill="white"/>
</clipPath>
</defs>
</svg>
